<?xml version="1.0" encoding="UTF-8"?>
<svg version="1.1" xmlns="http://www.w3.org/2000/svg" width="400" height="400">
<path d="M0 0 C132 0 264 0 400 0 C400 132 400 264 400 400 C268 400 136 400 0 400 C0 268 0 136 0 0 Z " fill="#FEFEFE" transform="translate(0,0)"/>
<path d="M0 0 C0 132 0 264 0 400 C-45.87 400 -91.74 400 -139 400 C-139 334 -139 268 -139 200 C-145.48489533 198.02189124 -145.48489533 198.02189124 -152.0234375 196.23828125 C-154 195 -154 195 -155.0390625 191.91796875 C-155.32910156 190.07138672 -155.32910156 190.07138672 -155.625 188.1875 C-156.31678201 183.24863234 -156.31678201 183.24863234 -158.45507812 178.8605957 C-160.58401045 174.9186393 -160.95147854 171.1592138 -161.4921875 166.75 C-161.613591 165.83395996 -161.73499451 164.91791992 -161.8600769 163.97412109 C-162.25251241 160.98420813 -162.62737563 157.99244197 -163 155 C-163.26043876 152.95569049 -163.52118308 150.91141988 -163.78222656 148.8671875 C-164.57909337 142.58006748 -165.35390911 136.29032597 -166.125 130 C-166.64628335 125.74973113 -167.17007337 121.49978161 -167.6953125 117.25 C-167.87031784 115.81261475 -167.87031784 115.81261475 -168.04885864 114.34619141 C-168.15922455 113.45335449 -168.26959045 112.56051758 -168.38330078 111.640625 C-168.47862091 110.86235352 -168.57394104 110.08408203 -168.67214966 109.28222656 C-168.9044206 107.66534582 -169.19720473 106.0566345 -169.53144836 104.4577179 C-170.23029624 100.79201535 -170.12213949 97.13471579 -170.09765625 93.41796875 C-170.09553383 92.19670036 -170.09553383 92.19670036 -170.09336853 90.95075989 C-170.08779317 88.36296844 -170.07524524 85.77526508 -170.0625 83.1875 C-170.05748181 81.42773563 -170.05291946 79.66796989 -170.04882812 77.90820312 C-170.03783181 73.60543506 -170.02058421 69.30273244 -170 65 C-166.7 65 -163.4 65 -160 65 C-160.00999275 63.82275864 -160.00999275 63.82275864 -160.02018738 62.62173462 C-160.08023366 55.23487195 -160.12594113 47.84812717 -160.15543652 40.46108437 C-160.17111006 36.66307817 -160.19237859 32.86527319 -160.22631836 29.06738281 C-160.25885241 25.40397533 -160.27684029 21.74076169 -160.28463173 18.07722092 C-160.29018603 16.6777173 -160.30103199 15.27822461 -160.31719017 13.87880325 C-160.33888273 11.92272489 -160.3402247 9.96645252 -160.34057617 8.01025391 C-160.35056892 6.33813339 -160.35056892 6.33813339 -160.36076355 4.63223267 C-160.24171158 3.76359589 -160.12265961 2.89495911 -160 2 C-115.62051756 -27.58632163 -53.33749984 0 0 0 Z " fill="#FEFEFE" transform="translate(400,0)"/>
<path d="M0 0 C1.80078125 2.1171875 1.80078125 2.1171875 3.3125 4.875 C3.82425781 5.77992187 4.33601563 6.68484375 4.86328125 7.6171875 C6 10 6 10 6 12 C6.56823486 11.67499512 7.13646973 11.34999023 7.72192383 11.01513672 C15.11996468 7.71848536 25.16569064 10.6087638 32.8125 11.875 C33.89853516 12.04902344 34.98457031 12.22304687 36.10351562 12.40234375 C38.28641364 12.75212563 40.46887614 13.10463705 42.65087891 13.45996094 C48.09575369 14.33793608 53.54779679 15.16894307 59 16 C58.96648437 15.22269531 58.93296875 14.44539062 58.8984375 13.64453125 C59 11 59 11 60.625 8.6875 C63 7 63 7 65.875 6.125 C69.81485624 7.22815975 70.27828652 8.45300536 72.375 11.875 C75 16.6 75 16.6 75 19 C75.88751953 19.03867188 75.88751953 19.03867188 76.79296875 19.078125 C77.58316406 19.13484375 78.37335938 19.1915625 79.1875 19.25 C79.96480469 19.29640625 80.74210937 19.3428125 81.54296875 19.390625 C88.62151718 21.14619504 91.72047595 27.82896786 95.25 33.625 C95.79140625 34.49640625 96.3328125 35.3678125 96.890625 36.265625 C100.74614448 42.49228896 100.74614448 42.49228896 102 45 C104.5991685 45.62738983 104.5991685 45.62738983 107.75 46 C108.92046875 46.16757813 110.0909375 46.33515625 111.296875 46.5078125 C113.72200727 46.83014021 116.14911762 47.13799447 118.578125 47.4296875 C119.70734375 47.57664063 120.8365625 47.72359375 122 47.875 C123.546875 48.05675781 123.546875 48.05675781 125.125 48.2421875 C129.70248632 49.44875319 132.26756639 51.94209161 134.93774414 55.79882812 C135.54739014 56.86552734 136.15703613 57.93222656 136.78515625 59.03125 C137.12251297 59.61445511 137.45986969 60.19766022 137.80744934 60.79853821 C138.9015219 62.69397664 139.98178536 64.59691968 141.0625 66.5 C141.82777336 67.8296916 142.59422389 69.15870637 143.36181641 70.48706055 C144.88684622 73.12674433 146.40824672 75.76846323 147.92724609 78.41162109 C150.52013041 82.91274098 153.18629744 87.36807707 155.875 91.8125 C161.54519311 101.2158451 167.14715186 110.65915366 172.74765015 120.10409546 C177.21167255 127.63169929 181.68166325 135.15511999 186.19824219 142.65136719 C187.62567148 145.02230385 189.04611072 147.39728982 190.46484375 149.7734375 C192.1197157 152.5447662 193.80130351 155.29684124 195.50390625 158.0390625 C196.25317537 159.27569576 197.00191074 160.51265264 197.75 161.75 C198.38421875 162.77609375 199.0184375 163.8021875 199.671875 164.859375 C201.30285585 168.71616501 201.82855727 171.91933154 201 176 C199.64487407 179.07063412 197.83917316 181.74227585 195.9375 184.5 C194.8353712 186.16021953 193.73520808 187.82174516 192.63671875 189.484375 C192.04810059 190.36673828 191.45948242 191.24910156 190.85302734 192.15820312 C188.88398427 195.17792135 187.00728398 198.24178563 185.14453125 201.328125 C184.49685791 202.39482422 183.84918457 203.46152344 183.18188477 204.56054688 C181.92237494 206.63993981 180.67113655 208.72437227 179.42944336 210.81445312 C174.76808888 218.42326977 169.7708825 225.14137313 161 228 C151.1989338 229.06390676 140.74209725 227.42763826 130.9375 226.6875 C127.20190868 226.40899616 123.46619505 226.13215534 119.73046875 225.85546875 C118.29593857 225.74856216 118.29593857 225.74856216 116.83242798 225.63949585 C109.92852458 225.12925087 103.02223229 224.67416514 96.11328125 224.23828125 C93.2501044 224.05251608 90.3870129 223.86549572 87.5239563 223.67788696 C85.68494288 223.55995558 83.84564057 223.44644029 82.006073 223.3374939 C79.4354366 223.18463034 76.86628461 223.01585508 74.296875 222.84375 C73.54243607 222.80312943 72.78799713 222.76250885 72.01069641 222.72065735 C67.37392556 222.39076028 63.96648947 221.43570245 60 219 C58.55859375 216.890625 58.55859375 216.890625 57.4375 214.25 C54.59696381 208.09673459 51.37099993 202.25384069 48 196.375 C43.28205914 188.10035357 38.68265018 179.77272298 34.1875 171.375 C29.18201622 162.03035594 24.12415165 152.71743661 19 143.4375 C18.66815704 142.83646454 18.33631409 142.23542908 17.99441528 141.61618042 C12.48446415 131.6426201 6.92805708 121.6953119 1.33984375 111.76538086 C0.79714844 110.79995361 0.25445312 109.83452637 -0.3046875 108.83984375 C-0.77890137 107.99800537 -1.25311523 107.15616699 -1.74169922 106.28881836 C-2.15693848 105.5335083 -2.57217773 104.77819824 -3 104 C-3.37777588 103.31736084 -3.75555176 102.63472168 -4.14477539 101.93139648 C-5.87720593 98.018962 -5.71370449 93.8885026 -4.22607422 89.95214844 C-3.1921429 87.88428579 -2.09301827 85.87738392 -0.9375 83.875 C2.05305719 78.8219901 2.05305719 78.8219901 3.0625 73.15234375 C1.46971098 68.42667928 -0.76464219 64.1055462 -3.0625 59.6875 C-4.06292158 57.73004665 -5.06159986 55.77170141 -6.05859375 53.8125 C-6.55472168 52.83925781 -7.05084961 51.86601562 -7.56201172 50.86328125 C-10.02255959 45.96390851 -12.33137915 40.99544977 -14.62524414 36.01635742 C-15.96631686 32.78364119 -15.96631686 32.78364119 -18 30 C-18.375 27.6875 -18.375 27.6875 -18 25 C-14.78808497 21.78808497 -11.13151593 19.8362293 -7 18 C-6.34 18 -5.68 18 -5 18 C-5.37253906 17.33613281 -5.74507812 16.67226562 -6.12890625 15.98828125 C-6.60199219 15.10527344 -7.07507812 14.22226563 -7.5625 13.3125 C-8.03816406 12.44238281 -8.51382813 11.57226562 -9.00390625 10.67578125 C-10.1566815 7.57911048 -10.03600427 6.10269996 -9 3 C-6.16989916 0.06882413 -4.01207812 -0.59234639 0 0 Z " fill="#4C4B4E" transform="translate(48,114)"/>
<path d="M0 0 C27.06 0 54.12 0 82 0 C82 43.50115031 82 43.50115031 78.51708984 65.68066406 C78.04708102 68.69777456 77.61558267 71.71623671 77.20703125 74.7421875 C76.51845399 79.83568918 75.77455255 84.91889841 75 90 C74.83999512 91.05525879 74.67999023 92.11051758 74.51513672 93.19775391 C74.00093681 96.55045341 73.47172826 99.9004383 72.9375 103.25 C72.77507812 104.30566162 72.61265625 105.36132324 72.4453125 106.44897461 C72.28675781 107.41971924 72.12820313 108.39046387 71.96484375 109.390625 C71.8268335 110.25719727 71.68882324 111.12376953 71.54663086 112.01660156 C71.27604858 112.99838379 71.27604858 112.99838379 71 114 C70.01 114.495 70.01 114.495 69 115 C68.84127693 117.08103574 68.72316183 119.16522974 68.625 121.25 C68.16015625 124.8125 68.16015625 124.8125 67 128 C63.27075824 130.68462106 59.41817655 131.86060742 55 133 C54.01 133.33 53.02 133.66 52 134 C51.67 200 51.34 266 51 334 C44.07 334 37.14 334 30 334 C30 268 30 202 30 134 C23.51510467 132.02189124 23.51510467 132.02189124 16.9765625 130.23828125 C15 129 15 129 13.9609375 125.91796875 C13.76757812 124.68691406 13.57421875 123.45585937 13.375 122.1875 C12.68564077 117.25140641 12.68564077 117.25140641 10.54467773 112.86938477 C8.40062215 108.88659904 8.05085651 105.06139378 7.51171875 100.609375 C7.2624766 98.71025106 7.01295552 96.81116371 6.76318359 94.91210938 C6.63828552 93.93363037 6.51338745 92.95515137 6.38470459 91.94702148 C5.89386039 88.18691974 5.34626953 84.43623254 4.79763794 80.6842041 C4.24381189 76.84612126 3.72549755 73.00357921 3.21020508 69.16015625 C2.94976999 67.25445569 2.67962426 65.35005103 2.39868164 63.44726562 C-0.74235002 42.06816561 0 22.00221309 0 0 Z " fill="#464647" transform="translate(231,66)"/>
<path d="M0 0 C14.85 0 29.7 0 45 0 C45 1.98 45 3.96 45 6 C46.65 6 48.3 6 50 6 C50.05605191 7.87462511 50.09367206 9.74979877 50.125 11.625 C50.14820313 12.66914062 50.17140625 13.71328125 50.1953125 14.7890625 C50.12680749 18.25559173 49.6441511 21.59036158 49.1171875 25.015625 C47.41916671 36.35130501 46.67526335 47.79103684 45.75 59.21044922 C45.27769528 65.00448425 44.77829769 70.79440519 44.22363281 76.58117676 C44.02832782 78.69360494 43.86675967 80.80909764 43.7109375 82.92480469 C43.60007812 83.97829102 43.48921875 85.03177734 43.375 86.1171875 C43.30023438 86.96651855 43.22546875 87.81584961 43.1484375 88.69091797 C41.75146327 91.49971522 40.73706349 91.74339331 37.99072266 93.12507153 C34.49309194 95.26148446 34.10950475 95.58546262 33 99.78556538 C32.95920743 101.29247076 32.96226837 102.80095249 33 104.30793762 C32.98362157 105.5577875 32.98362157 105.5577875 32.96691227 106.83288687 C32.94002941 109.62392888 32.97013833 112.41142391 33 115.20239258 C32.99239395 117.20312061 32.98127512 119.20383793 32.96690369 121.20452881 C32.93785608 126.63627773 32.95802277 132.0668672 32.9869194 137.49857545 C33.00878315 143.17479295 32.98553595 148.85081968 32.96704102 154.52702332 C32.93888924 165.27575574 32.95140181 176.02404227 32.97846508 186.772762 C33.00729994 199.00970983 32.99089227 211.2464655 32.97065353 223.48341525 C32.93003614 248.65573243 32.94793934 273.82771865 33 299 C26.4 299 19.8 299 13 299 C13.00523682 296.46790359 13.01047363 293.93580719 13.01586914 291.32698059 C13.06134201 267.50300165 13.06274854 243.67931302 13.02334595 219.85532093 C13.00415124 207.60614884 12.99992063 195.35731102 13.03076172 183.1081543 C13.05760114 172.43333058 13.05652295 161.7589398 13.02174091 151.08413237 C13.00429859 145.43029171 13.00095819 139.77722679 13.03103638 134.12342262 C13.0588977 128.80347387 13.04947678 123.48490336 13.01126289 118.16503143 C13.00383476 116.21110265 13.01011441 114.25706708 13.03101921 112.30323601 C13.05751381 109.63648191 13.03494336 106.9744914 13 104.30793762 C13.01941178 103.53263933 13.03882357 102.75734103 13.05882359 101.95854884 C13.07487186 99.48351567 13.07487186 99.48351567 12 96 C10.04333773 94.3509156 8.12634034 93.21677851 5.83474445 92.0838663 C4 91 4 91 2.7722168 88.11035156 C2.66562744 87.0478418 2.55903809 85.98533203 2.44921875 84.890625 C2.30967773 83.67745605 2.17013672 82.46428711 2.02636719 81.21435547 C1.91454102 79.90611816 1.80271484 78.59788086 1.6875 77.25 C1.54490512 75.872254 1.39934001 74.49481254 1.25097656 73.11767578 C0.94679249 70.22437265 0.66670754 67.33013564 0.40576172 64.43261719 C0.07699725 60.78380313 -0.29167899 57.14062522 -0.6763916 53.49732971 C-2.34446224 37.65640363 -3.48976173 21.94446527 -3 6 C-2.01 6 -1.02 6 0 6 C0 4.02 0 2.04 0 0 Z " fill="#373738" transform="translate(321,101)"/>
<path d="M0 0 C0.66 0 1.32 0 2 0 C3.17076699 3.98060777 4.25749403 7.91621717 5 12 C5.66 12 6.32 12 7 12 C7.67354499 13.43429001 8.33859701 14.87257057 9 16.3125 C9.37125 17.11300781 9.7425 17.91351563 10.125 18.73828125 C11 21 11 21 11 24 C11.66 24 12.32 24 13 24 C13.48919922 25.19496094 13.48919922 25.19496094 13.98828125 26.4140625 C16.70651959 33.10763819 16.70651959 33.10763819 19.8125 39.625 C21 42 21 42 21 44 C21.99 44.33 22.98 44.66 24 45 C25.05908203 46.68652344 25.05908203 46.68652344 26.0078125 48.859375 C26.35457031 49.64570313 26.70132813 50.43203125 27.05859375 51.2421875 C27.41050781 52.06976563 27.76242188 52.89734375 28.125 53.75 C28.66447266 54.96816406 28.66447266 54.96816406 29.21484375 56.2109375 C30.90833343 60.10532951 32.43069374 63.75608064 33 68 C33.99 68 34.98 68 36 68 C36.37125 68.9075 36.7425 69.815 37.125 70.75 C38.11238019 73.14928617 39.1756885 75.28655554 40.53515625 77.50390625 C45.91439364 86.64733812 45.61616876 94.73052059 45 105 C45.66 105.33 46.32 105.66 47 106 C46.2575 106.99 45.515 107.98 44.75 109 C42.4395968 112.22154812 40.67903066 115.50709422 38.9765625 119.078125 C37.55527824 121.87521243 35.7522076 124.40189908 34 127 C33.67 127.99 33.34 128.98 33 130 C32.34 130 31.68 130 31 130 C30.773125 130.82242188 30.54625 131.64484375 30.3125 132.4921875 C28.71200377 136.76970421 26.47804115 140.30881663 24 144.125 C23.10257606 145.52241728 22.20669097 146.92082427 21.3125 148.3203125 C20.91675781 148.93148926 20.52101562 149.54266602 20.11328125 150.17236328 C17.70754386 154.12178217 16.62924738 157.38551921 16 162 C13.23236701 158.6952412 11.01138241 155.44410296 9.00390625 151.6328125 C8.4521875 150.59447266 7.90046875 149.55613281 7.33203125 148.48632812 C6.74808594 147.37708984 6.16414063 146.26785156 5.5625 145.125 C4.30535627 142.76193798 3.04685751 140.39968558 1.78515625 138.0390625 C1.46717072 137.44357605 1.14918518 136.8480896 0.82156372 136.23455811 C-2.19434066 130.60365275 -5.3325309 125.04660768 -8.5 119.5 C-13.78591442 110.23249818 -18.88207289 100.87392039 -23.875 91.4453125 C-26.58138797 86.36318124 -29.34007346 81.36425161 -32.3984375 76.484375 C-32.9229248 75.63649414 -33.44741211 74.78861328 -33.98779297 73.91503906 C-34.95879267 72.36432401 -35.95350204 70.82806739 -36.97705078 69.31152344 C-39.46330579 65.32197309 -40.34409364 62.71161738 -39.5546875 58.01171875 C-38.23027509 53.06932996 -36.13071523 48.75169775 -33.625 44.3125 C-32.72527124 42.66867485 -31.82689699 41.02410779 -30.9296875 39.37890625 C-30.45499023 38.51539551 -29.98029297 37.65188477 -29.49121094 36.76220703 C-27.90874735 33.83097046 -26.3899143 30.87299221 -24.8828125 27.90234375 C-24.36122559 26.87906982 -23.83963867 25.8557959 -23.30224609 24.80151367 C-22.2911941 22.81391713 -21.28600381 20.82332447 -20.28759766 18.8293457 C-13.32974258 5.27401676 -13.32974258 5.27401676 -6.25 2 C-3 1 -3 1 -1 2 C-0.67 1.34 -0.34 0.68 0 0 Z " fill="#2C2C2C" transform="translate(92,168)"/>
<path d="M0 0 C1.80078125 2.1171875 1.80078125 2.1171875 3.3125 4.875 C3.82425781 5.77992187 4.33601563 6.68484375 4.86328125 7.6171875 C6 10 6 10 6 12 C6.56823486 11.67499512 7.13646973 11.34999023 7.72192383 11.01513672 C15.11996468 7.71848536 25.16569064 10.6087638 32.8125 11.875 C33.89853516 12.04902344 34.98457031 12.22304687 36.10351562 12.40234375 C38.28641364 12.75212563 40.46887614 13.10463705 42.65087891 13.45996094 C48.09575369 14.33793608 53.54779679 15.16894307 59 16 C58.96648437 15.22269531 58.93296875 14.44539062 58.8984375 13.64453125 C59 11 59 11 60.625 8.6875 C63 7 63 7 65.875 6.125 C69.81485624 7.22815975 70.27828652 8.45300536 72.375 11.875 C75 16.6 75 16.6 75 19 C75.88751953 19.03867188 75.88751953 19.03867188 76.79296875 19.078125 C77.58316406 19.13484375 78.37335938 19.1915625 79.1875 19.25 C79.96480469 19.29640625 80.74210937 19.3428125 81.54296875 19.390625 C88.62151718 21.14619504 91.72047595 27.82896786 95.25 33.625 C95.79140625 34.49640625 96.3328125 35.3678125 96.890625 36.265625 C100.74614448 42.49228896 100.74614448 42.49228896 102 45 C104.5991685 45.62738983 104.5991685 45.62738983 107.75 46 C108.91660156 46.165 110.08320313 46.33 111.28515625 46.5 C112.51105469 46.665 113.73695313 46.83 115 47 C117.39693022 47.32535214 119.79284732 47.65828813 122.1875 48 C123.25355469 48.144375 124.31960937 48.28875 125.41796875 48.4375 C128 49 128 49 130 51 C131.22049441 52.95899218 132.40358685 54.94145961 133.5625 56.9375 C134.18253906 57.99839844 134.80257812 59.05929688 135.44140625 60.15234375 C137 63 137 63 138 66 C127.56777702 65.36117481 117.28419603 64.05903989 106.9375 62.625 C105.28021269 62.39779867 103.62290458 62.170749 101.96557617 61.94384766 C84.59756104 59.55793202 67.28258751 56.94304932 50 54 C50 55.32 50 56.64 50 58 C51.485 58.495 51.485 58.495 53 59 C53.495 62.465 53.495 62.465 54 66 C54.66 66 55.32 66 56 66 C56.99 69.96 56.99 69.96 58 74 C58.66 74 59.32 74 60 74 C62.62788203 76.30935087 63.87994369 77.63983107 65 81 C65.66 81.33 66.32 81.66 67 82 C67.40729228 84.32156597 67.74438677 86.6568787 68 89 C69.485 89.495 69.485 89.495 71 90 C71.88671875 91.72265625 71.88671875 91.72265625 72.6875 94.0625 C75.2822158 101.01833428 78.68750354 107.52231121 82.05566406 114.12597656 C83.72934363 117.44737377 85.31395508 120.81311731 86.89453125 124.1796875 C88.01658908 126.31673811 88.01658908 126.31673811 91 128 C91 128.66 91 129.32 91 130 C91.99 130.33 92.98 130.66 94 131 C98 137.05714286 98 137.05714286 98 142 C98.66 142 99.32 142 100 142 C103.06242216 146.84060277 104.53411505 150.29290936 105 156 C101.88847976 157.55576012 100.45766656 157.73142946 97 157 C93.86838092 153.09868178 91.79393273 148.60541094 89.5859375 144.140625 C88.41464524 141.82112013 87.21347596 139.54589794 85.95703125 137.2734375 C85.43012695 136.314375 85.43012695 136.314375 84.89257812 135.3359375 C84.16649009 134.01768726 83.43461216 132.70261113 82.69726562 131.390625 C80.79870368 127.91051516 80 126.05122103 80 122 C79.01 122 78.02 122 77 122 C76.78085938 121.42894531 76.56171875 120.85789062 76.3359375 120.26953125 C74.33054689 115.1419268 72.19511272 110.08442155 69.9375 105.0625 C69.45152344 103.98097656 68.96554688 102.89945312 68.46484375 101.78515625 C67.14197118 99.26993453 66.02674942 97.90591341 64 96 C62.47792649 93.4259051 61.25456557 90.71324696 60 88 C59.69578125 87.34902344 59.3915625 86.69804687 59.078125 86.02734375 C57.79310908 83.1724263 57 81.16605406 57 78 C56.34 78 55.68 78 55 78 C54.3291288 76.3767313 53.66342971 74.75132422 53 73.125 C52.62875 72.22007812 52.2575 71.31515625 51.875 70.3828125 C51 68 51 68 51 66 C50.34 66 49.68 66 49 66 C46.58314288 61.77050005 45.65166856 58.87664009 46 54 C45.34 54 44.68 54 44 54 C43.67 54.99 43.34 55.98 43 57 C42.01 56.505 42.01 56.505 41 56 C33.02479278 58.30054054 30.09560186 63.30754077 26.12890625 70.296875 C22.17945569 77.52050667 18.52088212 84.8976332 14.87304688 92.27685547 C12.88577171 96.28400028 10.8059316 100.2183798 8.625 104.125 C6.65613477 107.67216751 5.06493538 111.05973908 4 115 C1.26959323 111.9662147 -0.8162263 108.76305308 -2.75 105.1875 C-3.39195313 104.00220703 -3.39195313 104.00220703 -4.046875 102.79296875 C-5.55468014 98.37460533 -5.88256846 94.32710001 -4.22509766 89.95678711 C-3.19313742 87.88613321 -2.09381945 85.87877227 -0.9375 83.875 C2.05305719 78.8219901 2.05305719 78.8219901 3.0625 73.15234375 C1.46971098 68.42667928 -0.76464219 64.1055462 -3.0625 59.6875 C-4.06292158 57.73004665 -5.06159986 55.77170141 -6.05859375 53.8125 C-6.55472168 52.83925781 -7.05084961 51.86601562 -7.56201172 50.86328125 C-10.02255959 45.96390851 -12.33137915 40.99544977 -14.62524414 36.01635742 C-15.96631686 32.78364119 -15.96631686 32.78364119 -18 30 C-18.375 27.6875 -18.375 27.6875 -18 25 C-14.78808497 21.78808497 -11.13151593 19.8362293 -7 18 C-6.34 18 -5.68 18 -5 18 C-5.37253906 17.33613281 -5.74507812 16.67226562 -6.12890625 15.98828125 C-6.60199219 15.10527344 -7.07507812 14.22226563 -7.5625 13.3125 C-8.03816406 12.44238281 -8.51382813 11.57226562 -9.00390625 10.67578125 C-10.1566815 7.57911048 -10.03600427 6.10269996 -9 3 C-6.16989916 0.06882413 -4.01207812 -0.59234639 0 0 Z " fill="#656566" transform="translate(48,114)"/>
<path d="M0 0 C0.91127151 0.05064102 1.82254303 0.10128204 2.76142883 0.15345764 C15.44122765 0.916541 28.08993649 2.13442955 40.73413086 3.33764648 C44.35163218 3.68183274 47.96992266 4.01678457 51.5885191 4.34923458 C54.42096341 4.61054951 57.25291847 4.87689121 60.08475685 5.14468575 C62.05734795 5.3303066 64.03034026 5.51164831 66.00334167 5.69285583 C72.892445 6.35601494 79.60574063 7.26523183 86.35546875 8.80859375 C87.35546875 11.80859375 87.35546875 11.80859375 86.52734375 13.91015625 C81.91186686 22.10135975 76.81704667 29.95069669 71.66113281 37.80957031 C69.30338915 41.41936932 67.00166462 45.06423549 64.6953125 48.70703125 C63.60265604 50.42087725 62.48291191 52.11742901 61.35546875 53.80859375 C60.36546875 53.80859375 59.37546875 53.80859375 58.35546875 53.80859375 C58.35546875 54.46859375 58.35546875 55.12859375 58.35546875 55.80859375 C50.31753705 59.8275596 35.0564761 56.46722553 26.04296875 56.0390625 C25.1873938 55.9986767 24.33181885 55.9582909 23.45031738 55.91668129 C18.93918587 55.70297378 14.42827136 55.4851781 9.91748047 55.2644043 C6.19547103 55.08302461 2.47321404 54.90991508 -1.24951172 54.74389648 C-5.77029492 54.54228529 -10.29023527 54.32709323 -14.80990601 54.10195351 C-16.52568431 54.01871391 -18.24169928 53.94021051 -19.95791626 53.86656761 C-22.34909504 53.76290921 -24.73878388 53.64177758 -27.12890625 53.51635742 C-27.83438095 53.4897403 -28.53985565 53.46312317 -29.26670837 53.43569946 C-33.28709958 53.20304719 -35.6968933 52.61271187 -38.64453125 49.80859375 C-38.01166761 46.77864782 -37.01018275 44.41344507 -35.4765625 41.73046875 C-35.02748535 40.94220703 -34.5784082 40.15394531 -34.11572266 39.34179688 C-29.34725172 31.13110082 -24.50299014 22.96630639 -19.64453125 14.80859375 C-19.20544434 14.06738281 -18.76635742 13.32617188 -18.31396484 12.5625 C-17.22285604 10.72352236 -16.12333451 8.8899706 -15.01953125 7.05859375 C-14.42914063 6.07375 -13.83875 5.08890625 -13.23046875 4.07421875 C-9.62977128 -1.06963477 -5.65898002 -0.35421161 0 0 Z " fill="#434245" transform="translate(155.64453125,278.19140625)"/>
<path d="M0 0 C1.13127319 -0.00307663 2.26254639 -0.00615326 3.42810059 -0.00932312 C4.65001099 -0.0021376 5.87192139 0.00504791 7.13085938 0.01245117 C9.01158142 0.0131385 9.01158142 0.0131385 10.93029785 0.01383972 C13.58338943 0.01686313 16.23613433 0.02368126 18.88916016 0.03710938 C22.28881723 0.05409901 25.68832577 0.0579236 29.08802032 0.05716419 C32.33148136 0.0575016 35.57491127 0.06634105 38.81835938 0.07495117 C40.65122498 0.07662041 40.65122498 0.07662041 42.52111816 0.07832336 C43.65239136 0.08470322 44.78366455 0.09108307 45.94921875 0.09765625 C46.94610718 0.10146805 47.94299561 0.10527985 48.97009277 0.10920715 C51.47460938 0.24291992 51.47460938 0.24291992 54.47460938 1.24291992 C54.47460938 22.36291992 54.47460938 43.48291992 54.47460938 65.24291992 C57.77460938 65.24291992 61.07460938 65.24291992 64.47460938 65.24291992 C64.47460938 65.57291992 64.47460938 65.90291992 64.47460938 66.24291992 C37.41460937 66.24291992 10.35460937 66.24291992 -17.52539062 66.24291992 C-17.52539062 78.12291992 -17.52539062 90.00291992 -17.52539062 102.24291992 C-17.85539063 102.24291992 -18.18539062 102.24291992 -18.52539062 102.24291992 C-18.52539062 90.03291992 -18.52539062 77.82291992 -18.52539062 65.24291992 C-15.22539062 65.24291992 -11.92539063 65.24291992 -8.52539062 65.24291992 C-8.53538338 64.06567856 -8.53538338 64.06567856 -8.545578 62.86465454 C-8.60562429 55.47779187 -8.65133176 48.09104709 -8.68082714 40.70400429 C-8.69650068 36.90599809 -8.71776922 33.10819311 -8.75170898 29.31030273 C-8.78424304 25.64689525 -8.80223091 21.98368161 -8.81002235 18.32014084 C-8.81557666 16.92063723 -8.82642261 15.52114453 -8.8425808 14.12172318 C-8.86427336 12.16564481 -8.86561533 10.20937244 -8.8659668 8.25317383 C-8.87595955 6.58105331 -8.87595955 6.58105331 -8.88615417 4.87515259 C-8.7671022 4.00651581 -8.64805023 3.13787903 -8.52539062 2.24291992 C-5.13322712 -0.01852241 -3.97484164 -0.0056819 0 0 Z " fill="#DDDDDD" transform="translate(248.525390625,-0.242919921875)"/>
<path d="M0 0 C14.85 0 29.7 0 45 0 C45 1.98 45 3.96 45 6 C46.65 6 48.3 6 50 6 C50.02709444 8.08326131 50.04643873 10.16662441 50.0625 12.25 C50.07410156 13.41015625 50.08570313 14.5703125 50.09765625 15.765625 C50.01782092 18.40977128 49.78643778 20.49826091 49 23 C48.34 23 47.68 23 47 23 C47 21.68 47 20.36 47 19 C46.39671875 19.33773437 45.7934375 19.67546875 45.171875 20.0234375 C44.37265625 20.46945313 43.5734375 20.91546875 42.75 21.375 C41.96109375 21.81585938 41.1721875 22.25671875 40.359375 22.7109375 C38.90782682 23.5040019 37.44485548 24.27703949 35.96484375 25.015625 C33.86641108 26.06692725 31.83481917 27.18361498 29.8125 28.375 C29.11769531 28.77460938 28.42289062 29.17421875 27.70703125 29.5859375 C25.01074262 31.81947636 25.06987196 34.35401504 24.70336914 37.74243164 C23.81737186 50.62736354 23.65711146 63.52703524 23.4375 76.4375 C23.39421099 78.82617789 23.35059377 81.21484986 23.30664062 83.60351562 C23.20064442 89.4022809 23.09869493 95.2011061 23 101 C20.69 100.34 18.38 99.68 16 99 C16 164.67 16 230.34 16 298 C21.61 298 27.22 298 33 298 C33 298.33 33 298.66 33 299 C26.4 299 19.8 299 13 299 C13.00523682 296.46790359 13.01047363 293.93580719 13.01586914 291.32698059 C13.06134201 267.50300165 13.06274854 243.67931302 13.02334595 219.85532093 C13.00415124 207.60614884 12.99992063 195.35731102 13.03076172 183.1081543 C13.05760114 172.43333058 13.05652295 161.7589398 13.02174091 151.08413237 C13.00429859 145.43029171 13.00095819 139.77722679 13.03103638 134.12342262 C13.0588977 128.80347387 13.04947678 123.48490336 13.01126289 118.16503143 C13.00383476 116.21110265 13.01011441 114.25706708 13.03101921 112.30323601 C13.05751381 109.63648191 13.03494336 106.9744914 13 104.30793762 C13.01941178 103.53263933 13.03882357 102.75734103 13.05882359 101.95854884 C13.07487186 99.48351567 13.07487186 99.48351567 12 96 C10.04333773 94.3509156 8.12634034 93.21677851 5.83474445 92.0838663 C4 91 4 91 2.7722168 88.11035156 C2.66562744 87.0478418 2.55903809 85.98533203 2.44921875 84.890625 C2.30967773 83.67745605 2.17013672 82.46428711 2.02636719 81.21435547 C1.91454102 79.90611816 1.80271484 78.59788086 1.6875 77.25 C1.54490512 75.872254 1.39934001 74.49481254 1.25097656 73.11767578 C0.94679249 70.22437265 0.66670754 67.33013564 0.40576172 64.43261719 C0.07699725 60.78380313 -0.29167899 57.14062522 -0.6763916 53.49732971 C-2.34446224 37.65640363 -3.48976173 21.94446527 -3 6 C-2.01 6 -1.02 6 0 6 C0 4.02 0 2.04 0 0 Z " fill="#525153" transform="translate(321,101)"/>
<path d="M0 0 C1.32 0 2.64 0 4 0 C4 0.99 4 1.98 4 3 C4.83337891 3.37318359 4.83337891 3.37318359 5.68359375 3.75390625 C8.41074982 5.22095985 10.65663723 6.98886002 13.0625 8.9375 C13.91972656 9.62714844 14.77695313 10.31679687 15.66015625 11.02734375 C17.55052195 12.62105774 19.27199242 14.23921179 21 16 C22.32368014 17.19825077 23.65755116 18.38531474 25 19.5625 C26.0209375 20.46162109 26.0209375 20.46162109 27.0625 21.37890625 C29.11055556 23.15206587 29.11055556 23.15206587 32 25 C32 25.66 32 26.32 32 27 C32.928125 27.309375 33.85625 27.61875 34.8125 27.9375 C36.875 28.625 38.9375 29.3125 41 30 C40.51486435 31.285009 40.51486435 31.285009 40.01992798 32.59597778 C38.97941271 36.06871035 38.72469108 38.85064001 38.68115234 42.46435547 C38.66128265 43.72520966 38.64141296 44.98606384 38.62094116 46.28512573 C38.60906757 47.64581121 38.59740455 49.00649854 38.5859375 50.3671875 C38.56720966 51.77109902 38.54763505 53.17499947 38.5272522 54.57888794 C38.4760954 58.25799005 38.4363822 61.93712858 38.39910889 65.61639404 C38.35896553 69.37716562 38.30792053 73.13778783 38.2578125 76.8984375 C38.16124828 84.26552223 38.07678176 91.63267971 38 99 C35.23723823 98.47731534 32.6739124 97.89130413 30 97 C29.67 162.67 29.34 228.34 29 296 C28.67 296 28.34 296 28 296 C28 230 28 164 28 96 C21.51510467 94.02189124 21.51510467 94.02189124 14.9765625 92.23828125 C13 91 13 91 11.9609375 87.91796875 C11.76757812 86.68691406 11.57421875 85.45585937 11.375 84.1875 C10.62066639 79.14856461 10.62066639 79.14856461 8.50390625 74.60546875 C6.36883116 70.90652048 6.07367898 67.32408536 5.5625 63.125 C5.44616211 62.23167969 5.32982422 61.33835938 5.20996094 60.41796875 C4.9491571 58.4097118 4.69275411 56.40088013 4.43994141 54.39160156 C4.04226381 51.32582067 3.61627709 48.2653055 3.17662048 45.20529175 C2.78669565 42.48080508 2.40901674 39.75468651 2.03292847 37.02825928 C1.75721578 35.0517285 1.46970691 33.07685452 1.18188477 31.10205078 C0.18221651 23.67416632 -0.02844042 16.87000565 0.81738281 9.4140625 C0.87764648 8.61742188 0.93791016 7.82078125 1 7 C0.67 6.67 0.34 6.34 0 6 C-0.04080783 4.00041636 -0.04254356 1.99954746 0 0 Z " fill="#585858" transform="translate(233,104)"/>
<path d="M0 0 C0 64.68 0 129.36 0 196 C0.66 196.33 1.32 196.66 2 197 C-4.6 197 -11.2 197 -18 197 C-18 133.64 -18 70.28 -18 5 C-17.34 4.67 -16.68 4.34 -16 4 C-16 67.36 -16 130.72 -16 196 C-13.36 195.67 -10.72 195.34 -8 195 C-8 130.98 -8 66.96 -8 1 C-3 -1 -3 -1 0 0 Z " fill="#515151" transform="translate(280,203)"/>
<path d="M0 0 C1.65 0.33 3.3 0.66 5 1 C4.67 1.66 4.34 2.32 4 3 C3.34 3 2.68 3 2 3 C2.33 4.32 2.66 5.64 3 7 C3.66 7 4.32 7 5 7 C5.33 5.35 5.66 3.7 6 2 C9.875 2.875 9.875 2.875 11 4 C11.04063832 5.66617115 11.042721 7.33388095 11 9 C10.34 8.01 9.68 7.02 9 6 C8.67 7.65 8.34 9.3 8 11 C9.96614267 10.85342916 9.96614267 10.85342916 12 10 C13.1375213 7.91965706 13.1375213 7.91965706 13.75 5.4375 C13.99234375 4.61121094 14.2346875 3.78492188 14.484375 2.93359375 C14.65453125 2.29550781 14.8246875 1.65742188 15 1 C15.33 1 15.66 1 16 1 C16.95831259 8.07602529 17.05924338 14.90366066 16.87890625 22.03515625 C16.85529526 23.15442001 16.83168427 24.27368378 16.80735779 25.42686462 C16.73129984 28.97222442 16.64702915 32.51733309 16.5625 36.0625 C16.50922128 38.47850368 16.45648137 40.89451931 16.40429688 43.31054688 C16.27576384 49.20718376 16.14050267 55.10363683 16 61 C13.69 60.34 11.38 59.68 9 59 C9 124.67 9 190.34 9 258 C14.61 258 20.22 258 26 258 C26 258.33 26 258.66 26 259 C19.4 259 12.8 259 6 259 C6.00523682 256.46790359 6.01047363 253.93580719 6.01586914 251.32698059 C6.06134201 227.50300165 6.06274854 203.67931302 6.02334595 179.85532093 C6.00415124 167.60614884 5.99992063 155.35731102 6.03076172 143.1081543 C6.05760114 132.43333058 6.05652295 121.7589398 6.02174091 111.08413237 C6.00429859 105.43029171 6.00095819 99.77722679 6.03103638 94.12342262 C6.0588977 88.80347387 6.04947678 83.48490336 6.01126289 78.16503143 C6.00383476 76.21110265 6.01011441 74.25706708 6.03101921 72.30323601 C6.05751381 69.63648191 6.03494336 66.9744914 6 64.30793762 C6.01941178 63.53263933 6.03882357 62.75734103 6.05882359 61.95854884 C6.07487186 59.48351567 6.07487186 59.48351567 5 56 C3.04186566 54.35400131 1.12434944 53.2220824 -1.1680212 52.09261626 C-3 51 -3 51 -4.19946289 48.02075195 C-4.2896167 46.93753662 -4.37977051 45.85432129 -4.47265625 44.73828125 C-4.58673828 43.53623047 -4.70082031 42.33417969 -4.81835938 41.09570312 C-4.89892578 39.84724609 -4.97949219 38.59878906 -5.0625 37.3125 C-5.23555664 35.46881836 -5.23555664 35.46881836 -5.41210938 33.58789062 C-6.59075196 19.68880356 -6.59075196 19.68880356 -5 13 C-2.8614515 10.8614515 -1.86724686 10.57344937 1 10 C0.34 9.01 -0.32 8.02 -1 7 C-0.625 3.3125 -0.625 3.3125 0 0 Z " fill="#575658" transform="translate(328,141)"/>
<path d="M0 0 C4.95 1.98 4.95 1.98 10 4 C10.33 68.35 10.66 132.7 11 199 C8.03 199 5.06 199 2 199 C1.67 135.97 1.34 72.94 1 8 C0.67 8 0.34 8 0 8 C0 5.36 0 2.72 0 0 Z " fill="#080808" transform="translate(262,200)"/>
<path d="M0 0 C1.80078125 2.1171875 1.80078125 2.1171875 3.3125 4.875 C3.82425781 5.77992187 4.33601563 6.68484375 4.86328125 7.6171875 C6 10 6 10 6 12 C6.66 11.67 7.32 11.34 8 11 C9.99960012 10.960008 12.00047242 10.95653201 14 11 C12.02 11.99 12.02 11.99 10 13 C11.6879427 17.50118053 13.82203333 21.72297849 16 26 C16.7102875 27.39483995 17.4186694 28.79065216 18.125 30.1875 C18.45628906 30.84234375 18.78757813 31.4971875 19.12890625 32.171875 C20 34 20 34 21.0625 36.9375 C21.371875 37.618125 21.68125 38.29875 22 39 C22.99 39.33 23.98 39.66 25 40 C24.55269531 40.53367188 24.10539062 41.06734375 23.64453125 41.6171875 C19.83585087 46.31104093 16.84225225 50.89692523 14.265625 56.359375 C12.03759925 61.00797193 9.49477917 65.49053663 7 70 C6.34 70 5.68 70 5 70 C4.67 70.99 4.34 71.98 4 73 C-2.14615985 61.5742755 -7.98351658 50.04516639 -13.50708008 38.30444336 C-13.94947021 37.36608643 -14.39186035 36.42772949 -14.84765625 35.4609375 C-15.23961182 34.62353027 -15.63156738 33.78612305 -16.03540039 32.92333984 C-16.85208905 31.04288689 -16.85208905 31.04288689 -18 30 C-18.375 27.6875 -18.375 27.6875 -18 25 C-14.78808497 21.78808497 -11.13151593 19.8362293 -7 18 C-6.34 18 -5.68 18 -5 18 C-5.37253906 17.33613281 -5.74507812 16.67226562 -6.12890625 15.98828125 C-6.60199219 15.10527344 -7.07507812 14.22226563 -7.5625 13.3125 C-8.03816406 12.44238281 -8.51382813 11.57226562 -9.00390625 10.67578125 C-10.1566815 7.57911048 -10.03600427 6.10269996 -9 3 C-6.16989916 0.06882413 -4.01207812 -0.59234639 0 0 Z " fill="#343334" transform="translate(48,114)"/>
<path d="M0 0 C0 65.67 0 131.34 0 199 C-2.31 199 -4.62 199 -7 199 C-7.29404826 173.93988704 -7.54790472 148.87964637 -7.75383663 123.81864738 C-7.85039175 112.18252733 -7.96012687 100.54680968 -8.10083008 88.91113281 C-8.22342504 78.77018656 -8.32135202 68.62935444 -8.38958651 58.48789132 C-8.42658504 53.11726021 -8.47598142 47.74738555 -8.55491447 42.37719345 C-8.62881713 37.32273694 -8.66973685 32.269087 -8.68535233 27.21412468 C-8.69689992 25.35886085 -8.72050603 23.50362693 -8.75706291 21.64868736 C-9.02383745 7.60468767 -9.02383745 7.60468767 -6.42895699 3.53766251 C-2.42411722 0 -2.42411722 0 0 0 Z " fill="#505050" transform="translate(352,199)"/>
<path d="M0 0 C0.65735138 -0.00095673 1.31470276 -0.00191345 1.99197388 -0.00289917 C3.3857635 -0.00358095 4.77955628 -0.0017268 6.17333984 0.00244141 C8.30443503 0.00777278 10.43531781 0.00250526 12.56640625 -0.00390625 C13.9192713 -0.00324513 15.27213621 -0.00196328 16.625 0 C18.47714111 0.00169189 18.47714111 0.00169189 20.36669922 0.00341797 C23.4453125 0.1328125 23.4453125 0.1328125 26.4453125 1.1328125 C26.4453125 11.0328125 26.4453125 20.9328125 26.4453125 31.1328125 C27.4353125 31.4628125 28.4253125 31.7928125 29.4453125 32.1328125 C15.2553125 32.1328125 1.0653125 32.1328125 -13.5546875 32.1328125 C-12.5646875 31.8028125 -11.5746875 31.4728125 -10.5546875 31.1328125 C-10.5546875 21.2328125 -10.5546875 11.3328125 -10.5546875 1.1328125 C-9.8946875 1.1328125 -9.2346875 1.1328125 -8.5546875 1.1328125 C-8.5546875 11.0328125 -8.5546875 20.9328125 -8.5546875 31.1328125 C2.0053125 30.8028125 12.5653125 30.4728125 23.4453125 30.1328125 C13.2153125 30.1328125 2.9853125 30.1328125 -7.5546875 30.1328125 C-7.5753125 25.3684375 -7.5959375 20.6040625 -7.6171875 15.6953125 C-7.6262915 14.1904126 -7.63539551 12.6855127 -7.64477539 11.13500977 C-7.64727295 9.95994873 -7.64977051 8.7848877 -7.65234375 7.57421875 C-7.65758057 6.36451416 -7.66281738 5.15480957 -7.66821289 3.90844727 C-7.45543982 -1.29373996 -4.56926462 0.00418157 0 0 Z " fill="#E5E4E5" transform="translate(335.5546875,68.8671875)"/>
<path d="M0 0 C2.475 0.99 2.475 0.99 5 2 C5 67.01 5 132.02 5 199 C5.99 199.33 6.98 199.66 8 200 C5.69 200 3.38 200 1 200 C0.67 134 0.34 68 0 0 Z " fill="#0A0A0A" transform="translate(336,199)"/>
<path d="M0 0 C1.41377341 2.63904371 2.37240135 5.07120629 3 8 C3.66 8 4.32 8 5 8 C7.62788203 10.30935087 8.87994369 11.63983107 10 15 C10.66 15.33 11.32 15.66 12 16 C12.40729228 18.32156597 12.74438677 20.6568787 13 23 C13.99 23.33 14.98 23.66 16 24 C16.88671875 25.72265625 16.88671875 25.72265625 17.6875 28.0625 C20.2822158 35.01833428 23.68750354 41.52231121 27.05566406 48.12597656 C28.72934363 51.44737377 30.31395508 54.81311731 31.89453125 58.1796875 C33.01658908 60.31673811 33.01658908 60.31673811 36 62 C36 62.66 36 63.32 36 64 C36.99 64.33 37.98 64.66 39 65 C43 71.05714286 43 71.05714286 43 76 C43.66 76 44.32 76 45 76 C48.06242216 80.84060277 49.53411505 84.29290936 50 90 C46.88847976 91.55576012 45.45766656 91.73142946 42 91 C38.86838092 87.09868178 36.79393273 82.60541094 34.5859375 78.140625 C33.41464524 75.82112013 32.21347596 73.54589794 30.95703125 71.2734375 C30.60576172 70.6340625 30.25449219 69.9946875 29.89257812 69.3359375 C29.16649009 68.01768726 28.43461216 66.70261113 27.69726562 65.390625 C25.79870368 61.91051516 25 60.05122103 25 56 C24.01 56 23.02 56 22 56 C21.78085938 55.42894531 21.56171875 54.85789063 21.3359375 54.26953125 C19.33054689 49.1419268 17.19511272 44.08442155 14.9375 39.0625 C14.45152344 37.98097656 13.96554688 36.89945313 13.46484375 35.78515625 C12.14599597 33.27758701 11.04058772 31.88447718 9 30 C4.22220617 21.59767292 0.02509976 11.4667314 -2 2 C-1.34 2 -0.68 2 0 2 C0 1.34 0 0.68 0 0 Z " fill="#69696B" transform="translate(103,180)"/>
<path d="M0 0 C0 3.3 0 6.6 0 10 C-1.93694678 10.81381795 -3.87457711 11.62600916 -5.8125 12.4375 C-7.43091797 13.11619141 -7.43091797 13.11619141 -9.08203125 13.80859375 C-11.0295126 14.60375013 -13.00438943 15.33479648 -15 16 C-15.33 81.67 -15.66 147.34 -16 215 C-16.66 215 -17.32 215 -18 215 C-18 149.66 -18 84.32 -18 17 C-20.64 17.66 -23.28 18.32 -26 19 C-26 15.37 -26 11.74 -26 8 C-24.68 7.67 -23.36 7.34 -22 7 C-21.67 6.34 -21.34 5.68 -21 5 C-21.66 4.67 -22.32 4.34 -23 4 C-21.2078489 4 -19.41467404 4.03080663 -17.625 4.125 C-14.65285686 3.98346937 -12.70354203 3.21659391 -10 2 C-6.10152452 0.24568604 -4.5398638 0 0 0 Z " fill="#292929" transform="translate(298,184)"/>
<path d="M0 0 C0.99 0.33 1.98 0.66 3 1 C3.33 65.35 3.66 129.7 4 196 C2.68 196 1.36 196 0 196 C0 131.32 0 66.64 0 0 Z " fill="#2D2D2D" transform="translate(269,203)"/>
<path d="M0 0 C0 5.61 0 11.22 0 17 C1.32 17.33 2.64 17.66 4 18 C4 20.64 4 23.28 4 26 C3.36191406 26.17015625 2.72382813 26.3403125 2.06640625 26.515625 C1.24011719 26.75796875 0.41382813 27.0003125 -0.4375 27.25 C-1.26121094 27.48203125 -2.08492188 27.7140625 -2.93359375 27.953125 C-5.19995468 28.80770679 -5.19995468 28.80770679 -5.78515625 31.109375 C-5.85605469 31.73328125 -5.92695313 32.3571875 -6 33 C-7.32 32.67 -8.64 32.34 -10 32 C-9.34 32 -8.68 32 -8 32 C-8 31.34 -8 30.68 -8 30 C-9.98 29.34 -11.96 28.68 -14 28 C-13.67 27.34 -13.34 26.68 -13 26 C-12.34 26 -11.68 26 -11 26 C-11 24.02 -11 22.04 -11 20 C-11.59167969 19.87882812 -12.18335938 19.75765625 -12.79296875 19.6328125 C-17.03803585 18.73255357 -21.02439661 17.79543379 -25 16 C-25 13.03 -25 10.06 -25 7 C-22.57953933 6.0228878 -20.15708614 5.05159197 -17.73046875 4.08984375 C-16.08075845 3.43137569 -14.43582199 2.76049992 -12.80078125 2.06640625 C-12.14464844 1.79699219 -11.48851562 1.52757813 -10.8125 1.25 C-10.24144531 1.00765625 -9.67039062 0.7653125 -9.08203125 0.515625 C-7 0 -7 0 0 0 Z " fill="#CFCFD0" transform="translate(282,76)"/>
<path d="M0 0 C3.78252047 0.43743434 6.18210705 1.5456621 9.25 3.75 C13.67458448 6.82861845 18.24890783 9.46159142 23 12 C23.38999191 19.59762024 22.60758587 25.84466021 20 33 C18.68 32.67 17.36 32.34 16 32 C16 30.02 16 28.04 16 26 C16.66 26.33 17.32 26.66 18 27 C17.67 26.01 17.34 25.02 17 24 C16.01 23.67 15.02 23.34 14 23 C14 24.65 14 26.3 14 28 C12.68 28 11.36 28 10 28 C10 26.68 10 25.36 10 24 C10.66 23.67 11.32 23.34 12 23 C11.01 22.67 10.02 22.34 9 22 C7.9910966 26.23646767 7.9910966 26.23646767 8.9375 30.375 C9.288125 30.91125 9.63875 31.4475 10 32 C9.05125 32.2475 8.1025 32.495 7.125 32.75 C3.91306809 33.6857077 3.91306809 33.6857077 2.625 36.125 C2.315625 37.053125 2.315625 37.053125 2 38 C0.27062481 34.54124962 0.31458176 30.62638267 -0.0625 26.8125 C-0.19555542 25.47384888 -0.19555542 25.47384888 -0.33129883 24.1081543 C-1.04759147 16.41985499 -1.48448841 8.71801305 -1 1 C-0.67 0.67 -0.34 0.34 0 0 Z " fill="#4A4A4C" transform="translate(320,120)"/>
<path d="M0 0 C0.33 0 0.66 0 1 0 C1 12.87 1 25.74 1 39 C-4 38 -4 38 -7 37 C-7.33 102.67 -7.66 168.34 -8 236 C-8.33 236 -8.66 236 -9 236 C-9 170 -9 104 -9 36 C-13.95 34.515 -13.95 34.515 -19 33 C-20.67798788 32.36236461 -22.35293725 31.71372719 -24 31 C-24.33 28.03 -24.66 25.06 -25 22 C-13.31873282 22.72888038 -13.31873282 22.72888038 -9.0625 24.0625 C-5.7369637 25.24392856 -5.7369637 25.24392856 -1 25 C-0.67 16.75 -0.34 8.5 0 0 Z " fill="#8F8F90" transform="translate(270,164)"/>
<path d="M0 0 C0.99 0.33 1.98 0.66 3 1 C3.38063221 3.3260857 3.71269945 5.66055264 4 8 C3.67 8.33 3.34 8.66 3 9 C2.92820036 10.51928038 2.91607993 12.04167482 2.9375 13.5625 C2.94652344 14.38878906 2.95554688 15.21507812 2.96484375 16.06640625 C2.97644531 16.70449219 2.98804688 17.34257812 3 18 C-11.116314 17.48311477 -25.00646655 15.89395544 -39 14 C-39 11 -39 11 -37.8125 8.8125 C-36 7 -36 7 -33.3125 6.75 C-32.549375 6.8325 -31.78625 6.915 -31 7 C-31 6.01 -31 5.02 -31 4 C-27.66642262 4.1405562 -24.33320611 4.28841802 -21 4.4375 C-20.06542969 4.47681641 -19.13085938 4.51613281 -18.16796875 4.55664062 C-12.72811877 4.80390653 -7.39305423 5.24319168 -2 6 C-1.34 4.02 -0.68 2.04 0 0 Z " fill="#444446" transform="translate(195,300)"/>
<path d="M0 0 C1.66015625 1.7578125 1.66015625 1.7578125 3.0625 4.125 C3.5678125 4.94484375 4.073125 5.7646875 4.59375 6.609375 C5.0578125 7.39828125 5.521875 8.1871875 6 9 C8.68467511 13.39310473 10.58900669 15.44626703 15 18 C16.73523928 20.64417414 17 21.78465943 17 25 C15.02 25.33 13.04 25.66 11 26 C11.66 27.65 12.32 29.3 13 31 C8.78087253 30.5205537 6.20336822 29.83374881 3 27 C3.268125 26.443125 3.53625 25.88625 3.8125 25.3125 C4.26557131 22.79428393 4.26557131 22.79428393 2.1875 20.4375 C-0.97565183 17.52313539 -4.61776043 16.8223339 -8.6875 15.73828125 C-11.69971576 14.77661101 -13.22913052 13.61780706 -15 11 C-15.75 8.25 -15.75 8.25 -16 6 C-5.15329801 -0.69943358 -5.15329801 -0.69943358 0 0 Z " fill="#AFAEB1" transform="translate(187,200)"/>
<path d="M0 0 C0.66 0.33 1.32 0.66 2 1 C1.6757435 1.82556459 1.35148701 2.65112919 1.01740456 3.50171089 C-0.11603665 7.39898557 -0.28918433 10.95490519 -0.2784729 14.97262573 C-0.2842653 15.75771078 -0.2900577 16.54279583 -0.29602563 17.35167134 C-0.31298075 19.97260813 -0.31589825 22.59336834 -0.31884766 25.21435547 C-0.32814893 27.09699432 -0.3383179 28.97962905 -0.34928894 30.86225891 C-0.3765805 35.96710398 -0.3917359 41.07192146 -0.40471697 46.17682028 C-0.42035115 51.514 -0.44714048 56.85112343 -0.4727478 62.18826294 C-0.51953045 72.29221741 -0.55627708 82.39618249 -0.58942068 92.5001899 C-0.62764566 104.00437714 -0.67705486 115.50850783 -0.72740483 127.01264739 C-0.83071706 150.67505634 -0.91997981 174.33750163 -1 198 C-1.66 198 -2.32 198 -3 198 C-3 132.99 -3 67.98 -3 1 C-2.01 1.33 -1.02 1.66 0 2 C0 1.34 0 0.68 0 0 Z " fill="#212121" transform="translate(344,200)"/>
<path d="M0 0 C3.40843742 2.88406243 4.86591384 4.3708265 5.8125 8.8125 C5.9053125 10.3903125 5.9053125 10.3903125 6 12 C6.99 12 7.98 12 9 12 C9.8468099 13.6936198 10.69355951 15.38726976 11.54003906 17.08105469 C12.2675148 18.53535137 12.99604264 19.98912221 13.72558594 21.44238281 C15.41726624 24.81532849 17.0924177 28.19236263 18.7265625 31.59375 C19.22929687 32.6353125 19.73203125 33.676875 20.25 34.75 C20.68828125 35.67296875 21.1265625 36.5959375 21.578125 37.546875 C22.89648561 40.07450263 22.89648561 40.07450263 25.0078125 41.9609375 C27.40940357 44.41903659 28.36788267 46.68759927 29.625 49.875 C30.02976563 50.88304687 30.43453125 51.89109375 30.8515625 52.9296875 C31.97464523 55.9322148 33.00820888 58.95183465 34 62 C34.66 62 35.32 62 36 62 C36.99 64.31 37.98 66.62 39 69 C36.525 69.495 36.525 69.495 34 70 C31.24387736 66.86372251 29.45341958 63.95283928 27.91015625 60.08203125 C26.34102291 56.49255456 24.3693376 53.11798186 22.4765625 49.69140625 C19.00015211 43.35477462 16.0138146 36.85682553 13.1484375 30.22265625 C12.20187516 27.85538191 12.20187516 27.85538191 10 27 C9.03515625 24.890625 9.03515625 24.890625 8.0625 22.25 C6.66013202 18.57337984 5.08960091 15.34336145 3 12 C3 11.34 3 10.68 3 10 C2.34 10 1.68 10 1 10 C-0.85064319 6.87703962 -1.29356154 4.62059232 -1 1 C-0.67 0.67 -0.34 0.34 0 0 Z " fill="#858587" transform="translate(113,200)"/>
<path d="M0 0 C0 5.61 0 11.22 0 17 C-5.55993597 16.305008 -9.05955281 15.85192329 -14 13.9375 C-14.94875 13.57527344 -15.8975 13.21304688 -16.875 12.83984375 C-17.57625 12.56269531 -18.2775 12.28554687 -19 12 C-19 9.69 -19 7.38 -19 5 C-16.58570231 4.15919981 -14.16896007 3.32718598 -11.75 2.5 C-10.72712891 2.14228516 -10.72712891 2.14228516 -9.68359375 1.77734375 C-6.23586997 0.60578713 -3.68297096 0 0 0 Z " fill="#555556" transform="translate(278,79)"/>
<path d="M0 0 C1.485 0.99 1.485 0.99 3 2 C3.29437452 4.68707295 3.39119081 7.143936 3.36076355 9.83328247 C3.36332682 10.65170179 3.3658901 11.47012111 3.36853105 12.31334102 C3.37349471 15.07123281 3.35693379 17.82858396 3.34057617 20.58642578 C3.33973046 22.55713895 3.34020395 24.52785306 3.34190369 26.49856567 C3.34276723 31.86199469 3.32508343 37.22522393 3.30418181 42.58860636 C3.28547476 48.1886892 3.2836693 53.78877623 3.28010559 59.3888855 C3.27076753 69.99948704 3.24612996 80.60999627 3.21605712 91.22055709 C3.18256784 103.29774886 3.16604089 115.37494495 3.15097082 127.45217156 C3.11958191 152.30149897 3.06678726 177.15074432 3 202 C2.67 202 2.34 202 2 202 C1.99576806 201.00147475 1.99153612 200.0029495 1.98717594 198.97416592 C1.88398618 174.67880261 1.77523816 150.38346904 1.66066074 126.0881567 C1.60538072 114.33913599 1.5519073 102.59011224 1.50268555 90.84106445 C1.45977975 80.60070629 1.41348566 70.36037002 1.36312145 60.12004572 C1.33657204 54.69780933 1.31172031 49.27557713 1.29092598 43.85331535 C1.27129692 38.74886243 1.24713457 33.64445096 1.21950912 28.54003525 C1.21017184 26.66757907 1.20248473 24.79511381 1.19658089 22.92264366 C1.18826302 20.36329582 1.17397089 17.80404707 1.15821838 15.24473572 C1.15724028 14.50639069 1.15626217 13.76804566 1.15525442 13.00732654 C1.1201795 8.56597683 0.71756649 4.36987144 0 0 Z " fill="#3A3A3A" transform="translate(334,197)"/>
<path d="M0 0 C1.98 0.99 1.98 0.99 4 2 C3.34 2 2.68 2 2 2 C2.33 2.66 2.66 3.32 3 4 C3.09556819 6.54428323 3.13014958 9.06104696 3.12025452 11.60549927 C3.12153615 12.79637628 3.12153615 12.79637628 3.12284368 14.01131141 C3.12449796 16.68611168 3.11897796 19.36084999 3.11352539 22.03564453 C3.11324348 23.94724526 3.11340133 25.85884611 3.1139679 27.77044678 C3.11425573 32.97265119 3.10836133 38.17483272 3.10139394 43.3770318 C3.095158 48.80896038 3.09455641 54.24088944 3.09336853 59.67282104 C3.09025593 69.96463962 3.08204349 80.25644761 3.07201904 90.54826152 C3.06085571 102.2627148 3.0553469 113.97716857 3.05032361 125.69162583 C3.03986082 149.79442309 3.02226274 173.89721096 3 198 C2.67 198 2.34 198 2 198 C1.67 135.3 1.34 72.6 1 8 C0.67 8 0.34 8 0 8 C0 5.36 0 2.72 0 0 Z " fill="#2C2C2C" transform="translate(262,200)"/>
<path d="M0 0 C2.13671875 0.03515625 2.13671875 0.03515625 4.3125 0.9375 C7.20575778 4.66670844 9.28753518 8.68507388 11.3125 12.9375 C9.28675205 14.46316791 7.25947859 15.97492688 5.1875 17.4375 C3.06524464 18.97991242 3.06524464 18.97991242 1.3125 21.9375 C0.12963474 20.07267671 -1.03318657 18.19513024 -2.1875 16.3125 C-2.8371875 15.26835938 -3.486875 14.22421875 -4.15625 13.1484375 C-5.80553826 9.689981 -6.15286508 7.71330304 -5.6875 3.9375 C-3.6875 0.9375 -3.6875 0.9375 0 0 Z " fill="#BDBDBC" transform="translate(35.6875,99.0625)"/>
<path d="M0 0 C3.2330622 0.07683694 4.11691882 0.60884605 6.39453125 2.98046875 C11.3125 9.92171589 11.3125 9.92171589 11.3125 12.8125 C10.52875 13.06 9.745 13.3075 8.9375 13.5625 C5.9113084 15.00354362 5.50548128 15.78416289 4.3125 18.8125 C3.6525 19.8025 2.9925 20.7925 2.3125 21.8125 C0.96497843 19.75813118 -0.36522199 17.69552655 -1.6875 15.625 C-2.0690625 15.04685547 -2.450625 14.46871094 -2.84375 13.87304688 C-5.04109365 10.40045914 -6.37197206 7.94072213 -5.6875 3.8125 C-3.6875 0.8125 -3.6875 0.8125 0 0 Z " fill="#BCBDBB" transform="translate(103.6875,106.1875)"/>
<path d="M0 0 C3.60109753 -0.86337789 6.43128887 -1.0867888 10 0 C14.24614475 4.65990646 17.81584491 10.00577462 18.2109375 16.4296875 C18.14132813 17.27789062 18.07171875 18.12609375 18 19 C15.125 19.1875 15.125 19.1875 12 19 C11.34 18.01 10.68 17.02 10 16 C11.32 16 12.64 16 14 16 C14 15.01 14 14.02 14 13 C12.96875 13.144375 11.9375 13.28875 10.875 13.4375 C6.75302651 12.9721159 6.24187638 12.76499697 3.625 9.875 C1.18549024 6.68936359 0.198542 4.07011103 0 0 Z " fill="#B2B2B4" transform="translate(173,218)"/>
<path d="M0 0 C4.04200677 0.30819741 8.08353225 0.62231916 12.125 0.9375 C13.26710937 1.02451172 14.40921875 1.11152344 15.5859375 1.20117188 C16.69453125 1.28818359 17.803125 1.37519531 18.9453125 1.46484375 C19.96125488 1.543396 20.97719727 1.62194824 22.02392578 1.70288086 C25.04696767 2.00468906 28.00966274 2.46782134 31 3 C30.67 4.65 30.34 6.3 30 8 C25.97893351 7.86019545 21.9582139 7.71207681 17.9375 7.5625 C16.80376953 7.52318359 15.67003906 7.48386719 14.50195312 7.44335938 C8.93261605 7.23227663 3.49489474 6.94904568 -2 6 C-1.34 4.02 -0.68 2.04 0 0 Z " fill="#A0A0A2" transform="translate(163,298)"/>
<path d="M0 0 C0.99 0.33 1.98 0.66 3 1 C3.38063221 3.3260857 3.71269945 5.66055264 4 8 C3.67 8.33 3.34 8.66 3 9 C2.92820036 10.51928038 2.91607993 12.04167482 2.9375 13.5625 C2.94652344 14.38878906 2.95554688 15.21507812 2.96484375 16.06640625 C2.97644531 16.70449219 2.98804688 17.34257812 3 18 C0.14509764 17.88519969 -2.7084588 17.75847036 -5.5625 17.625 C-6.36236328 17.5940625 -7.16222656 17.563125 -7.98632812 17.53125 C-12.96423083 17.28743436 -17.26444649 16.56368612 -22 15 C-22 14.01 -22 13.02 -22 12 C-22.99 11.67 -23.98 11.34 -25 11 C-16.60995285 10.86394518 -8.35619957 11.24524649 0 12 C-0.33644531 11.21882813 -0.67289063 10.43765625 -1.01953125 9.6328125 C-2.09610197 6.74194132 -2.03438886 5.82106053 -1 3 C-0.67 2.01 -0.34 1.02 0 0 Z " fill="#060508" transform="translate(195,300)"/>
<path d="M0 0 C2.64 4.62 5.28 9.24 8 14 C3.43521157 15.14119711 0.74012591 14.35234613 -3.5625 12.9375 C-4.23474609 12.74478516 -4.90699219 12.55207031 -5.59960938 12.35351562 C-9.39540665 11.1209181 -10.84176046 10.25639209 -12.96484375 6.81640625 C-13.30644531 5.88699219 -13.64804688 4.95757812 -14 4 C-12.42032193 3.32471777 -10.83608097 2.66010306 -9.25 2 C-8.36828125 1.62875 -7.4865625 1.2575 -6.578125 0.875 C-4 0 -4 0 0 0 Z " fill="#49484B" transform="translate(186,203)"/>
<path d="M0 0 C3.40843742 2.88406243 4.86591384 4.3708265 5.8125 8.8125 C5.9053125 10.3903125 5.9053125 10.3903125 6 12 C6.99 12 7.98 12 9 12 C10.17154293 14.28929053 11.33738074 16.58118362 12.5 18.875 C12.83386719 19.52597656 13.16773437 20.17695313 13.51171875 20.84765625 C16 25.7734375 16 25.7734375 16 28 C15.34 28 14.68 28 14 28 C13.67 28.66 13.34 29.32 13 30 C10.29410419 27.64771558 9.22089702 25.47229266 8 22.125 C6.6215648 18.48805174 5.06579073 15.30526517 3 12 C3 11.34 3 10.68 3 10 C2.34 10 1.68 10 1 10 C-0.85064319 6.87703962 -1.29356154 4.62059232 -1 1 C-0.67 0.67 -0.34 0.34 0 0 Z " fill="#7F7E81" transform="translate(113,200)"/>
<path d="M0 0 C0.86646667 1.43011973 1.71781829 2.86940619 2.5625 4.3125 C3.03816406 5.11300781 3.51382813 5.91351563 4.00390625 6.73828125 C5 9 5 9 4 12 C3.67 11.67 3.34 11.34 3 11 C1.7625 11.04125 0.525 11.0825 -0.75 11.125 C-4.63229535 11.19482546 -6.84012902 10.36990324 -10 8 C-9.64505955 5.37344067 -9.27538036 3.42031739 -7.8125 1.1875 C-5.20638339 -0.51995571 -3.0400645 -0.20267097 0 0 Z " fill="#4B4B4B" transform="translate(117,121)"/>
<path d="M0 0 C2.57161458 0.03255208 5.14322917 0.06510417 7.71484375 0.09765625 C7.71484375 3.72765625 7.71484375 7.35765625 7.71484375 11.09765625 C0 11.1953125 0 11.1953125 -2.28515625 11.09765625 C-3.28515625 10.09765625 -3.28515625 10.09765625 -3.41796875 8.06640625 C-3.41539062 7.25171875 -3.4128125 6.43703125 -3.41015625 5.59765625 C-3.41273438 4.78296875 -3.4153125 3.96828125 -3.41796875 3.12890625 C-3.22757857 0.21705639 -2.92223949 0.12488203 0 0 Z " fill="#9A9171" transform="translate(253.28515625,24.90234375)"/>
<path d="M0 0 C0.99 0 1.98 0 3 0 C3.268125 0.886875 3.53625 1.77375 3.8125 2.6875 C4.85836755 5.99625382 4.85836755 5.99625382 6.6875 8.625 C8 11 8 11 7.9375 13.1875 C6.72120821 15.53899746 5.35699115 15.92346682 3 17 C1.96122737 15.4493684 0.94457445 13.88390319 -0.0625 12.3125 C-0.63097656 11.44238281 -1.19945312 10.57226562 -1.78515625 9.67578125 C-3.21160478 6.53392515 -3.13403188 5.21582954 -2 2 C-1.34 1.34 -0.68 0.68 0 0 Z " fill="#090909" transform="translate(41,115)"/>
<path d="M0 0 C2.33944736 0.28730055 4.6739143 0.61936779 7 1 C6.67 1.99 6.34 2.98 6 4 C5.01 3.67 4.02 3.34 3 3 C3 3.99 3 4.98 3 6 C3.928125 6 4.85625 6 5.8125 6 C7.875 6 9.9375 6 12 6 C12 6.66 12 7.32 12 8 C10.02 8.33 8.04 8.66 6 9 C9.465 10.485 9.465 10.485 13 12 C13 12.66 13 13.32 13 14 C9.9590025 14.44502402 7.79067334 14.44836964 5.078125 12.91015625 C1.5432121 10.15672203 0.16532218 8.6302908 -1 4.1875 C-1 1 -1 1 0 0 Z " fill="#B8B7BA" transform="translate(156,217)"/>
<path d="M0 0 C3.3 0 6.6 0 10 0 C10 3.63 10 7.26 10 11 C9.34 11 8.68 11 8 11 C7.67 9.02 7.34 7.04 7 5 C6.67 6.65 6.34 8.3 6 10 C4.02 10 2.04 10 0 10 C0 6.7 0 3.4 0 0 Z " fill="#121110" transform="translate(283,25)"/>
<path d="M0 0 C1.32 0 2.64 0 4 0 C4 7.59 4 15.18 4 23 C2.68 23.33 1.36 23.66 0 24 C0 19.05 0 14.1 0 9 C0.66 9 1.32 9 2 9 C2.33 8.34 2.66 7.68 3 7 C2.01 7 1.02 7 0 7 C0 4.69 0 2.38 0 0 Z " fill="#BABABA" transform="translate(355,73)"/>
<path d="M0 0 C1.73046875 1.828125 1.73046875 1.828125 3.1875 4.25 C3.67605469 5.03890625 4.16460937 5.8278125 4.66796875 6.640625 C8 12.54252199 8 12.54252199 8 16 C4.21429586 14.73809862 3.78168429 13.45144185 1.8125 10.0625 C1.28269531 9.16660156 0.75289062 8.27070313 0.20703125 7.34765625 C-1 5 -1 5 -1 3 C-1.83144531 3.27714844 -2.66289062 3.55429688 -3.51953125 3.83984375 C-7.6796875 5.2265625 -11.83984375 6.61328125 -16 8 C-15.00557195 5.4687286 -14.33650744 4.2142012 -12.01171875 2.734375 C-11.24472656 2.40953125 -10.47773438 2.0846875 -9.6875 1.75 C-8.92824219 1.41484375 -8.16898438 1.0796875 -7.38671875 0.734375 C-4.67587628 -0.09973037 -2.81320522 -0.43842159 0 0 Z " fill="#B5B5B7" transform="translate(187,200)"/>
<path d="M0 0 C2.97 0.495 2.97 0.495 6 1 C5.95875 2.0725 5.9175 3.145 5.875 4.25 C5.9885825 7.65747485 6.21273364 9.20739631 8 12 C7.05125 12.2475 6.1025 12.495 5.125 12.75 C1.91306809 13.6857077 1.91306809 13.6857077 0.625 16.125 C0.41875 16.74375 0.2125 17.3625 0 18 C-1.60670684 14.78658631 -0.82510855 11.37041032 -0.5625 7.875 C-0.51029297 7.12089844 -0.45808594 6.36679688 -0.40429688 5.58984375 C-0.27454996 3.7262063 -0.13792512 1.86305004 0 0 Z " fill="#515053" transform="translate(322,140)"/>
<path d="M0 0 C0.66 0 1.32 0 2 0 C2.67154933 1.28913487 3.33708859 2.58140204 4 3.875 C4.37125 4.59429687 4.7425 5.31359375 5.125 6.0546875 C6 8 6 8 6 10 C6.66 10 7.32 10 8 10 C8.99 12.31 9.98 14.62 11 17 C9.35 17.33 7.7 17.66 6 18 C2.14586637 13.88892413 1.07264373 10.3419782 0 5 C-0.20238281 4.27941406 -0.40476563 3.55882812 -0.61328125 2.81640625 C-0.80470703 1.91728516 -0.80470703 1.91728516 -1 1 C-0.67 0.67 -0.34 0.34 0 0 Z " fill="#8D8D8F" transform="translate(141,252)"/>
<path d="M0 0 C-0.33 6.27 -0.66 12.54 -1 19 C-1.33 19 -1.66 19 -2 19 C-2 13.39 -2 7.78 -2 2 C-3.80597656 2.54140625 -3.80597656 2.54140625 -5.6484375 3.09375 C-7.22391596 3.5626424 -8.79943912 4.03138463 -10.375 4.5 C-11.1690625 4.73847656 -11.963125 4.97695312 -12.78125 5.22265625 C-13.54179687 5.44824219 -14.30234375 5.67382812 -15.0859375 5.90625 C-16.1385376 6.22045898 -16.1385376 6.22045898 -17.21240234 6.54101562 C-19 7 -19 7 -21 7 C-21 8.98 -21 10.96 -21 13 C-21.33 13 -21.66 13 -22 13 C-22.33 10.69 -22.66 8.38 -23 6 C-20.58222111 5.02397041 -18.1624544 4.05381858 -15.73828125 3.09375 C-14.06176919 2.42410182 -12.39083761 1.73997888 -10.73046875 1.03125 C-6.32402153 -0.78862113 -4.90098587 -0.98019717 0 0 Z " fill="#CBCBCE" transform="translate(280,77)"/>
<path d="M0 0 C2.6015625 0.0234375 2.6015625 0.0234375 5.625 0.375 C6.62789063 0.48585937 7.63078125 0.59671875 8.6640625 0.7109375 C9.82035156 0.85402344 9.82035156 0.85402344 11 1 C11 2.32 11 3.64 11 5 C8.03 5 5.06 5 2 5 C1.87625 6.464375 1.7525 7.92875 1.625 9.4375 C1.4140625 11.93359375 1.4140625 11.93359375 1 14 C0.01 14.495 0.01 14.495 -1 15 C-3.26335337 11.60496995 -3.18567637 10.82992437 -2.75 6.9375 C-2.66234375 6.05964844 -2.5746875 5.18179688 -2.484375 4.27734375 C-2 2 -2 2 0 0 Z " fill="#5A5A5C" transform="translate(325,152)"/>
<path d="M0 0 C2.25 -0.3125 2.25 -0.3125 5 0 C8.77526061 3.55953143 9.84855419 7.10635529 11 12 C9.02 12.99 9.02 12.99 7 14 C3.42242307 9.80559946 0 5.69511947 0 0 Z " fill="#BEBEBC" transform="translate(32,103)"/>
<path d="M0 0 C1.27875 -0.061875 2.5575 -0.12375 3.875 -0.1875 C4.95394531 -0.23970703 4.95394531 -0.23970703 6.0546875 -0.29296875 C6.69664062 -0.19628906 7.33859375 -0.09960938 8 0 C10 3 10 3 10 6 C7.91731407 6.08126087 5.83371342 6.13930839 3.75 6.1875 C2.00976562 6.23970703 2.00976562 6.23970703 0.234375 6.29296875 C-3.22268407 5.97982934 -4.51565563 5.34290892 -7 3 C-5.5459375 2.814375 -5.5459375 2.814375 -4.0625 2.625 C-2.5465625 2.315625 -2.5465625 2.315625 -1 2 C-0.67 1.34 -0.34 0.68 0 0 Z " fill="#444446" transform="translate(185,306)"/>
<path d="M0 0 C2.97 0 5.94 0 9 0 C9 0.33 9 0.66 9 1 C6.36 1 3.72 1 1 1 C1.1188491 5.99892294 1.24313381 10.99767124 1.37231445 15.99633789 C1.4154522 17.69454335 1.45714084 19.39278629 1.49731445 21.09106445 C1.55553344 23.54129298 1.61907503 25.99133647 1.68359375 28.44140625 C1.70030624 29.19273331 1.71701874 29.94406036 1.73423767 30.71815491 C1.78391874 38.59443712 1.78391874 38.59443712 4 46 C3.71887936 48.00800456 3.38932033 50.01014051 3 52 C2.34 51.67 1.68 51.34 1 51 C-0.37265184 44.52995446 -0.13787773 37.64135664 -0.09765625 31.0546875 C-0.0962413 30.15879913 -0.09482635 29.26291077 -0.09336853 28.33987427 C-0.08783441 25.51821347 -0.07529489 22.69663624 -0.0625 19.875 C-0.05747646 17.94531366 -0.05291506 16.01562605 -0.04882812 14.0859375 C-0.03788669 9.3905935 -0.02066878 4.69531085 0 0 Z " fill="#3F3F3F" transform="translate(231,66)"/>
<path d="M0 0 C10.87061958 1.60420794 10.87061958 1.60420794 15 6 C16.26422764 9.79268293 15.23577236 11.29268293 14 15 C13.01941648 13.54261898 12.04057868 12.08406325 11.0625 10.625 C10.51722656 9.81289062 9.97195312 9.00078125 9.41015625 8.1640625 C8 6 8 6 7 4 C5.11235097 3.31527335 5.11235097 3.31527335 2.9375 2.875 C2.20402344 2.70742187 1.47054687 2.53984375 0.71484375 2.3671875 C0.14894531 2.24601563 -0.41695312 2.12484375 -1 2 C-0.67 1.34 -0.34 0.68 0 0 Z " fill="#454447" transform="translate(176,215)"/>
<path d="M0 0 C1.65 0.33 3.3 0.66 5 1 C4.67 1.66 4.34 2.32 4 3 C3.34 3 2.68 3 2 3 C2.33 4.32 2.66 5.64 3 7 C3.66 7 4.32 7 5 7 C5.33 5.35 5.66 3.7 6 2 C9.875 2.875 9.875 2.875 11 4 C11.04063832 5.66617115 11.042721 7.33388095 11 9 C10.34 8.01 9.68 7.02 9 6 C7.515 8.475 7.515 8.475 6 11 C3.625 10.6875 3.625 10.6875 1 10 C-1.56687367 6.1496895 -0.83288724 4.41430237 0 0 Z " fill="#A8A8AA" transform="translate(328,141)"/>
<path d="M0 0 C3.86955879 1.24378675 5.01915914 3.49890236 6.8515625 6.98046875 C8.88825767 10.56200413 11.47170506 13.75535483 14 17 C13.67 17.66 13.34 18.32 13 19 C8.42183216 16.75501402 6.19702231 13.79523553 3.6875 9.5 C3.32849609 8.91863281 2.96949219 8.33726562 2.59960938 7.73828125 C0.92018928 4.94244666 0 3.3174012 0 0 Z " fill="#B9B9BB" transform="translate(164,213)"/>
<path d="M0 0 C0.99 0.33 1.98 0.66 3 1 C3.38063221 3.3260857 3.71269945 5.66055264 4 8 C3.67 8.33 3.34 8.66 3 9 C2.92820036 10.51928038 2.91607993 12.04167482 2.9375 13.5625 C2.94652344 14.38878906 2.95554688 15.21507812 2.96484375 16.06640625 C2.97644531 16.70449219 2.98804688 17.34257812 3 18 C1.02 18 -0.96 18 -3 18 C-1.68 17.67 -0.36 17.34 1 17 C0.73323796 15.01508358 0.73323796 15.01508358 0 13 C-0.99 12.67 -1.98 12.34 -3 12 C-2.01 12 -1.02 12 0 12 C-0.350625 11.2575 -0.70125 10.515 -1.0625 9.75 C-2.06789411 6.80084393 -2.04332005 5.84541832 -1 3 C-0.67 2.01 -0.34 1.02 0 0 Z " fill="#070709" transform="translate(195,300)"/>
<path d="M0 0 C0.33 0 0.66 0 1 0 C1 9.57 1 19.14 1 29 C-9.125 26.75 -9.125 26.75 -14.0625 25.375 C-15.00222656 25.11460937 -15.94195312 24.85421875 -16.91015625 24.5859375 C-17.59980469 24.39257812 -18.28945312 24.19921875 -19 24 C-19 23.67 -19 23.34 -19 23 C-14.25002251 22.76829378 -10.54110632 23.67895089 -6 25 C-4.35 25 -2.7 25 -1 25 C-0.67 16.75 -0.34 8.5 0 0 Z " fill="#676669" transform="translate(270,164)"/>
<path d="M0 0 C1.65 0 3.3 0 5 0 C5 3.3 5 6.6 5 10 C3.02 10 1.04 10 -1 10 C-1.02689216 8.52093108 -1.04634621 7.04172517 -1.0625 5.5625 C-1.07410156 4.73878906 -1.08570313 3.91507813 -1.09765625 3.06640625 C-1 1 -1 1 0 0 Z " fill="#1B1B19" transform="translate(251,25)"/>
<path d="M0 0 C0.99 0 1.98 0 3 0 C3 2.31 3 4.62 3 7 C2.34 7 1.68 7 1 7 C1 8.98 1 10.96 1 13 C1.66 13 2.32 13 3 13 C3 16.63 3 20.26 3 24 C2.01 23.67 1.02 23.34 0 23 C0 15.41 0 7.82 0 0 Z " fill="#6A6A6A" transform="translate(329,73)"/>
<path d="M0 0 C0.99 0 1.98 0 3 0 C3 0.99 3 1.98 3 3 C2.67 3.33 2.34 3.66 2 4 C2.66 4.66 3.32 5.32 4 6 C4.33 5.01 4.66 4.02 5 3 C5.66 3 6.32 3 7 3 C7.125 5.875 7.125 5.875 7 9 C6.34 9.66 5.68 10.32 5 11 C2.06546739 10.63318342 1.13562754 10.13562754 -1 8 C-1.1875 4.4375 -1.1875 4.4375 -1 1 C-0.67 0.67 -0.34 0.34 0 0 Z " fill="#A9A9AB" transform="translate(329,157)"/>
<path d="M0 0 C2 1.3125 2 1.3125 4 3 C4 3.99 4 4.98 4 6 C4.66 6 5.32 6 6 6 C8.41685712 10.22949995 9.34833144 13.12335991 9 18 C0.27728873 7.66197183 0.27728873 7.66197183 -0.3125 2 C-0.209375 1.34 -0.10625 0.68 0 0 Z " fill="#D5D6D5" transform="translate(98,110)"/>
<path d="M0 0 C0.66 0 1.32 0 2 0 C2.51949219 1.05058594 3.03898437 2.10117188 3.57421875 3.18359375 C4.27837277 4.60169812 4.98281904 6.0196574 5.6875 7.4375 C6.049646 8.1687207 6.41179199 8.89994141 6.78491211 9.65332031 C9.09815075 14.29317189 11.53216479 18.80537507 14.28515625 23.203125 C15.19985145 25.50235883 14.67161338 26.67238248 14 29 C0 2.708061 0 2.708061 0 0 Z " fill="#636265" transform="translate(122,212)"/>
<path d="M0 0 C2.5709213 2.36958409 4.39670471 4.91512549 6.25 7.875 C6.79140625 8.71804687 7.3328125 9.56109375 7.890625 10.4296875 C9.19630183 13.45481199 8.95516428 14.90126939 8 18 C4.05768059 13.35369499 0.20439964 8.81049507 -0.25 2.5625 C-0.1675 1.716875 -0.085 0.87125 0 0 Z " fill="#D4D4D3" transform="translate(30,103)"/>
<path d="M0 0 C0 5.61 0 11.22 0 17 C-1.32 17 -2.64 17 -4 17 C-4 16.34 -4 15.68 -4 15 C-3.34 15 -2.68 15 -2 15 C-2.33 11.04 -2.66 7.08 -3 3 C-5.64 3.33 -8.28 3.66 -11 4 C-7.63661956 0.63661956 -4.71164284 0 0 0 Z " fill="#4F4F51" transform="translate(278,79)"/>
<path d="M0 0 C2 1.625 2 1.625 4 4 C4.25 7.25 4.25 7.25 4 10 C1.125 10.1875 1.125 10.1875 -2 10 C-2.66 9.01 -3.32 8.02 -4 7 C-2.68 7 -1.36 7 0 7 C0 6.01 0 5.02 0 4 C-1.65 4 -3.3 4 -5 4 C-4.67 3.34 -4.34 2.68 -4 2 C-3.34 2.33 -2.68 2.66 -2 3 C-2 2.34 -2 1.68 -2 1 C-1.34 0.67 -0.68 0.34 0 0 Z " fill="#B8B7BA" transform="translate(187,227)"/>
<path d="M0 0 C1.375 1.875 1.375 1.875 2 4 C1.625 6.25 1.625 6.25 1 8 C-1.35171131 7.40138258 -3.6859378 6.73075648 -6 6 C-6.33 5.34 -6.66 4.68 -7 4 C-4.69 4 -2.38 4 0 4 C-0.33 3.34 -0.66 2.68 -1 2 C-1.99 2.495 -1.99 2.495 -3 3 C-5.00800456 2.71887936 -7.01014051 2.38932033 -9 2 C-9 1.01 -9 0.02 -9 -1 C-5.39482618 -2.33524956 -3.34159621 -1.84667159 0 0 Z " fill="#555557" transform="translate(168,221)"/>
<path d="M0 0 C0.99 0 1.98 0 3 0 C3 1.98 3 3.96 3 6 C-0.87684087 7.19287411 -3.91621923 8 -8 8 C-8 6.35 -8 4.7 -8 3 C-5.69 3 -3.38 3 -1 3 C-0.67 2.01 -0.34 1.02 0 0 Z " fill="#5C5B5E" transform="translate(282,95)"/>
<path d="M0 0 C3.96 0 7.92 0 12 0 C11.01 0.66 10.02 1.32 9 2 C9 2.99 9 3.98 9 5 C9.99 5.33 10.98 5.66 12 6 C10.02013918 5.88652381 8.04108402 5.7589065 6.0625 5.625 C4.96035156 5.55539062 3.85820312 5.48578125 2.72265625 5.4140625 C1.82417969 5.27742188 0.92570313 5.14078125 0 5 C-0.33 4.34 -0.66 3.68 -1 3 C-0.67 2.01 -0.34 1.02 0 0 Z " fill="#212023" transform="translate(164,310)"/>
<path d="M0 0 C0.66 0 1.32 0 2 0 C2.28875 0.7425 2.5775 1.485 2.875 2.25 C3.82302644 4.56739797 4.84845911 6.77917115 6 9 C2.625 9.125 2.625 9.125 -1 9 C-1.66 8.34 -2.32 7.68 -3 7 C-2.67028521 3.70285207 -2.3773161 2.3773161 0 0 Z " fill="#080807" transform="translate(110,122)"/>
<path d="M0 0 C9.9 0 19.8 0 30 0 C29.67 1.32 29.34 2.64 29 4 C28.44513916 3.83773926 27.89027832 3.67547852 27.31860352 3.50830078 C24.77957748 2.9516774 22.50082872 2.87051189 19.90234375 2.8671875 C18.93619141 2.86589844 17.97003906 2.86460938 16.97460938 2.86328125 C15.47124023 2.86908203 15.47124023 2.86908203 13.9375 2.875 C12.42833008 2.86919922 12.42833008 2.86919922 10.88867188 2.86328125 C9.92380859 2.86457031 8.95894531 2.86585937 7.96484375 2.8671875 C6.64407837 2.86887939 6.64407837 2.86887939 5.29663086 2.87060547 C2.83749335 2.90841227 2.83749335 2.90841227 0 4 C0 2.68 0 1.36 0 0 Z " fill="#E5E5E5" transform="translate(329,69)"/>
<path d="M0 0 C0.66 0 1.32 0 2 0 C2 2.64 2 5.28 2 8 C1.04287109 8.25523438 1.04287109 8.25523438 0.06640625 8.515625 C-0.75988281 8.75796875 -1.58617187 9.0003125 -2.4375 9.25 C-3.26121094 9.48203125 -4.08492188 9.7140625 -4.93359375 9.953125 C-7.19995468 10.80770679 -7.19995468 10.80770679 -7.78515625 13.109375 C-7.85605469 13.73328125 -7.92695313 14.3571875 -8 15 C-9.32 14.67 -10.64 14.34 -12 14 C-11.34 14 -10.68 14 -10 14 C-10 13.34 -10 12.68 -10 12 C-10.66 12 -11.32 12 -12 12 C-12 9.36 -12 6.72 -12 4 C-11.67 4 -11.34 4 -11 4 C-11 5.65 -11 7.3 -11 9 C-5.555 8.01 -5.555 8.01 0 7 C0 4.69 0 2.38 0 0 Z " fill="#DADADC" transform="translate(284,94)"/>
<path d="M0 0 C3.3 0 6.6 0 10 0 C9.34 1.65 8.68 3.3 8 5 C5.69 5 3.38 5 1 5 C0.67 3.35 0.34 1.7 0 0 Z " fill="#9E9E9E" transform="translate(267,48)"/>
<path d="M0 0 C1.65 0 3.3 0 5 0 C4.938125 0.886875 4.87625 1.77375 4.8125 2.6875 C5.01951982 6.34485017 5.916074 8.04777151 8 11 C7.01 11 6.02 11 5 11 C1.54736544 7.54736544 0.44925138 4.82945236 0 0 Z " fill="#BDBCBF" transform="translate(173,218)"/>
<path d="M0 0 C0.99 0 1.98 0 3 0 C3.08089542 2.77141717 3.14044062 5.54047819 3.1875 8.3125 C3.21263672 9.09818359 3.23777344 9.88386719 3.26367188 10.69335938 C3.27333984 11.45068359 3.28300781 12.20800781 3.29296875 12.98828125 C3.3086792 13.68477783 3.32438965 14.38127441 3.34057617 15.09887695 C3 17 3 17 0 20 C0 13.4 0 6.8 0 0 Z " fill="#DCDBDE" transform="translate(279,76)"/>
<path d="M0 0 C1.4540625 0.0309375 1.4540625 0.0309375 2.9375 0.0625 C1.73850302 3.1456351 0.46049523 6.12529492 -1.0625 9.0625 C-1.7225 9.0625 -2.3825 9.0625 -3.0625 9.0625 C-4.42873674 6.33002652 -4.190926 4.08051098 -4.0625 1.0625 C-3.0625 0.0625 -3.0625 0.0625 0 0 Z " fill="#353537" transform="translate(205.0625,300.9375)"/>
<path d="M0 0 C1.65 0 3.3 0 5 0 C5 3.63 5 7.26 5 11 C4.34 11 3.68 11 3 11 C2.67 9.02 2.34 7.04 2 5 C1.67 6.65 1.34 8.3 1 10 C0.67 10 0.34 10 0 10 C0 6.7 0 3.4 0 0 Z " fill="#524933" transform="translate(288,25)"/>
<path d="M0 0 C2.31 0 4.62 0 7 0 C6.67 1.65 6.34 3.3 6 5 C3.69 5 1.38 5 -1 5 C-1 2 -1 2 0 0 Z " fill="#323234" transform="translate(157,309)"/>
<path d="M0 0 C0.99 0.33 1.98 0.66 3 1 C4.1875 4.0625 4.1875 4.0625 5 7 C2.69 7.33 0.38 7.66 -2 8 C-2.99 6.35 -3.98 4.7 -5 3 C-2.03 3.495 -2.03 3.495 1 4 C0.67 2.68 0.34 1.36 0 0 Z " fill="#4A494C" transform="translate(197,217)"/>
<path d="M0 0 C0.66 0 1.32 0 2 0 C2.33 0.99 2.66 1.98 3 3 C3.66 3.33 4.32 3.66 5 4 C5.40729228 6.32156597 5.74438677 8.6568787 6 11 C6.99 11.33 7.98 11.66 9 12 C9.73046875 13.84765625 9.73046875 13.84765625 10.1875 16.0625 C10.34605469 16.79597656 10.50460938 17.52945313 10.66796875 18.28515625 C10.77753906 18.85105469 10.88710937 19.41695312 11 20 C10.34 20 9.68 20 9 20 C8.67 17.69 8.34 15.38 8 13 C7.01 12.67 6.02 12.34 5 12 C3.61328125 9.53125 3.61328125 9.53125 2.3125 6.5 C1.87550781 5.4996875 1.43851562 4.499375 0.98828125 3.46875 C0 1 0 1 0 0 Z " fill="#626264" transform="translate(110,192)"/>
<path d="M0 0 C2.29296875 -0.30078125 2.29296875 -0.30078125 5 0 C6.80078125 2.08203125 6.80078125 2.08203125 8.3125 4.8125 C8.82425781 5.70582031 9.33601563 6.59914063 9.86328125 7.51953125 C11 10 11 10 11 13 C8 12 8 12 6.3125 9.75 C4.93488797 6.8635748 4.73014849 5.14826764 5 2 C3.35 1.67 1.7 1.34 0 1 C0 0.67 0 0.34 0 0 Z " fill="#5E5E5E" transform="translate(43,114)"/>
<path d="M0 0 C1.32 0.33 2.64 0.66 4 1 C4.28875 2.051875 4.5775 3.10375 4.875 4.1875 C5.77225193 7.22818711 6.76423419 10.08712344 8 13 C7.34 13 6.68 13 6 13 C5.67 12.01 5.34 11.02 5 10 C4.154375 9.21625 3.30875 8.4325 2.4375 7.625 C0 5 0 5 -0.3125 2.1875 C-0.209375 1.465625 -0.10625 0.74375 0 0 Z " fill="#474647" transform="translate(44,115)"/>
<path d="M0 0 C1.98 0.99 1.98 0.99 4 2 C3.34 2 2.68 2 2 2 C2.33 2.66 2.66 3.32 3 4 C3.08372659 5.52148326 3.10730027 7.04655778 3.09765625 8.5703125 C3.09443359 9.46621094 3.09121094 10.36210937 3.08789062 11.28515625 C3.07951172 12.22230469 3.07113281 13.15945312 3.0625 14.125 C3.05798828 15.06988281 3.05347656 16.01476562 3.04882812 16.98828125 C3.03702357 19.32558387 3.02055759 21.66276061 3 24 C2.67 24 2.34 24 2 24 C1.67 18.72 1.34 13.44 1 8 C0.67 8 0.34 8 0 8 C0 5.36 0 2.72 0 0 Z " fill="#333334" transform="translate(262,200)"/>
<path d="M0 0 C3.63 0.33 7.26 0.66 11 1 C11 2.32 11 3.64 11 5 C7.7 4.67 4.4 4.34 1 4 C0.67 2.68 0.34 1.36 0 0 Z " fill="#A6A6A8" transform="translate(325,152)"/>
<path d="M0 0 C-3.00440021 2.00293347 -4.70993945 2.49271626 -8.1875 3.125 C-9.08855469 3.29257813 -9.98960937 3.46015625 -10.91796875 3.6328125 C-11.60503906 3.75398438 -12.29210937 3.87515625 -13 4 C-13 5.98 -13 7.96 -13 10 C-13.33 10 -13.66 10 -14 10 C-14.33 7.69 -14.66 5.38 -15 3 C-13.4447088 2.29634398 -11.88035173 1.61270622 -10.3125 0.9375 C-9.44238281 0.55464844 -8.57226562 0.17179687 -7.67578125 -0.22265625 C-4.67786136 -1.0935848 -2.96719847 -0.85006226 0 0 Z " fill="#BEBEC0" transform="translate(272,80)"/>
<path d="M0 0 C2.64 0.33 5.28 0.66 8 1 C8.66 2.65 9.32 4.3 10 6 C5.8333396 5.52651586 3.07115285 4.95303159 0 2 C0 1.34 0 0.68 0 0 Z " fill="#848386" transform="translate(190,225)"/>
<path d="M0 0 C2.43031167 2.43031167 3.47457576 4.93480985 4.90234375 8.02734375 C5.91855774 10.07282698 5.91855774 10.07282698 7.6484375 11.6171875 C8.09445313 12.07351562 8.54046875 12.52984375 9 13 C8.6875 15.1875 8.6875 15.1875 8 17 C3.57852707 11.94688807 0 6.81672599 0 0 Z " fill="#4B4B4B" transform="translate(44,212)"/>
<path d="M0 0 C1 3 1 3 -0.1875 5.6875 C-0.785625 6.780625 -1.38375 7.87375 -2 9 C-2.69161898 10.39379702 -3.37901508 11.78969626 -4.0625 13.1875 C-5.25937638 15.62451334 -6.48152342 17.72228513 -8 20 C-7.50839669 14.56466759 -6.12206673 10.7970995 -3.4375 6.0625 C-2.79683594 4.91910156 -2.15617187 3.77570313 -1.49609375 2.59765625 C-0.75552734 1.31181641 -0.75552734 1.31181641 0 0 Z " fill="#4D4C4D" transform="translate(51,191)"/>
<path d="M0 0 C2.5 2.3125 2.5 2.3125 5 5 C5 5.99 5 6.98 5 8 C4.34 8 3.68 8 3 8 C3 8.66 3 9.32 3 10 C2.34 10 1.68 10 1 10 C-0.85064319 6.87703962 -1.29356154 4.62059232 -1 1 C-0.67 0.67 -0.34 0.34 0 0 Z " fill="#78787A" transform="translate(113,200)"/>
<path d="M0 0 C1.98 0 3.96 0 6 0 C6 0.99 6 1.98 6 3 C5.01 3.33 4.02 3.66 3 4 C4.98 4.66 6.96 5.32 9 6 C9 6.33 9 6.66 9 7 C5.625 7.1875 5.625 7.1875 2 7 C0 4 0 4 0 0 Z " fill="#565658" transform="translate(181,231)"/>
<path d="M0 0 C4.29 1.65 8.58 3.3 13 5 C13 5.33 13 5.66 13 6 C9.33333333 6 5.66666667 6 2 6 C1.34 5.34 0.68 4.68 0 4 C0 2.68 0 1.36 0 0 Z " fill="#4A4A4B" transform="translate(244,180)"/>
<path d="M0 0 C0.66 0 1.32 0 2 0 C2 2.31 2 4.62 2 7 C1.67 6.01 1.34 5.02 1 4 C-1.97 4.66 -4.94 5.32 -8 6 C-8 5.01 -8 4.02 -8 3 C-6.865625 2.690625 -5.73125 2.38125 -4.5625 2.0625 C-1.21224901 1.37075469 -1.21224901 1.37075469 0 0 Z " fill="#3E3E3E" transform="translate(297,180)"/>
<path d="M0 0 C0.99 0 1.98 0 3 0 C3 3.3 3 6.6 3 10 C2.01 10 1.02 10 0 10 C0 6.7 0 3.4 0 0 Z " fill="#464646" transform="translate(355,87)"/>
<path d="M0 0 C3.23490776 0.55774272 4.97855006 1.37211508 7 4 C7 4.99 7 5.98 7 7 C3.76509224 6.44225728 2.02144994 5.62788492 0 3 C0 2.01 0 1.02 0 0 Z " fill="#4A494C" transform="translate(177,221)"/>
<path d="M0 0 C0.99 0 1.98 0 3 0 C2.51171875 6.0546875 2.51171875 6.0546875 2 8 C1.01 8.66 0.02 9.32 -1 10 C-1.02689216 8.52093108 -1.04634621 7.04172517 -1.0625 5.5625 C-1.07410156 4.73878906 -1.08570313 3.91507812 -1.09765625 3.06640625 C-1 1 -1 1 0 0 Z " fill="#F8F8F8" transform="translate(352,72)"/>
<path d="M0 0 C1.32 0.33 2.64 0.66 4 1 C3.01 1.33 2.02 1.66 1 2 C0.67 1.34 0.34 0.68 0 0 Z M-3 2 C-1.68 2 -0.36 2 1 2 C1.3125 4.25 1.3125 4.25 1 7 C-1.5 9.3125 -1.5 9.3125 -4 11 C-2.125 5.25 -2.125 5.25 -1 3 C-1.66 2.67 -2.32 2.34 -3 2 Z " fill="#3D3D3F" transform="translate(176,316)"/>
<path d="M0 0 C2.64 0 5.28 0 8 0 C8.33 0.99 8.66 1.98 9 3 C7.68 3 6.36 3 5 3 C2.99598989 3.30830925 0.99488234 3.63729412 -1 4 C-0.67 2.68 -0.34 1.36 0 0 Z " fill="#C7C7C7" transform="translate(32,100)"/>
<path d="M0 0 C2.94678433 2.94678433 4.32041919 5.24093818 6 9 C6 9.66 6 10.32 6 11 C5.34 11 4.68 11 4 11 C4 10.34 4 9.68 4 9 C3.01 9 2.02 9 1 9 C0.67 6.03 0.34 3.06 0 0 Z " fill="#6D6D6F" transform="translate(124,227)"/>
<path d="M0 0 C0.33 0 0.66 0 1 0 C1.02709444 2.08326131 1.04643873 4.16662441 1.0625 6.25 C1.07410156 7.41015625 1.08570313 8.5703125 1.09765625 9.765625 C1.01782092 12.40977128 0.78643778 14.49826091 0 17 C-0.66 17 -1.32 17 -2 17 C-2.33 15.35 -2.66 13.7 -3 12 C-2.01 11.67 -1.02 11.34 0 11 C0 7.37 0 3.74 0 0 Z " fill="#888888" transform="translate(370,107)"/>
<path d="M0 0 C2.97 0 5.94 0 9 0 C9 0.99 9 1.98 9 3 C5.625 3.1875 5.625 3.1875 2 3 C1.34 2.01 0.68 1.02 0 0 Z " fill="#1C1B1D" transform="translate(176,305)"/>
<path d="M0 0 C-0.99 1.485 -0.99 1.485 -2 3 C-4.97 2.505 -4.97 2.505 -8 2 C-8 1.01 -8 0.02 -8 -1 C-4.59745511 -2.2151946 -3.06748874 -1.86240388 0 0 Z " fill="#858487" transform="translate(167,221)"/>
<path d="M0 0 C2.62187494 1.04874998 3.79371361 1.64931313 5.25 4.125 C5.4975 4.74375 5.745 5.3625 6 6 C5.01 6.66 4.02 7.32 3 8 C0 3.375 0 3.375 0 0 Z " fill="#B3B3B5" transform="translate(164,213)"/>
<path d="M0 0 C1.98 0 3.96 0 6 0 C6.99 1.98 7.98 3.96 9 6 C8.34 6.66 7.68 7.32 7 8 C7 7.34 7 6.68 7 6 C6.34 6 5.68 6 5 6 C4.67 4.35 4.34 2.7 4 1 C2.68 0.67 1.36 0.34 0 0 Z " fill="#676767" transform="translate(111,121)"/>
<path d="M0 0 C4.75 0.875 4.75 0.875 7 2 C7 2.66 7 3.32 7 4 C5.1875 4.625 5.1875 4.625 3 5 C2.01 4.34 1.02 3.68 0 3 C0 2.01 0 1.02 0 0 Z " fill="#7A797A" transform="translate(267,104)"/>
<path d="M0 0 C0.66 0 1.32 0 2 0 C1.56179109 4.55737263 1.14958831 7.57653445 -2 11 C-2.25 3.375 -2.25 3.375 0 0 Z " fill="#5D5D5F" transform="translate(323,145)"/>
<path d="M0 0 C0.99 0.33 1.98 0.66 3 1 C2.34 1 1.68 1 1 1 C1 2.65 1 4.3 1 6 C-0.32 6 -1.64 6 -3 6 C-3 4.68 -3 3.36 -3 2 C-2.01 1.34 -1.02 0.68 0 0 Z " fill="#6A6A6C" transform="translate(333,142)"/>
<path d="M0 0 C0.93065133 2.60582371 1.14917407 3.64198224 0.0625 6.25 C-0.4634375 7.11625 -0.4634375 7.11625 -1 8 C-1 7.34 -1 6.68 -1 6 C-2.32 6.33 -3.64 6.66 -5 7 C-3.70700306 4.11562221 -2.34058637 2.12780579 0 0 Z " fill="#8F8F91" transform="translate(179,320)"/>
<path d="M0 0 C1.98 0.66 3.96 1.32 6 2 C6 2.66 6 3.32 6 4 C4.02 4.33 2.04 4.66 0 5 C0 3.35 0 1.7 0 0 Z " fill="#4D4C4F" transform="translate(274,98)"/>
<path d="M0 0 C0.99 0 1.98 0 3 0 C3 3.3 3 6.6 3 10 C2.34 10 1.68 10 1 10 C0.67 6.7 0.34 3.4 0 0 Z " fill="#2D2612" transform="translate(258,25)"/>
<path d="M0 0 C3 1 3 1 4 3 C4.039992 4.99960012 4.04346799 7.00047242 4 9 C0 4.5 0 4.5 0 0 Z " fill="#D0D0CF" transform="translate(103,119)"/>
<path d="M0 0 C0.886875 0.165 1.77375 0.33 2.6875 0.5 C5.53596892 0.92995757 8.13004802 1.08441035 11 1 C11 1.66 11 2.32 11 3 C7.04 3 3.08 3 -1 3 C-0.67 2.01 -0.34 1.02 0 0 Z " fill="#E8E8EA" transform="translate(329,96)"/>
<path d="M0 0 C0.33 2.31 0.66 4.62 1 7 C-0.98 7 -2.96 7 -5 7 C-3.68 6.67 -2.36 6.34 -1 6 C-1.26676204 4.01508358 -1.26676204 4.01508358 -2 2 C-2.99 1.67 -3.98 1.34 -5 1 C-2 0 -2 0 0 0 Z " fill="#1C1C1E" transform="translate(197,311)"/>
<path d="M0 0 C1.65 0 3.3 0 5 0 C3.92598892 2.91517292 3.22189824 4.77810176 1 7 C0.67 4.69 0.34 2.38 0 0 Z " fill="#232225" transform="translate(203,301)"/>
<path d="M0 0 C0.99 0 1.98 0 3 0 C3.33 2.31 3.66 4.62 4 7 C2 5.75 2 5.75 0 4 C0 2.68 0 1.36 0 0 Z " fill="#3C3C3C" transform="translate(112,122)"/>
<path d="M0 0 C1.65 0.33 3.3 0.66 5 1 C4.319375 1.61875 4.319375 1.61875 3.625 2.25 C1.94049626 4.06408095 1.00734029 5.75285627 0 8 C-0.98120464 4.94736336 -0.98120464 3.05263664 0 0 Z " fill="#B3B2B5" transform="translate(328,141)"/>
<path d="M0 0 C2.5 2.3125 2.5 2.3125 5 5 C5 5.99 5 6.98 5 8 C4.34 8 3.68 8 3 8 C0.95830515 5.09451118 0 3.59857954 0 0 Z " fill="#B7B7B5" transform="translate(32,103)"/>
<path d="M0 0 C0.99 0.33 1.98 0.66 3 1 C3 1.66 3 2.32 3 3 C3.66 3.66 4.32 4.32 5 5 C3.02 5 1.04 5 -1 5 C-0.67 3.35 -0.34 1.7 0 0 Z " fill="#545356" transform="translate(173,213)"/>
<path d="M0 0 C0.33 0 0.66 0 1 0 C1.08333357 4.8333472 0.95261487 9.23692563 0 14 C-0.33 14 -0.66 14 -1 14 C-1.33 11.36 -1.66 8.72 -2 6 C-1.34 6 -0.68 6 0 6 C0 4.02 0 2.04 0 0 Z " fill="#6C6C6E" transform="translate(364,172)"/>
<path d="M0 0 C0.99 0.33 1.98 0.66 3 1 C1.77065985 4.68802044 0.06140622 5.72356973 -3 8 C-2.45276317 4.62537285 -1.9451 2.91765 0 0 Z " fill="#6D6D6F" transform="translate(65,164)"/>
<path d="M0 0 C2.52588702 2.36292656 3.88820837 3.66462511 5 7 C3.35 6.67 1.7 6.34 0 6 C0.33 5.34 0.66 4.68 1 4 C0.60061233 1.90178785 0.60061233 1.90178785 0 0 Z " fill="#434345" transform="translate(189,211)"/>
</svg>
