<?xml version="1.0" standalone="no"?>
<!DOCTYPE svg PUBLIC "-//W3C//DTD SVG 20010904//EN"
 "http://www.w3.org/TR/2001/REC-SVG-20010904/DTD/svg10.dtd">
<svg version="1.0" xmlns="http://www.w3.org/2000/svg"
 width="1340.000000pt" height="1392.000000pt" viewBox="0 0 1340.000000 1392.000000"
 preserveAspectRatio="xMidYMid meet">

<g transform="translate(0.000000,1392.000000) scale(0.100000,-0.100000)"
fill="#000000" stroke="none">
<path d="M43 13878 c19 -24 124 -153 233 -288 109 -135 284 -351 388 -480 104
-129 221 -273 260 -319 39 -46 106 -127 149 -180 43 -53 86 -105 95 -116 10
-11 92 -112 183 -225 91 -113 189 -234 218 -270 170 -209 208 -256 231 -284
81 -101 498 -616 559 -691 274 -336 396 -488 399 -495 2 -5 -14 -18 -35 -28
-21 -11 -112 -74 -203 -139 -197 -142 -369 -258 -505 -340 -134 -81 -334 -198
-365 -213 -49 -24 -246 -160 -293 -202 -48 -42 -49 -45 -52 -107 -2 -34 -6
-66 -9 -69 -3 -3 -15 3 -26 13 -29 26 -47 13 -84 -67 -65 -139 -80 -214 -80
-388 1 -152 8 -208 50 -370 61 -234 109 -370 206 -578 26 -57 48 -105 48 -107
0 -1 23 -45 51 -96 109 -198 221 -370 456 -695 76 -105 181 -250 233 -323 52
-72 140 -194 195 -270 55 -76 114 -158 131 -182 17 -24 74 -102 126 -174 141
-196 209 -289 382 -530 88 -121 176 -242 196 -270 21 -27 115 -158 210 -290
95 -132 190 -262 210 -290 20 -27 142 -196 270 -375 128 -179 250 -347 270
-375 21 -27 156 -212 300 -410 263 -360 494 -674 600 -815 428 -569 455 -603
618 -799 428 -513 845 -880 1357 -1193 200 -122 508 -279 685 -348 362 -142
666 -241 955 -314 299 -74 417 -95 830 -148 159 -21 774 -17 950 5 572 73
1047 223 1485 472 374 212 706 533 923 891 48 81 170 325 196 394 29 75 26 94
-4 34 -14 -27 -25 -54 -25 -61 0 -6 -3 -13 -7 -15 -5 -1 -30 -37 -57 -78 -176
-269 -361 -451 -646 -637 -66 -43 -397 -213 -460 -235 -366 -134 -646 -206
-960 -249 -124 -18 -639 -18 -775 -1 -339 42 -684 121 -936 213 -59 21 -109
39 -112 39 -23 0 -465 203 -552 253 -11 7 -47 28 -80 47 -33 18 -109 65 -168
102 -59 37 -110 68 -112 68 -4 0 -41 25 -235 160 -86 59 -248 179 -320 236
-83 66 -175 143 -223 187 -33 28 -62 54 -67 57 -49 32 -420 394 -620 605 -196
207 -476 536 -635 745 -27 36 -52 67 -55 70 -12 10 -450 600 -490 661 -8 12
-26 36 -40 53 -14 17 -39 51 -55 76 -17 25 -32 47 -35 50 -3 3 -19 26 -37 51
-23 34 -28 50 -20 58 8 8 6 11 -6 11 -9 0 -17 5 -17 11 0 5 -4 8 -8 5 -5 -3
-8 14 -8 37 1 30 -5 48 -22 66 -33 36 -55 87 -47 111 4 14 2 20 -6 18 -6 -2
-21 15 -32 37 -11 22 -26 52 -33 67 -24 46 -15 52 16 12 16 -22 35 -45 42 -53
10 -13 187 -235 295 -371 53 -68 343 -430 386 -484 171 -211 490 -581 637
-740 95 -102 425 -432 495 -494 33 -30 89 -81 125 -115 98 -94 240 -215 358
-305 31 -23 59 -46 62 -50 6 -10 218 -167 280 -208 25 -17 68 -46 95 -65 113
-80 243 -164 335 -215 36 -20 81 -47 100 -60 138 -89 501 -264 710 -341 52
-19 104 -38 115 -43 64 -28 331 -104 521 -149 647 -150 1368 -110 2006 113
141 49 213 79 368 153 30 15 62 29 70 33 31 14 135 73 140 80 3 3 21 14 40 23
19 10 55 33 80 52 25 18 49 34 53 34 14 1 154 121 237 203 43 43 109 117 146
165 38 48 71 90 74 93 9 7 95 141 110 170 7 13 19 31 27 38 7 7 13 20 13 28 0
8 7 14 16 14 11 0 14 -4 7 -13 -5 -6 -10 -27 -12 -45 -2 -24 2 -32 13 -32 11
0 16 10 17 28 l1 27 7 -25 c10 -33 3 -50 -20 -50 -25 0 -24 -16 1 -30 16 -8
20 -8 20 3 0 8 7 28 16 45 33 67 38 116 8 91 -9 -7 -12 -6 -9 8 4 25 -6 38
-16 22 -6 -10 -9 -6 -9 14 0 17 5 27 15 27 8 0 15 -8 15 -17 0 -15 2 -16 10
-3 6 9 5 17 -1 21 -7 4 -5 18 6 40 12 23 14 34 6 37 -7 2 -6 10 4 25 8 12 15
29 15 39 0 10 5 18 10 18 6 0 10 -4 10 -8 0 -5 7 -9 15 -9 18 0 20 17 3 17 -8
1 -7 6 4 14 10 7 20 32 23 57 l5 44 -13 -34 c-20 -51 -40 -53 -31 -5 4 22 10
41 14 44 4 3 11 34 15 70 4 36 11 72 15 80 4 8 11 42 14 75 4 32 14 100 23
150 13 77 14 146 9 465 -4 206 -9 393 -11 415 -2 22 -9 94 -15 160 -18 194
-60 487 -96 675 -8 41 -21 111 -30 155 -8 44 -22 107 -29 140 -8 33 -21 92
-30 130 -59 261 -168 633 -280 955 -25 69 -141 366 -170 435 -168 389 -357
748 -563 1070 -119 185 -124 192 -292 420 -492 666 -1211 1288 -2075 1797
-114 67 -141 83 -310 176 -96 53 -470 242 -479 242 -2 0 -50 22 -107 49 -57
27 -133 61 -169 76 -36 15 -78 33 -95 40 -107 49 -422 168 -583 221 -325 107
-653 193 -1007 264 -296 59 -235 55 -842 53 -467 -1 -563 1 -563 12 0 21 -30
46 -49 40 -12 -4 -21 3 -29 20 -9 18 -19 25 -41 25 -16 0 -31 6 -35 15 -3 8
-18 15 -34 15 -15 0 -33 5 -39 11 -32 32 -295 0 -479 -57 -33 -10 -68 -14
-100 -11 -423 49 -548 56 -580 32 -11 -8 -41 -15 -70 -15 -29 0 -65 -7 -80
-15 -16 -8 -42 -15 -59 -15 -16 -1 -41 -7 -55 -15 -14 -8 -35 -14 -48 -15 -12
0 -30 -4 -40 -9 -15 -8 -106 -30 -252 -61 -98 -20 -239 -41 -318 -47 -66 -5
-86 -10 -95 -25 -9 -13 -24 -18 -57 -18 -42 1 -47 4 -78 46 -19 25 -80 100
-135 167 -99 117 -370 444 -434 523 -17 21 -68 84 -113 139 -175 214 -207 254
-309 380 -58 72 -115 141 -127 155 -21 24 -281 343 -413 505 -36 44 -67 82
-70 85 -4 3 -51 61 -106 130 -55 69 -192 237 -305 375 -113 137 -224 272 -245
300 -22 27 -46 56 -53 64 -7 8 -39 45 -70 84 -31 39 -79 98 -107 132 -27 33
-63 78 -80 98 l-30 37 -203 0 -203 0 34 -42z m4077 -2979 c0 -8 4 -8 14 0 13
11 42 8 165 -20 24 -5 70 -12 102 -16 58 -6 83 -23 35 -23 -14 0 -31 -7 -39
-15 -17 -16 -81 -15 -114 3 -11 6 -28 11 -39 12 -10 0 -52 3 -92 6 -67 6 -73
8 -69 26 5 17 2 18 -41 12 -26 -4 -44 -3 -40 0 5 6 39 14 111 25 4 0 7 -4 7
-10z m885 -19 c4 -6 15 -8 25 -5 11 3 22 0 27 -8 4 -8 19 -20 32 -27 15 -7 21
-8 17 -1 -4 6 -2 11 3 11 6 0 11 -9 11 -20 0 -11 -4 -20 -9 -20 -5 0 -16 -3
-24 -6 -11 -4 -16 2 -19 18 -2 19 -9 23 -35 22 -23 -1 -33 3 -36 16 -3 13 -17
20 -43 23 l-39 4 42 1 c23 1 45 -3 48 -8z m-680 -99 c-3 -6 -11 -8 -17 -5 -6
4 -5 9 3 15 16 10 23 4 14 -10z m2142 -606 c85 -41 156 -75 158 -75 24 0 573
-313 651 -371 105 -78 95 -171 -25 -234 -40 -20 -211 -67 -230 -62 -9 2 1 7
22 12 25 5 44 17 55 34 9 14 36 44 60 67 48 46 53 77 21 117 -38 50 -537 365
-623 395 -94 32 -282 30 -378 -5 -64 -23 -116 -66 -120 -101 -3 -26 -22 -40
-77 -57 -30 -9 -25 16 7 30 12 5 22 13 22 17 0 3 -45 35 -99 69 -95 61 -112
79 -72 79 22 0 131 34 157 49 11 6 55 23 99 37 44 15 107 37 140 50 33 12 64
22 68 23 5 0 78 -33 164 -74z m-882 -235 c20 -11 82 -44 138 -74 56 -29 136
-74 177 -98 41 -24 100 -57 130 -72 164 -80 440 -246 410 -246 -25 0 -172 68
-225 104 -58 40 -315 195 -395 239 -30 17 -71 40 -90 52 -19 12 -73 41 -120
64 -97 50 -99 51 -77 51 9 0 33 -9 52 -20z m-3165 -2221 c41 -46 100 -111 131
-144 89 -96 476 -542 554 -639 38 -46 38 -49 15 -43 -14 4 -39 7 -55 7 -27 0
-51 24 -211 208 -229 262 -240 274 -412 465 -118 131 -143 163 -137 181 4 11
9 34 12 50 5 25 8 27 17 14 6 -8 45 -53 86 -99z m615 -869 c3 -5 2 -10 -4 -10
-5 0 -13 5 -16 10 -3 6 -2 10 4 10 5 0 13 -4 16 -10z m100 -10 c4 -6 -6 -7
-27 -3 -44 8 -48 13 -10 13 17 0 34 -4 37 -10z m330 -363 c6 -5 3 -7 -7 -3
-29 9 -31 -13 -4 -49 14 -18 26 -37 26 -41 0 -10 -29 16 -50 46 -17 23 -18 33
-8 66 11 39 11 39 22 14 6 -14 15 -29 21 -33z m35 -25 c0 -5 -7 -9 -15 -9 -8
0 -12 4 -9 9 3 4 9 8 15 8 5 0 9 -4 9 -8z m14 -108 c5 -14 4 -15 -9 -4 -17 14
-19 20 -6 20 5 0 12 -7 15 -16z m6804 -814 c21 -25 161 -287 168 -317 5 -18
-2 -26 -47 -49 -112 -56 -215 -196 -239 -323 -30 -163 21 -360 132 -507 85
-114 235 -213 374 -248 39 -10 105 -16 176 -16 114 0 115 0 127 -26 33 -72
131 -337 131 -354 0 -37 -168 -66 -328 -55 -308 20 -662 224 -834 482 -172
257 -250 602 -193 853 18 79 86 234 126 285 13 17 67 73 120 126 73 73 116
106 170 133 83 42 93 43 117 16z m-6068 -239 c0 -8 -11 0 -25 19 -14 19 -25
36 -25 39 0 2 11 -6 25 -19 14 -13 25 -30 25 -39z m60 -75 c0 -17 -21 -2 -35
24 -22 42 -19 46 10 12 14 -17 25 -33 25 -36z m7126 -211 c9 -14 37 -73 61
-132 25 -60 70 -166 100 -238 105 -250 165 -410 167 -439 l1 -29 -148 -41
c-127 -34 -149 -38 -161 -25 -7 8 -35 68 -61 134 -26 66 -55 138 -64 160 -10
22 -26 62 -36 88 -10 27 -24 51 -32 54 -7 3 -90 -18 -185 -46 -95 -28 -182
-51 -194 -51 -23 0 -26 5 -121 220 -35 79 -61 150 -59 156 5 13 242 91 469
154 82 23 158 45 170 50 42 17 76 11 93 -15z m-6166 -655 c0 -5 -4 -10 -10
-10 -5 0 -10 5 -10 10 0 6 5 10 10 10 6 0 10 -4 10 -10z"/>
<path d="M13261 2629 c-6 -18 -10 -50 -10 -73 2 -38 2 -37 9 14 4 30 11 63 15
73 4 9 5 17 2 17 -3 0 -10 -14 -16 -31z"/>
<path d="M13186 2280 c-9 -22 -16 -53 -15 -68 l0 -27 11 25 c20 51 36 110 28
110 -4 0 -15 -18 -24 -40z"/>
</g>
</svg>
