<?xml version="1.0" standalone="no"?>
<!DOCTYPE svg PUBLIC "-//W3C//DTD SVG 20010904//EN"
 "http://www.w3.org/TR/2001/REC-SVG-20010904/DTD/svg10.dtd">
<svg version="1.0" xmlns="http://www.w3.org/2000/svg"
 width="1600.000000pt" height="1600.000000pt" viewBox="0 0 1600.000000 1600.000000"
 preserveAspectRatio="xMidYMid meet">

<g transform="translate(0.000000,1600.000000) scale(0.100000,-0.100000)"
fill="#000000" stroke="none">
<path d="M6815 10454 c-157 -28 67 73 -3415 -1544 -1713 -796 -1581 -732
-1660 -810 -61 -61 -104 -148 -96 -194 8 -43 50 -86 111 -115 26 -12 268 -108
538 -212 1195 -463 1498 -581 1912 -744 369 -145 705 -276 1255 -490 1121
-436 2355 -922 2427 -955 24 -11 48 -20 53 -20 6 0 8 -5 4 -12 -4 -7 -3 -8 5
-4 6 4 28 2 47 -4 22 -8 32 -15 25 -19 -7 -5 -1 -12 16 -21 40 -18 212 -90
248 -102 40 -14 67 -26 85 -37 25 -16 89 -42 164 -68 69 -23 100 -36 180 -74
22 -11 44 -19 49 -19 4 0 32 -11 60 -24 29 -13 73 -31 97 -39 25 -8 92 -36
150 -60 156 -67 396 -144 502 -163 138 -24 457 -25 563 -1 94 22 192 66 255
116 46 36 121 113 116 119 -7 6 -55 -22 -50 -29 3 -5 -2 -9 -11 -9 -9 0 -29
-8 -43 -18 -36 -25 -63 -38 -32 -15 86 63 170 139 365 331 121 119 319 314
440 432 121 118 308 300 415 405 107 105 398 389 645 630 248 241 549 536 670
655 724 709 1126 1104 1287 1259 75 73 144 149 153 168 20 42 14 91 -16 125
l-20 23 6 -23 c15 -52 -29 -100 -511 -562 -261 -250 -516 -495 -567 -545 -438
-424 -785 -756 -848 -809 -66 -57 220 222 1081 1054 151 146 393 380 538 520
145 140 268 262 273 271 5 10 9 36 9 58 0 56 -51 111 -144 156 -96 45 -128 54
-521 135 -433 90 -2317 470 -2328 470 -5 0 -6 12 -3 28 4 15 8 32 9 39 2 13
-123 164 -188 226 -66 64 -141 92 -337 128 -98 18 -178 35 -177 38 0 8 142
108 266 189 56 37 102 70 103 75 0 4 -11 7 -24 7 -13 0 -26 6 -28 12 -7 19
-54 -9 -236 -139 -86 -62 -168 -116 -181 -119 -13 -4 -121 12 -245 36 -463 88
-541 101 -576 95 -71 -13 -417 -128 -469 -156 l-55 -29 -1001 200 -1001 200
-129 -1 c-72 0 -166 -7 -210 -15z m3135 -448 c0 -2 -7 -7 -16 -10 -8 -3 -12
-2 -9 4 6 10 25 14 25 6z m155 -29 c38 -8 55 -16 47 -21 -7 -4 -21 -4 -30 0
-9 4 -24 6 -33 5 -8 -1 -29 5 -45 14 -35 18 -19 18 61 2z m110 -27 c4 -6 -7
-10 -27 -10 -25 0 -29 3 -18 10 19 13 37 13 45 0z m125 -19 l35 -7 -32 -5
c-18 -3 -33 -2 -33 3 0 4 -13 8 -29 8 -17 0 -33 4 -36 10 -6 9 7 8 95 -9z
m287 -52 c134 -25 239 -50 272 -65 30 -13 52 -26 50 -28 -2 -3 -101 15 -219
40 -320 65 -360 75 -354 85 8 13 14 13 251 -32z m1733 -2943 c0 -3 -4 -8 -10
-11 -5 -3 -10 -1 -10 4 0 6 5 11 10 11 6 0 10 -2 10 -4z m-95 -86 c-10 -11
-23 -20 -28 -20 -6 0 0 11 13 25 27 29 42 25 15 -5z m-125 -114 c0 -2 -8 -10
-17 -17 -16 -13 -17 -12 -4 4 13 16 21 21 21 13z m-4040 -1428 c10 -6 7 -7
-10 -2 -14 3 -32 11 -40 16 -10 6 -7 7 10 2 14 -3 32 -11 40 -16z m50 -18 c8
-5 11 -10 5 -10 -5 0 -17 5 -25 10 -8 5 -10 10 -5 10 6 0 17 -5 25 -10z m75
-38 c-3 -3 -11 0 -18 7 -9 10 -8 11 6 5 10 -3 15 -9 12 -12z m55 -12 c13 -9
13 -10 0 -10 -8 0 -22 5 -30 10 -13 9 -13 10 0 10 8 0 22 -5 30 -10z m51 -28
c-7 -2 -18 1 -23 6 -8 8 -4 9 13 5 13 -4 18 -8 10 -11z m125 -45 c4 -4 -14 0
-39 9 -26 9 -49 20 -52 24 -6 9 80 -22 91 -33z m79 -28 c22 -10 29 -16 16 -13
-37 10 -88 33 -71 33 8 0 33 -9 55 -20z"/>
<path d="M12534 6948 l-19 -23 23 19 c21 18 27 26 19 26 -2 0 -12 -10 -23 -22z"/>
<path d="M12425 6848 c-42 -42 -45 -47 -20 -35 36 18 79 62 74 75 -2 6 -26
-12 -54 -40z"/>
</g>
</svg>
