<?xml version="1.0" standalone="no"?>
<!DOCTYPE svg PUBLIC "-//W3C//DTD SVG 20010904//EN"
 "http://www.w3.org/TR/2001/REC-SVG-20010904/DTD/svg10.dtd">
<svg version="1.0" xmlns="http://www.w3.org/2000/svg"
 width="747.000000pt" height="560.000000pt" viewBox="0 0 747.000000 560.000000"
 preserveAspectRatio="xMidYMid meet">

<g transform="translate(0.000000,560.000000) scale(0.100000,-0.100000)"
fill="#000000" stroke="none">
<path d="M1054 4895 c-14 -10 -16 -205 -19 -1758 -1 -961 1 -1749 5 -1752 12
-7 1123 -15 3089 -20 992 -3 1806 -7 1809 -10 6 -5 -34 -7 -133 -7 l-60 0 50
-7 c28 -5 43 -10 35 -12 -8 -2 141 -6 332 -9 311 -4 349 -7 365 -22 24 -24 16
-27 -47 -16 -84 14 -223 18 -237 6 -8 -6 -26 -7 -45 -3 -44 9 -206 7 -227 -4
-9 -5 -25 -5 -36 0 -33 13 -193 10 -215 -3 -16 -10 -24 -10 -40 0 -26 16 -196
15 -222 -2 -10 -6 -18 -18 -19 -26 0 -13 -1 -13 -6 0 -13 32 -38 39 -130 40
-50 0 -95 -4 -98 -10 -6 -10 -52 -11 -70 -1 -5 3 -50 6 -98 6 -70 1 -92 -3
-107 -17 -17 -16 -19 -16 -43 2 -25 20 -67 26 -80 13 -10 -9 -67 -10 -67 0 0
16 -52 5 -74 -16 l-23 -23 -17 23 c-19 25 -45 28 -155 16 -51 -5 -64 -10 -71
-27 -5 -12 -9 -16 -9 -11 -1 6 -15 19 -31 28 -24 15 -46 17 -113 14 -91 -5
-117 -12 -117 -33 0 -8 -4 -14 -10 -14 -5 0 -10 6 -10 13 0 28 -46 40 -129 33
-44 -3 -88 -9 -96 -12 -25 -10 -13 -38 20 -45 17 -4 22 -7 13 -8 -12 -1 -16
-8 -13 -31 2 -16 0 -30 -5 -30 -6 0 -10 11 -10 23 0 14 -17 41 -41 66 l-40 43
-87 -4 c-99 -5 -112 -10 -112 -41 1 -12 -2 -38 -6 -57 l-7 -35 -13 39 c-10 26
-11 43 -4 51 7 8 4 17 -9 29 -17 15 -34 17 -112 14 -79 -4 -95 -8 -110 -26
-20 -26 -29 -28 -29 -7 0 20 -48 31 -71 16 -10 -6 -29 -11 -41 -10 -22 0 -22
1 -3 9 14 6 2 9 -42 9 -52 1 -64 -2 -76 -20 -15 -20 -15 -20 -40 5 -23 23 -35
26 -92 26 -63 0 -89 -14 -42 -23 l22 -4 -23 -2 c-13 0 -30 6 -39 15 -14 14
-18 13 -42 -10 -31 -30 -41 -32 -41 -11 0 27 -39 37 -128 32 -74 -3 -88 -7
-100 -25 -16 -24 -37 -30 -29 -9 3 7 -4 19 -15 26 -27 17 -195 12 -210 -7 -16
-18 -53 -38 -43 -23 4 7 1 18 -5 26 -9 11 -37 15 -111 15 -90 0 -99 -2 -110
-21 -13 -25 2 -41 30 -32 11 3 12 2 4 -4 -6 -4 -14 -20 -18 -34 -3 -14 -12
-26 -19 -26 -8 0 -11 8 -8 19 2 10 8 15 13 12 21 -12 7 15 -16 32 -17 12 -21
22 -14 30 14 17 -21 24 -128 24 -71 0 -95 -4 -108 -16 -9 -9 -14 -23 -11 -30
3 -8 1 -14 -3 -14 -5 0 -14 -13 -20 -30 -5 -17 -15 -30 -20 -30 -13 0 -3 29
18 54 15 18 15 19 -4 12 -17 -6 -17 -4 4 15 l24 22 -24 9 c-12 5 -65 10 -116
12 -89 3 -95 2 -120 -23 -14 -14 -24 -19 -21 -11 9 28 -24 39 -118 40 -78 0
-93 -3 -109 -20 -10 -11 -22 -17 -27 -14 -4 3 -8 2 -7 -3 3 -20 -2 -44 -8 -40
-5 3 -9 -9 -10 -26 -1 -16 -11 -40 -22 -51 -10 -12 -22 -32 -26 -45 -4 -12
-18 -39 -31 -58 -13 -20 -21 -39 -19 -43 3 -5 -6 -25 -20 -45 -13 -21 -22 -41
-20 -45 3 -5 1 -11 -5 -15 -12 -7 -50 -79 -50 -95 0 -7 51 -10 157 -8 l158 3
18 39 c15 32 16 40 5 47 -11 7 -10 11 2 19 10 6 -13 10 -75 13 -50 1 2 3 115
3 132 1 175 -1 120 -5 -47 -4 -91 -10 -98 -14 -13 -9 -35 -49 -46 -84 l-7 -23
145 0 c86 0 147 -4 151 -10 3 -5 11 -10 17 -10 6 0 8 3 5 6 -4 4 2 19 12 33
29 42 31 58 11 76 -15 14 -17 22 -9 42 5 14 7 34 4 44 -5 16 -1 19 25 19 l30
0 -17 -28 c-10 -15 -21 -30 -26 -33 -11 -8 20 -39 40 -39 15 0 15 -2 1 -17
-22 -25 -33 -83 -16 -83 10 0 9 -3 -2 -10 -8 -5 -10 -10 -4 -10 5 0 14 4 20 9
5 5 54 10 109 11 135 2 147 2 140 -10 -9 -14 2 -12 30 6 13 8 27 29 30 45 4
16 12 29 18 29 7 0 4 7 -6 14 -16 13 -16 14 8 18 27 6 45 -9 26 -21 -18 -12
-27 -81 -10 -83 8 0 -6 -4 -31 -8 l-45 -7 53 -1 c33 -1 51 2 47 8 -4 6 44 10
138 10 l145 0 10 39 c6 27 6 43 -1 50 -8 8 -2 11 21 11 33 0 40 -8 22 -26 -5
-5 -11 -25 -12 -44 -3 -30 -7 -36 -33 -40 -16 -3 103 -4 265 -4 173 1 260 -1
210 -5 -47 -4 256 -8 673 -9 699 -1 759 0 777 15 27 24 25 68 -4 98 -13 13
-23 35 -23 50 0 15 -7 31 -14 36 -10 6 -6 9 13 9 22 0 26 -4 24 -23 -5 -42 11
-67 41 -67 21 0 24 -3 14 -9 -12 -8 -13 -18 -4 -54 9 -44 9 -45 -14 -42 -13 1
-26 -2 -29 -6 -3 -5 54 -9 125 -9 81 0 131 4 131 10 0 6 6 10 14 10 23 0 27
15 17 62 -8 35 -7 46 6 60 10 11 12 18 5 18 -7 0 -12 8 -12 18 0 10 -5 23 -12
30 -9 9 -5 12 18 12 28 0 30 -2 26 -35 -2 -19 0 -41 6 -48 7 -8 6 -18 -3 -30
-13 -18 -10 -52 7 -74 10 -12 -6 -28 -20 -19 -4 2 -14 1 -22 -5 -11 -6 -2 -9
28 -9 26 0 41 4 37 10 -3 6 4 10 17 10 18 0 20 -2 8 -10 -10 -7 7 -10 57 -10
39 0 75 5 78 10 3 5 15 10 26 10 11 0 17 -4 14 -10 -4 -7 40 -9 127 -8 108 1
121 3 68 8 l-65 7 76 1 c42 1 79 -1 83 -6 11 -10 106 -10 106 1 0 5 60 7 138
3 75 -3 157 -5 181 -5 827 1 1071 5 1082 16 13 13 5 35 -30 93 -17 29 -71 148
-71 158 0 5 -7 15 -15 22 -19 16 -20 31 -1 24 21 -8 25 6 31 87 7 102 10 118
23 131 18 18 15 56 -5 61 -10 3 -3 5 15 6 l32 1 0 1759 c0 1395 -3 1761 -12
1769 -19 15 -5574 12 -5594 -3z m5494 -1712 l4 -1533 -2701 0 -2701 0 0 1535
0 1535 2698 -2 2697 -3 3 -1532z m-2792 -1632 c5 -6 25 -5 52 2 33 9 45 9 51
-1 5 -9 14 -9 39 0 24 9 39 10 61 1 17 -6 35 -7 42 -2 19 12 76 12 64 0 -6 -5
-21 -11 -34 -13 -17 -2 -27 -13 -35 -37 -14 -43 -40 -56 -30 -15 6 23 4 26
-10 21 -10 -4 -31 -7 -47 -7 -42 0 -39 -30 4 -31 25 -1 27 -3 8 -6 -12 -3 -34
-2 -48 2 -23 5 -25 10 -20 40 5 31 3 35 -17 35 -28 0 -59 -32 -50 -53 3 -9 18
-18 32 -20 22 -3 20 -4 -8 -6 -20 0 -41 4 -47 10 -8 8 -13 8 -17 0 -9 -14
-103 -14 -111 -1 -11 18 14 38 56 45 49 8 51 25 3 25 -21 0 -33 4 -29 10 8 13
78 13 91 1z m2177 -218 c-13 -2 -33 -2 -45 0 -13 2 -3 4 22 4 25 0 35 -2 23
-4z m-3763 -63 c0 -5 -6 -10 -14 -10 -8 0 -18 5 -21 10 -3 6 3 10 14 10 12 0
21 -4 21 -10z m570 -6 c0 -2 -15 -4 -32 -3 -27 0 -29 2 -13 8 18 8 45 4 45 -5z
m1010 6 c0 -5 -12 -10 -27 -9 l-28 1 25 8 c14 4 26 8 28 9 1 1 2 -3 2 -9z
m255 0 c3 -6 -4 -10 -17 -10 -18 0 -20 2 -8 10 19 12 18 12 25 0z m-1338 -6
c-3 -3 -12 -4 -19 -1 -8 3 -5 6 6 6 11 1 17 -2 13 -5z m338 -4 c-3 -5 -15 -10
-25 -10 -10 0 -22 5 -25 10 -4 6 7 10 25 10 18 0 29 -4 25 -10z m1268 3 c-7
-2 -21 -2 -30 0 -10 3 -4 5 12 5 17 0 24 -2 18 -5z m894 -15 c-3 -8 -6 -5 -6
6 -1 11 2 17 5 13 3 -3 4 -12 1 -19z m-3727 -18 c0 -5 -4 -10 -9 -10 -6 0 -13
5 -16 10 -3 6 1 10 9 10 9 0 16 -4 16 -10z m413 3 c-7 -2 -19 -2 -25 0 -7 3
-2 5 12 5 14 0 19 -2 13 -5z m287 -3 c0 -5 -5 -10 -11 -10 -5 0 -7 5 -4 10 3
6 8 10 11 10 2 0 4 -4 4 -10z m235 -2 c3 -3 -1 -11 -9 -17 -8 -7 -12 -19 -9
-27 3 -8 -1 -14 -11 -14 -19 0 -21 11 -5 27 8 8 8 13 0 17 -18 12 -12 26 9 23
11 -2 22 -6 25 -9z m302 -31 c-6 -19 -17 -34 -24 -34 -16 0 -17 14 -2 19 9 3
9 10 0 26 -11 20 -9 22 12 22 23 0 23 -2 14 -33z m96 26 c-7 -2 -19 -2 -25 0
-7 3 -2 5 12 5 14 0 19 -2 13 -5z m213 -27 c-6 -19 -14 -32 -18 -30 -12 8 -9
34 4 34 6 0 3 7 -8 15 -18 14 -18 14 7 15 25 0 26 -1 15 -34z m320 25 c-5 -8
-56 -3 -56 5 0 2 14 4 31 4 16 0 28 -4 25 -9z m81 3 c-3 -3 -12 -4 -19 -1 -8
3 -5 6 6 6 11 1 17 -2 13 -5z m310 0 c-3 -3 -12 -4 -19 -1 -8 3 -5 6 6 6 11 1
17 -2 13 -5z m517 -10 c-10 -8 -14 -13 -8 -10 7 3 14 -5 16 -19 8 -38 -16 -30
-28 10 -11 34 -10 35 14 35 25 0 25 0 6 -16z m300 3 c8 -8 10 -20 5 -32 -7
-20 -8 -20 -8 1 -1 11 -6 25 -13 32 -7 7 -9 12 -4 12 4 0 13 -6 20 -13z m333
7 c-3 -3 -12 -4 -19 -1 -8 3 -5 6 6 6 11 1 17 -2 13 -5z m-3417 -34 c-6 -11
-15 -18 -20 -15 -6 4 -5 12 3 20 18 21 29 18 17 -5z m1860 -5 c0 -14 -4 -25
-10 -25 -5 0 -10 11 -10 25 0 14 5 25 10 25 6 0 10 -11 10 -25z m1550 14 c0
-15 -18 -19 -23 -6 -3 8 1 14 9 14 8 0 14 -4 14 -8z m-1940 -3 c0 -2 -7 -6
-15 -10 -8 -3 -15 -1 -15 4 0 6 7 10 15 10 8 0 15 -2 15 -4z m780 0 c0 -3 -4
-8 -10 -11 -5 -3 -10 -1 -10 4 0 6 5 11 10 11 6 0 10 -2 10 -4z m-2122 -62
c-13 -25 -24 -40 -26 -34 -3 7 1 17 7 23 7 7 5 14 -7 23 -16 12 -15 13 6 14
12 0 22 5 22 10 0 6 4 10 10 10 5 0 0 -21 -12 -46z m314 3 c-12 -13 -22 -32
-22 -42 0 -34 -13 -6 -14 30 -1 32 1 35 28 35 l29 0 -21 -23z m308 -14 c-18
-39 -44 -55 -30 -18 5 14 7 32 4 40 -5 11 0 14 18 13 23 -2 23 -3 8 -35z m318
13 c-10 -7 -15 -16 -11 -19 3 -4 2 -7 -4 -7 -6 0 -13 9 -16 20 -4 16 0 20 21
20 25 -1 25 -2 10 -14z m79 8 c-3 -3 -12 -4 -19 -1 -8 3 -5 6 6 6 11 1 17 -2
13 -5z m247 -2 c-6 -4 -14 -19 -17 -33 -9 -38 -32 -32 -32 8 0 30 3 33 30 33
17 0 25 -4 19 -8z m310 0 c-6 -4 -14 -19 -18 -34 -3 -16 -11 -28 -16 -28 -6 0
-8 11 -4 26 4 17 2 29 -7 35 -10 6 -3 9 21 9 19 0 30 -4 24 -8z m312 -8 c-9
-8 -16 -24 -16 -35 0 -33 -18 -21 -22 16 -4 33 -2 35 25 35 26 0 27 -1 13 -16z
m317 9 c-7 -2 -13 -18 -13 -34 0 -16 -4 -29 -9 -29 -5 0 -8 13 -7 29 1 17 -1
28 -5 25 -4 -2 -10 0 -14 6 -4 6 7 10 27 9 18 0 27 -3 21 -6z m297 -2 c0 -5 3
-23 6 -40 5 -25 3 -31 -10 -31 -12 0 -16 8 -14 28 1 15 -1 33 -6 40 -4 7 -1
12 8 12 9 0 16 -4 16 -9z m328 2 c-13 -3 -16 -11 -11 -34 3 -18 1 -29 -5 -29
-6 0 -9 7 -5 15 3 9 -3 25 -12 35 -18 20 -17 20 16 19 19 -1 26 -3 17 -6z
m287 -4 c11 -16 1 -19 -13 -3 -7 8 -8 14 -3 14 5 0 13 -5 16 -11z m1495 -3 c0
-2 -7 -6 -15 -10 -8 -3 -15 -1 -15 4 0 6 7 10 15 10 8 0 15 -2 15 -4z m-1480
-46 c0 -5 -5 -10 -11 -10 -5 0 -7 5 -4 10 3 6 8 10 11 10 2 0 4 -4 4 -10z
m-3068 -7 c-6 -2 -10 -9 -6 -14 3 -5 -2 -9 -10 -9 -9 0 -15 -3 -14 -7 2 -13
-14 -63 -21 -63 -4 0 -7 9 -8 20 -1 11 2 18 8 15 5 -4 8 4 6 16 -5 28 11 48
38 48 11 0 14 -3 7 -6z m323 -3 c-11 -5 -15 -9 -10 -10 6 0 1 -6 -10 -13 -19
-11 -27 -27 -28 -53 0 -6 -6 -11 -12 -11 -9 0 -9 10 0 39 12 43 29 58 60 57
l20 0 -20 -9z m297 -13 c-1 -4 -5 -21 -9 -37 -3 -17 -9 -33 -14 -35 -13 -8
-22 15 -10 28 6 8 6 18 1 27 -5 8 -7 17 -4 21 5 9 40 5 36 -4z m321 -4 c-7 -2
-13 -17 -13 -33 0 -15 -6 -30 -13 -33 -9 -3 -13 6 -12 34 0 35 3 39 25 38 14
0 19 -3 13 -6z m316 -9 c-8 -9 -12 -27 -11 -39 2 -14 -2 -22 -13 -22 -8 0 -15
7 -15 14 0 8 5 11 12 7 8 -5 9 -2 5 9 -4 10 -10 24 -13 32 -5 11 1 15 21 15
24 0 26 -2 14 -16z m323 4 c-7 -7 -12 -22 -12 -34 0 -24 -15 -40 -24 -26 -2 4
-1 14 4 22 6 10 3 21 -7 32 -15 17 -14 18 17 18 27 0 31 -3 22 -12z m320 0
c-7 -7 -12 -25 -12 -40 0 -15 -5 -28 -11 -28 -6 0 -9 12 -7 28 2 15 -3 32 -12
39 -12 10 -9 12 20 13 26 0 31 -3 22 -12z m313 -6 c-3 -7 -5 -25 -5 -38 0 -13
-4 -24 -10 -24 -5 0 -10 14 -10 30 0 17 -5 30 -11 30 -5 0 -8 4 -5 8 8 14 47
9 41 -6z m638 -7 c-3 -11 -6 -28 -5 -37 0 -10 -4 -20 -9 -24 -5 -3 -8 8 -7 27
1 19 -3 34 -10 37 -21 7 -13 17 13 17 20 0 24 -4 18 -20z m317 -10 c0 -5 -5
-3 -10 5 -5 8 -10 20 -10 25 0 6 5 3 10 -5 5 -8 10 -19 10 -25z m-635 -15 c0
-31 -4 -40 -17 -40 -14 0 -15 5 -7 32 5 18 9 34 9 35 0 1 -8 4 -17 6 -12 3
-10 5 7 6 23 1 25 -3 25 -39z m963 -25 c-3 -3 -9 2 -12 12 -6 14 -5 15 5 6 7
-7 10 -15 7 -18z m-3048 -14 c0 -6 -4 -12 -9 -16 -5 -3 -12 -19 -16 -35 -5
-22 -12 -30 -28 -30 -13 0 -17 3 -11 8 15 10 24 51 13 58 -19 11 -8 24 21 24
17 0 30 -4 30 -9z m320 6 c-2 -24 -32 -83 -44 -85 -13 -3 -14 1 -4 29 9 25 8
34 0 37 -23 7 -12 19 18 20 17 0 30 0 30 -1z m322 -6 c4 -1 0 -13 -8 -28 -7
-16 -14 -34 -14 -40 0 -7 -6 -13 -12 -13 -9 0 -13 16 -13 45 0 39 2 44 20 40
11 -2 23 -4 27 -4z m-565 -7 c-3 -3 -12 -4 -19 -1 -8 3 -5 6 6 6 11 1 17 -2
13 -5z m883 -13 c-5 -11 -10 -29 -10 -40 0 -12 -6 -21 -14 -21 -10 0 -14 12
-13 40 2 34 5 40 25 40 19 0 21 -3 12 -19z m90 11 c0 -5 -7 -9 -15 -9 -8 0
-15 4 -15 9 0 4 7 8 15 8 8 0 15 -4 15 -8z m242 -4 c-7 -7 -12 -25 -12 -40 0
-20 -5 -28 -17 -28 -14 0 -18 9 -18 40 0 38 2 40 30 40 22 0 26 -3 17 -12z
m322 -15 c-4 -15 -7 -33 -7 -40 0 -7 -8 -13 -17 -13 -13 0 -16 6 -12 25 2 14
-1 32 -8 40 -11 13 -8 15 19 15 29 0 31 -2 25 -27z m1293 16 c-12 -7 -15 -15
-9 -22 19 -25 21 -45 3 -50 -12 -3 -17 3 -19 20 -1 13 -7 33 -12 44 -10 17 -7
19 22 19 28 -1 30 -2 15 -11z m-964 -6 c-7 -2 -13 -20 -13 -39 0 -25 -4 -34
-17 -34 -9 0 -14 2 -11 6 3 3 2 21 -2 40 -8 33 -7 34 24 33 17 0 25 -3 19 -6z
m-2845 -50 c-10 -2 -26 -2 -35 0 -10 3 -2 5 17 5 19 0 27 -2 18 -5z m3766 -48
c-3 -13 -1 -38 4 -55 11 -31 2 -47 -20 -33 -16 10 -18 64 -3 55 5 -3 4 1 -3
10 -10 13 -10 17 0 21 9 4 7 6 -4 6 -31 2 -30 21 2 21 27 0 30 -2 24 -25z
m286 15 c0 -5 -5 -9 -11 -7 -6 1 -14 -4 -16 -10 -3 -7 0 -13 6 -13 6 0 11 -4
11 -10 0 -5 -7 -10 -17 -10 -9 0 -13 3 -10 7 4 3 0 17 -8 30 -15 22 -15 23 15
23 16 0 30 -4 30 -10z m362 -2 c-17 -8 -26 -8 -34 0 -9 9 -4 12 23 11 32 0 33
-1 11 -11z m-1480 -10 c-10 -13 -10 -67 1 -84 3 -6 -9 -11 -26 -11 -18 -1 -26
1 -19 3 15 7 16 76 0 92 -9 9 -5 12 21 12 26 0 31 -3 23 -12z m-2164 -10 c-5
-14 -88 -22 -88 -8 0 11 12 14 56 18 25 1 34 -2 32 -10z m2529 -20 c-3 -8 -6
-5 -6 6 -1 11 2 17 5 13 3 -3 4 -12 1 -19z m48 4 c-3 -3 -11 0 -18 7 -9 10 -8
11 6 5 10 -3 15 -9 12 -12z m1361 -40 c0 -10 -6 -19 -13 -19 -8 0 -9 6 -2 19
5 10 11 18 12 18 2 0 3 -8 3 -18z m-4308 1 c-32 -2 -84 -2 -115 0 -32 2 -6 3
57 3 63 0 89 -1 58 -3z m240 0 c-10 -2 -26 -2 -35 0 -10 3 -2 5 17 5 19 0 27
-2 18 -5z m3411 -7 c10 -11 7 -14 -12 -12 -15 0 -23 6 -20 14 7 16 18 15 32
-2z m376 5 c-3 -5 5 -12 17 -14 16 -3 13 -5 -11 -6 -29 -1 -32 1 -21 14 14 16
25 21 15 6z m840 -10 c-3 -6 -11 -11 -17 -11 -6 0 -6 6 2 15 14 17 26 13 15
-4z m-2008 -17 c-3 -3 -12 -4 -19 -1 -8 3 -5 6 6 6 11 1 17 -2 13 -5z m386 -1
c-13 -2 -35 -2 -50 0 -16 2 -5 4 22 4 28 0 40 -2 28 -4z m190 0 c-7 -2 -19 -2
-25 0 -7 3 -2 5 12 5 14 0 19 -2 13 -5z"/>
<path d="M4440 4476 c0 -3 16 -21 36 -39 l36 -33 -93 4 c-132 6 -321 -39 -373
-87 -12 -12 -26 -21 -31 -21 -17 0 -135 -62 -135 -71 0 -5 -7 -9 -16 -9 -9 0
-29 -11 -46 -25 -16 -14 -35 -25 -41 -25 -7 0 -26 -13 -42 -29 -17 -15 -41
-34 -54 -40 -33 -18 -18 -26 16 -9 408 209 546 259 710 257 95 -1 118 -14 30
-16 -83 -3 -189 -26 -265 -60 -28 -12 -55 -22 -58 -22 -4 0 -10 -3 -13 -8 -3
-4 -23 -17 -45 -28 -53 -27 -28 -31 40 -5 31 11 58 19 61 17 2 -3 -11 -10 -29
-17 -50 -19 -100 -41 -125 -53 -38 -18 -18 -19 28 -2 24 9 105 32 179 52 118
30 151 35 258 36 67 0 125 -2 128 -5 3 -3 -35 -12 -83 -19 l-88 -13 45 -9 c25
-5 61 -15 80 -23 34 -13 32 -14 -40 -10 -41 3 -65 2 -52 0 43 -10 22 -38 -36
-48 -56 -10 -64 -19 -31 -36 64 -35 139 -131 139 -179 0 -19 8 -21 108 -23
l107 -3 0 -1025 0 -1025 -889 -3 c-490 -1 -894 2 -898 6 -5 5 -8 75 -9 157 0
82 -2 152 -5 157 -8 12 -84 -30 -90 -50 -12 -37 -34 -82 -41 -82 -5 0 -9 58
-10 130 -2 123 -1 131 21 157 22 26 25 26 65 15 34 -11 41 -17 42 -40 1 -24 2
-24 10 8 12 47 10 488 -2 495 -5 4 -9 -1 -9 -9 0 -13 -15 -16 -84 -16 -66 0
-104 -6 -174 -29 -249 -82 -513 -258 -592 -396 -19 -34 -31 -71 -35 -115 -8
-84 -26 -150 -41 -150 -7 0 -24 19 -38 43 -14 23 -25 37 -26 30 0 -6 5 -15 10
-18 5 -3 10 -13 10 -22 0 -24 102 -143 195 -228 l84 -76 1522 -2 1522 -2 21
33 c12 18 55 56 96 84 273 188 379 352 380 585 0 137 -39 247 -125 355 -56 70
-252 205 -340 233 -87 29 -305 28 -387 -2 -32 -11 -58 -19 -58 -17 0 1 20 36
44 78 111 187 168 377 168 561 1 123 -13 190 -59 297 -67 155 -160 270 -290
357 -65 44 -198 106 -245 115 -15 2 -32 7 -38 11 -5 3 -10 4 -10 1z m-155
-215 c-10 -8 -97 -32 -112 -30 -8 1 95 36 112 38 6 1 6 -2 0 -8z m524 -301 c0
-10 -3 -8 -9 5 -12 27 -12 43 0 25 5 -8 9 -22 9 -30z m11 -151 c-7 -38 -14
-69 -16 -69 -3 0 -3 28 0 63 3 34 6 80 6 102 l2 40 10 -34 c6 -23 6 -56 -2
-102z m-33 -131 c-3 -8 -6 -5 -6 6 -1 11 2 17 5 13 3 -3 4 -12 1 -19z m303
-1530 c0 -11 -22 -10 -39 1 -10 7 -7 9 12 8 15 -1 27 -5 27 -9z m57 6 c-3 -3
-12 -4 -19 -1 -8 3 -5 6 6 6 11 1 17 -2 13 -5z m-186 -23 c-11 -7 -10 -10 4
-12 11 -3 -2 -11 -33 -21 -29 -9 -52 -12 -52 -7 0 5 6 9 13 9 8 0 7 4 -3 11
-12 9 -11 10 7 6 12 -3 30 1 40 9 10 7 23 13 28 14 6 0 4 -4 -4 -9z m-114 -57
c-3 -3 -12 -4 -19 -1 -8 3 -5 6 6 6 11 1 17 -2 13 -5z"/>
<path d="M3990 4180 c0 -5 5 -10 10 -10 6 0 10 5 10 10 0 6 -4 10 -10 10 -5 0
-10 -4 -10 -10z"/>
<path d="M4206 4052 c-3 -2 -19 -7 -37 -11 l-32 -6 58 -30 c55 -28 135 -96
135 -116 0 -5 43 -9 95 -9 95 0 108 5 80 34 -8 8 -15 21 -15 30 0 32 -24 64
-64 87 -34 20 -56 24 -128 25 -49 0 -90 -1 -92 -4z"/>
<path d="M3895 3925 c-38 -7 -77 -15 -85 -19 -8 -3 -42 -10 -75 -15 -42 -6 36
-9 263 -10 l324 -1 -24 29 c-25 32 -48 40 -48 16 0 -8 -4 -15 -9 -15 -5 0 -14
7 -21 15 -16 19 -219 19 -325 0z"/>
<path d="M3115 3895 l-80 -12 96 -2 c78 -1 98 2 103 14 6 18 -5 18 -119 0z"/>
<path d="M3365 3890 c-18 -8 -17 -9 8 -9 16 -1 26 3 22 9 -3 6 -7 10 -8 9 -1
0 -11 -4 -22 -9z"/>
<path d="M2946 3881 c-3 -4 6 -6 19 -3 14 2 25 6 25 8 0 8 -39 4 -44 -5z"/>
<path d="M2931 3838 c-1 -21 -8 -29 -36 -38 -19 -6 -43 -23 -54 -36 -11 -14
-22 -24 -24 -22 -2 2 -17 -13 -33 -32 -16 -19 -35 -41 -41 -48 -19 -20 -16
-60 5 -66 9 -3 43 -31 75 -61 38 -36 66 -55 82 -55 20 0 25 -5 26 -27 1 -22 3
-20 9 12 10 50 10 341 -1 375 l-7 25 -1 -27z m-30 -90 c-61 -59 -61 -94 -2
-133 17 -11 31 -23 31 -28 0 -11 -54 18 -70 38 -19 22 -16 86 4 101 9 6 16 14
16 18 0 10 44 45 49 40 3 -2 -10 -19 -28 -36z"/>
<path d="M2558 3564 c-16 -8 -28 -19 -28 -25 0 -6 5 -7 10 -4 6 3 10 1 10 -4
0 -7 24 -11 58 -11 73 0 124 -14 161 -45 25 -22 32 -23 60 -14 30 11 31 12 16
29 -18 20 -82 45 -157 63 -27 6 -48 15 -48 19 0 13 -53 8 -82 -8z"/>
<path d="M3130 3552 c0 -4 14 -9 32 -10 37 -3 35 2 -4 12 -16 3 -28 3 -28 -2z"/>
<path d="M3220 3550 c-23 -7 -23 -8 -3 -9 12 -1 25 4 28 9 3 6 5 10 3 9 -2 -1
-14 -5 -28 -9z"/>
<path d="M2394 3518 c-10 -12 -13 -18 -6 -14 29 17 9 -4 -23 -24 -43 -27 -45
-41 -4 -36 18 2 46 -5 70 -18 42 -23 53 -43 17 -31 -13 5 -55 10 -93 12 -67 4
-71 3 -95 -24 -19 -21 -20 -23 -3 -10 12 11 24 14 27 9 3 -6 0 -13 -6 -15 -10
-4 -9 -8 2 -16 9 -6 16 -7 18 -1 5 13 32 13 32 0 0 -5 7 -10 15 -10 8 0 15 -4
15 -10 0 -5 18 -10 40 -10 28 0 40 -4 40 -14 0 -8 -6 -17 -12 -19 -7 -3 -3 -6
9 -6 12 -1 30 -11 40 -23 16 -21 27 -23 105 -23 56 0 91 4 99 13 7 6 21 12 32
12 10 0 16 4 13 9 -3 5 -15 7 -26 4 -18 -5 -20 0 -20 39 0 31 7 54 21 72 11
15 19 33 16 40 -4 9 0 12 13 9 29 -8 51 9 37 27 -15 20 -93 43 -110 33 -6 -4
-58 -7 -114 -8 l-103 0 -9 28 c-12 33 -13 33 -37 5z"/>
<path d="M3696 3415 c4 -16 2 -25 -6 -25 -7 0 -10 7 -6 15 3 8 1 15 -4 15 -15
0 -12 -29 4 -46 14 -14 57 -19 68 -9 8 9 -3 55 -14 55 -5 0 -6 -5 -2 -12 4 -7
3 -8 -4 -4 -7 4 -12 14 -12 22 0 8 -7 14 -15 14 -11 0 -14 -7 -9 -25z"/>
<path d="M4227 3428 c-15 -11 -12 -13 23 -13 41 0 52 8 24 19 -22 8 -28 8 -47
-6z"/>
<path d="M4480 3431 c0 -5 18 -11 40 -13 28 -2 40 0 40 9 0 8 -14 13 -40 13
-22 0 -40 -4 -40 -9z"/>
<path d="M3146 3417 c-26 -19 -5 -57 29 -57 30 0 33 16 4 23 -16 4 -19 11 -14
26 7 25 5 26 -19 8z"/>
<path d="M3413 3423 c-33 -13 -1 -63 41 -63 31 0 37 10 28 41 -7 24 -40 34
-69 22z m27 -23 c0 -5 -7 -10 -15 -10 -8 0 -15 5 -15 10 0 6 7 10 15 10 8 0
15 -4 15 -10z"/>
<path d="M3965 3420 c3 -5 3 -15 -1 -22 -5 -8 -10 -6 -15 8 -7 18 -8 18 -8 -2
-1 -26 38 -46 62 -32 21 11 22 28 3 28 -8 0 -16 7 -20 15 -3 8 -10 15 -16 15
-6 0 -8 -4 -5 -10z"/>
<path d="M4217 3393 c-10 -9 -9 -33 1 -33 4 0 8 9 8 20 0 23 0 22 -9 13z"/>
<path d="M4546 3384 c-5 -13 -14 -15 -39 -10 -23 4 -28 3 -17 -4 8 -5 27 -10
43 -10 20 0 27 5 27 20 0 24 -6 26 -14 4z"/>
<path d="M2933 3355 c0 -22 2 -30 4 -17 2 12 2 30 0 40 -3 9 -5 -1 -4 -23z"/>
<path d="M4246 3375 c4 -8 15 -15 27 -15 23 0 22 2 -10 19 -19 10 -22 9 -17
-4z"/>
<path d="M4258 3313 c7 -3 16 -2 19 1 4 3 -2 6 -13 5 -11 0 -14 -3 -6 -6z"/>
<path d="M4498 3313 c7 -3 16 -2 19 1 4 3 -2 6 -13 5 -11 0 -14 -3 -6 -6z"/>
<path d="M2931 3173 c-1 -60 -2 -63 -25 -63 -14 0 -28 -5 -32 -11 -3 -6 -26
-20 -50 -31 -24 -10 -44 -23 -44 -28 0 -5 -22 -21 -50 -35 -44 -22 -79 -49
-141 -107 -11 -10 -24 -18 -30 -18 -16 0 -48 -42 -49 -62 0 -10 -7 -18 -15
-18 -9 0 -15 -9 -15 -21 0 -12 -8 -23 -20 -26 -11 -3 -20 -12 -20 -19 0 -8 -5
-14 -12 -14 -9 0 -9 -3 -1 -11 12 -12 31 -7 110 27 101 45 160 57 283 60 l125
4 3 127 c1 71 -2 169 -7 218 -8 86 -8 87 -10 28z"/>
<path d="M4480 3166 l0 -46 46 0 45 0 -3 43 c-3 42 -3 42 -45 45 l-43 3 0 -45z
m24 13 c-3 -6 4 -7 19 -4 26 7 44 -16 30 -38 -4 -7 -9 -3 -14 9 -7 17 -8 17
-8 2 -1 -11 -9 -18 -21 -18 -16 0 -20 7 -20 36 0 21 4 33 10 29 6 -4 8 -11 4
-16z"/>
<path d="M3134 3186 c-3 -8 -4 -25 -2 -38 2 -19 10 -24 41 -26 l38 -3 -3 38
c-3 35 -6 38 -36 41 -21 2 -34 -2 -38 -12z m56 -37 c0 -5 -7 -9 -15 -9 -9 0
-12 6 -9 15 6 15 24 11 24 -6z"/>
<path d="M3470 3184 c0 -12 -6 -15 -24 -10 -15 4 -28 0 -36 -9 -20 -24 -4 -45
33 -45 33 0 34 1 34 40 0 22 -1 40 -3 40 -2 0 -4 -7 -4 -16z"/>
<path d="M2294 3176 c-6 -6 -29 -26 -53 -45 -30 -25 -38 -37 -29 -42 9 -6 6
-9 -9 -9 -20 0 -34 -14 -71 -66 -7 -11 -10 -13 -6 -5 4 9 3 12 -4 8 -5 -4 -9
-15 -7 -25 13 -62 17 -72 31 -72 8 0 12 -4 9 -10 -18 -29 138 -12 243 26 l42
16 -19 26 c-10 15 -39 67 -65 117 -26 49 -48 91 -49 91 -1 1 -7 -3 -13 -10z"/>
<path d="M3677 3183 c-13 -12 -7 -41 9 -47 22 -9 34 1 34 30 0 17 -6 24 -18
24 -10 0 -22 -3 -25 -7z m23 -23 c0 -5 -2 -10 -4 -10 -3 0 -8 5 -11 10 -3 6
-1 10 4 10 6 0 11 -4 11 -10z"/>
<path d="M3739 3182 c-4 -40 -2 -52 6 -52 6 1 8 13 7 28 -4 29 -11 43 -13 24z"/>
<path d="M4215 3170 c-10 -17 27 -41 42 -28 16 13 17 32 3 23 -6 -4 -17 -2
-25 5 -10 8 -15 8 -20 0z"/>
<path d="M3960 3138 c0 -13 7 -18 26 -18 18 0 25 5 22 17 -4 24 -48 25 -48 1z"/>
<path d="M3700 3080 c-12 -7 -10 -9 7 -7 12 0 19 5 17 9 -6 10 -6 10 -24 -2z"/>
<path d="M2095 2980 c-3 -5 -1 -18 4 -27 9 -16 10 -14 11 10 0 28 -5 34 -15
17z"/>
<path d="M3456 2957 c3 -10 9 -15 12 -12 3 3 0 11 -7 18 -10 9 -11 8 -5 -6z"/>
<path d="M3708 2963 c-36 -4 -38 -6 -38 -38 0 -29 3 -33 24 -31 14 2 31 9 38
17 15 15 30 60 20 57 -4 -1 -24 -3 -44 -5z m2 -43 c0 -5 -4 -10 -9 -10 -6 0
-13 5 -16 10 -3 6 1 10 9 10 9 0 16 -4 16 -10z"/>
<path d="M3960 2959 c0 -5 5 -7 10 -4 6 3 10 8 10 11 0 2 -4 4 -10 4 -5 0 -10
-5 -10 -11z"/>
<path d="M4001 2939 c13 -25 -1 -40 -32 -32 -10 3 -19 1 -19 -4 0 -13 49 -8
62 5 12 12 1 52 -13 52 -6 0 -5 -9 2 -21z"/>
<path d="M4210 2920 l0 -40 44 0 c43 0 45 1 44 30 -1 21 -5 29 -14 26 -7 -3
-20 1 -28 9 -28 28 -46 18 -46 -25z m48 8 c16 -16 15 -25 -2 -31 -9 -4 -16 3
-19 19 -5 26 2 31 21 12z"/>
<path d="M3165 2929 c-10 -15 3 -25 16 -12 7 7 7 13 1 17 -6 3 -14 1 -17 -5z"/>
<path d="M3192 2910 c-7 -11 -8 -20 -3 -20 9 0 24 30 18 36 -1 2 -8 -6 -15
-16z"/>
<path d="M3450 2900 c0 -11 5 -20 10 -20 6 0 10 9 10 20 0 11 -4 20 -10 20 -5
0 -10 -9 -10 -20z"/>
<path d="M4480 2895 c0 -11 11 -15 40 -15 29 0 40 4 40 15 0 13 -3 13 -20 3
-16 -10 -24 -10 -40 0 -17 10 -20 10 -20 -3z"/>
<path d="M2085 2840 c4 -6 10 -8 15 -5 5 3 12 0 16 -6 4 -8 3 -9 -4 -5 -17 10
-16 5 19 -65 60 -124 74 -150 96 -171 l22 -21 52 42 c28 22 56 41 61 41 5 0 4
8 -1 19 -6 11 -26 21 -52 25 -23 4 -50 16 -59 26 -10 11 -34 27 -53 35 -25 10
-43 28 -57 55 -14 27 -27 40 -41 40 -11 0 -17 -5 -14 -10z"/>
<path d="M3395 2840 c-3 -5 -1 -10 4 -10 6 0 11 5 11 10 0 6 -2 10 -4 10 -3 0
-8 -4 -11 -10z"/>
<path d="M3465 2840 c-3 -5 -1 -10 4 -10 6 0 11 5 11 10 0 6 -2 10 -4 10 -3 0
-8 -4 -11 -10z"/>
<path d="M3675 2840 c-2 -3 5 -6 15 -7 11 -1 22 2 24 5 3 4 -4 8 -15 8 -11 0
-22 -3 -24 -6z"/>
<path d="M4166 2838 c3 -5 10 -6 15 -3 13 9 11 12 -6 12 -8 0 -12 -4 -9 -9z"/>
<path d="M2376 2691 c-3 -5 1 -14 9 -21 10 -9 15 -9 15 -1 0 6 -5 11 -11 11
-5 0 -7 5 -4 10 3 6 4 10 1 10 -3 0 -7 -4 -10 -9z"/>
<path d="M3130 2640 c0 -5 12 -10 28 -9 24 0 25 1 7 9 -27 12 -35 12 -35 0z"/>
<path d="M3340 2638 c0 -5 11 -8 25 -8 14 0 25 3 25 8 0 4 -11 7 -25 7 -14 0
-25 -3 -25 -7z"/>
<path d="M3283 2633 c9 -2 25 -2 35 0 9 3 1 5 -18 5 -19 0 -27 -2 -17 -5z"/>
<path d="M3155 2520 c3 -5 8 -10 11 -10 2 0 4 5 4 10 0 6 -5 10 -11 10 -5 0
-7 -4 -4 -10z"/>
<path d="M3275 2510 c-3 -5 -2 -10 4 -10 5 0 13 5 16 10 3 6 2 10 -4 10 -5 0
-13 -4 -16 -10z"/>
<path d="M3380 2509 c0 -5 5 -7 10 -4 6 3 10 8 10 11 0 2 -4 4 -10 4 -5 0 -10
-5 -10 -11z"/>
<path d="M3946 2512 c-3 -3 -6 -14 -6 -24 0 -13 7 -18 25 -18 18 0 25 5 25 19
0 18 -33 35 -44 23z m34 -22 c0 -5 -7 -10 -15 -10 -8 0 -15 5 -15 10 0 6 7 10
15 10 8 0 15 -4 15 -10z"/>
<path d="M3130 2486 c0 -32 32 -51 60 -36 11 6 20 20 20 31 0 11 -4 18 -10 14
-5 -3 -7 -11 -4 -19 3 -9 -5 -13 -26 -13 -24 0 -29 4 -25 18 3 9 1 20 -5 24
-6 4 -10 -4 -10 -19z"/>
<path d="M3418 2353 c7 -3 16 -2 19 1 4 3 -2 6 -13 5 -11 0 -14 -3 -6 -6z"/>
<path d="M3944 2345 c-8 -20 4 -35 27 -35 23 0 26 35 3 44 -22 8 -24 8 -30 -9z
m23 -17 c-3 -8 -6 -5 -6 6 -1 11 2 17 5 13 3 -3 4 -12 1 -19z"/>
<path d="M4305 2349 c-3 -4 2 -6 10 -5 21 3 28 13 10 13 -9 0 -18 -4 -20 -8z"/>
<path d="M3132 2332 c-7 -18 10 -28 45 -26 20 0 28 6 28 19 0 14 -8 18 -34 19
-20 1 -36 -5 -39 -12z m51 -9 c-7 -2 -21 -2 -30 0 -10 3 -4 5 12 5 17 0 24 -2
18 -5z"/>
<path d="M1930 2181 c0 -17 2 -31 4 -31 8 0 13 51 5 56 -5 3 -9 -9 -9 -25z"/>
<path d="M4340 2200 c0 -5 5 -10 11 -10 5 0 7 5 4 10 -3 6 -8 10 -11 10 -2 0
-4 -4 -4 -10z"/>
<path d="M3134 2185 c-4 -9 -2 -21 4 -27 15 -15 44 -1 40 19 -4 23 -36 29 -44
8z m23 -17 c-3 -8 -6 -5 -6 6 -1 11 2 17 5 13 3 -3 4 -12 1 -19z"/>
<path d="M3295 2190 c3 -5 8 -10 11 -10 2 0 4 5 4 10 0 6 -5 10 -11 10 -5 0
-7 -4 -4 -10z"/>
<path d="M3518 2193 c7 -3 16 -2 19 1 4 3 -2 6 -13 5 -11 0 -14 -3 -6 -6z"/>
<path d="M3943 2184 c-3 -8 -2 -19 3 -24 5 -5 9 1 9 16 0 28 -3 30 -12 8z"/>
<path d="M3974 2179 c0 -10 4 -19 8 -19 4 0 8 6 8 14 0 8 -4 17 -8 20 -4 2 -8
-4 -8 -15z"/>
<path d="M3184 1944 c9 -31 -3 -57 -19 -44 -15 13 -30 -3 -20 -20 11 -19 43
-10 60 16 16 25 16 27 -5 48 l-22 21 6 -21z"/>
<path d="M3140 1935 c-8 -9 -8 -15 -2 -15 12 0 26 19 19 26 -2 2 -10 -2 -17
-11z"/>
<path d="M3366 1912 c-3 -5 1 -9 9 -9 8 0 12 4 9 9 -3 4 -7 8 -9 8 -2 0 -6 -4
-9 -8z"/>
<path d="M3519 1743 c0 -5 -2 -17 -3 -29 -2 -15 3 -20 18 -18 12 1 24 3 29 3
10 1 9 39 -2 45 -5 4 -7 -3 -4 -14 4 -13 0 -20 -9 -20 -22 0 -29 12 -17 27 9
9 8 13 0 13 -6 0 -11 -3 -12 -7z"/>
<path d="M3810 1729 c0 -15 -5 -19 -15 -15 -9 3 -15 0 -15 -9 0 -8 9 -15 20
-15 16 0 20 7 20 30 0 17 -2 30 -5 30 -3 0 -5 -9 -5 -21z"/>
<path d="M3887 1743 c-4 -3 -7 -17 -7 -30 0 -18 6 -23 24 -23 13 0 27 7 30 16
11 28 -27 57 -47 37z m38 -23 c0 -8 -8 -16 -17 -18 -13 -2 -18 3 -18 18 0 15
5 20 18 18 9 -2 17 -10 17 -18z"/>
<path d="M4257 1744 c-4 -4 -7 -18 -7 -31 0 -21 4 -24 33 -21 27 2 32 7 32 28
0 19 -6 26 -25 28 -14 2 -29 0 -33 -4z m43 -35 c0 -5 -4 -9 -10 -9 -5 0 -10 7
-10 16 0 8 5 12 10 9 6 -3 10 -10 10 -16z"/>
<path d="M3424 1723 c1 -12 -5 -17 -16 -15 -10 2 -18 -2 -18 -8 0 -5 11 -10
25 -10 20 0 25 5 25 25 0 14 -4 25 -9 25 -5 0 -8 -8 -7 -17z"/>
<path d="M4132 1718 c2 -16 11 -24 28 -26 24 -3 24 -3 6 11 -10 8 -16 19 -12
25 4 7 1 12 -9 12 -11 0 -15 -7 -13 -22z"/>
<path d="M6224 1720 c0 -13 4 -16 10 -10 7 7 7 13 0 20 -6 6 -10 3 -10 -10z"/>
<path d="M3630 1710 c0 -15 7 -20 25 -20 14 0 25 5 25 10 0 6 -7 10 -15 10 -8
0 -15 5 -15 10 0 6 -4 10 -10 10 -5 0 -10 -9 -10 -20z"/>
<path d="M6270 1720 c0 -5 9 -10 20 -10 11 0 20 5 20 10 0 6 -9 10 -20 10 -11
0 -20 -4 -20 -10z"/>
<path d="M4015 1700 c-4 -6 5 -10 20 -10 15 0 24 4 20 10 -3 6 -12 10 -20 10
-8 0 -17 -4 -20 -10z"/>
<path d="M3887 1533 c-13 -12 -7 -23 12 -23 26 0 51 10 51 21 0 10 -53 12 -63
2z"/>
<path d="M3692 1501 c-32 -8 -32 -25 -1 -29 17 -2 29 3 32 12 8 19 -2 24 -31
17z"/>
<path d="M62 4660 c0 -14 2 -19 5 -12 2 6 2 18 0 25 -3 6 -5 1 -5 -13z"/>
<path d="M62 4375 c0 -16 2 -22 5 -12 2 9 2 23 0 30 -3 6 -5 -1 -5 -18z"/>
<path d="M62 4286 c1 -19 5 -33 8 -31 7 4 1 65 -6 65 -3 0 -4 -15 -2 -34z"/>
<path d="M63 4225 c0 -8 4 -12 9 -9 5 3 6 10 3 15 -9 13 -12 11 -12 -6z"/>
<path d="M61 4114 c0 -11 3 -14 6 -6 3 7 2 16 -1 19 -3 4 -6 -2 -5 -13z"/>
<path d="M64 4076 c1 -8 5 -18 8 -22 4 -3 5 1 4 10 -1 8 -5 18 -8 22 -4 3 -5
-1 -4 -10z"/>
<path d="M62 3990 c0 -19 2 -27 5 -17 2 9 2 25 0 35 -3 9 -5 1 -5 -18z"/>
<path d="M65 3007 c1 -507 4 -928 9 -935 18 -30 68 -34 411 -36 193 -1 314 -1
270 1 -44 2 -84 8 -89 13 -6 6 -29 10 -52 10 -29 0 -44 5 -48 16 -7 19 -62 16
-58 -3 1 -7 -5 -13 -13 -13 -9 0 -15 9 -15 25 0 18 -5 25 -20 25 -11 0 -20 5
-20 10 0 6 -9 10 -20 10 -11 0 -20 5 -20 10 0 6 -9 10 -20 10 -11 0 -20 5 -20
10 0 6 -18 10 -40 10 -29 0 -40 4 -40 15 0 11 -11 15 -40 15 l-40 0 0 40 c0
36 -3 40 -24 40 -24 0 -25 3 -29 83 -2 45 -9 116 -15 157 -6 41 -13 165 -17
275 -3 110 -8 248 -10 308 -4 82 -2 107 7 107 7 1 4 6 -7 13 -22 14 -21 -21
-25 440 -1 147 -5 267 -8 267 -4 0 -7 -415 -7 -923z m32 46 c-3 -10 -5 -2 -5
17 0 19 2 27 5 18 2 -10 2 -26 0 -35z"/>
<path d="M848 2033 c6 -2 18 -2 25 0 6 3 1 5 -13 5 -14 0 -19 -2 -12 -5z"/>
<path d="M917 2033 c18 -2 50 -2 70 0 21 2 7 4 -32 4 -38 0 -55 -2 -38 -4z"/>
<path d="M5528 1343 c6 -2 18 -2 25 0 6 3 1 5 -13 5 -14 0 -19 -2 -12 -5z"/>
<path d="M4627 949 c4 -13 8 -18 11 -10 2 7 -1 18 -6 23 -8 8 -9 4 -5 -13z"/>
<path d="M2248 773 c6 -2 18 -2 25 0 6 3 1 5 -13 5 -14 0 -19 -2 -12 -5z"/>
<path d="M2167 667 c-4 -10 -7 -26 -7 -35 1 -15 2 -15 11 1 6 10 9 25 7 35 -3
16 -4 15 -11 -1z"/>
<path d="M4093 630 c0 -30 2 -43 4 -27 2 15 2 39 0 55 -2 15 -4 2 -4 -28z"/>
<path d="M2147 593 c-3 -10 -22 -74 -42 -141 -20 -68 -35 -126 -32 -128 2 -2
23 59 46 137 24 77 41 142 38 145 -3 3 -8 -3 -10 -13z"/>
<path d="M2055 270 c3 -5 8 -10 11 -10 2 0 4 5 4 10 0 6 -5 10 -11 10 -5 0 -7
-4 -4 -10z"/>
<path d="M526 59 c39 -9 6606 -9 6669 -1 28 4 -1468 7 -3324 7 -1856 0 -3362
-3 -3345 -6z"/>
</g>
</svg>
