<?xml version="1.0" standalone="no"?>
<!DOCTYPE svg PUBLIC "-//W3C//DTD SVG 20010904//EN"
 "http://www.w3.org/TR/2001/REC-SVG-20010904/DTD/svg10.dtd">
<svg version="1.0" xmlns="http://www.w3.org/2000/svg"
 width="1500.000000pt" height="1500.000000pt" viewBox="0 0 1500.000000 1500.000000"
 preserveAspectRatio="xMidYMid meet">

<g transform="translate(0.000000,1500.000000) scale(0.100000,-0.100000)"
fill="#000000" stroke="none">
<path d="M6855 14960 c-321 -9 -384 -14 -575 -46 -223 -39 -379 -80 -590 -156
-130 -46 -150 -58 -100 -58 19 0 73 -7 120 -15 47 -8 155 -24 240 -35 170 -22
493 -70 635 -94 50 -8 144 -22 210 -31 66 -9 156 -22 200 -30 44 -8 211 -35
370 -60 548 -86 767 -139 964 -235 42 -20 94 -45 116 -55 106 -47 137 -62 229
-114 87 -48 96 -55 77 -63 -15 -5 -27 -3 -37 7 -8 8 -21 12 -29 9 -8 -4 -15
-1 -15 5 0 6 -5 11 -11 11 -6 0 -22 9 -36 20 -56 44 -40 15 37 -67 237 -254
335 -516 343 -918 5 -244 -23 -470 -91 -735 -52 -203 -76 -277 -332 -1030 -61
-179 -135 -397 -165 -485 -30 -88 -86 -252 -126 -365 -39 -113 -86 -250 -104
-305 -19 -55 -46 -134 -60 -175 -15 -41 -69 -194 -120 -340 -51 -146 -107
-303 -125 -350 -17 -47 -37 -103 -44 -125 -8 -22 -41 -116 -74 -210 -33 -93
-95 -269 -137 -390 -43 -121 -87 -247 -98 -280 -20 -62 -37 -109 -81 -230 -13
-38 -36 -101 -50 -140 -65 -185 -366 -1020 -423 -1175 -99 -270 -114 -311
-134 -365 -139 -383 -262 -665 -368 -843 -17 -29 -31 -55 -31 -58 0 -6 -163
-252 -188 -284 -11 -14 -48 -59 -81 -101 -73 -92 -240 -268 -241 -254 0 14 56
75 69 75 6 0 11 6 11 14 0 8 6 16 13 19 8 3 30 29 50 59 20 29 48 64 62 77 14
13 25 32 25 42 0 11 7 19 16 19 10 0 14 6 11 14 -3 8 1 17 9 20 13 5 12 9 -2
31 -9 14 -12 25 -6 25 6 0 15 -8 21 -17 14 -26 22 -11 15 25 -7 33 -24 44 -24
16 0 -14 -3 -14 -15 -4 -19 16 -20 50 -1 50 16 0 29 27 20 41 -10 16 -22 9
-17 -10 3 -11 -2 -21 -11 -24 -24 -10 -20 27 7 60 13 15 38 55 56 88 19 33 36
62 40 65 15 13 201 385 201 404 0 8 4 16 8 18 9 3 116 264 159 388 8 25 19 50
24 56 5 6 6 14 3 17 -3 3 3 23 13 44 11 21 32 76 48 123 15 47 35 101 43 120
9 19 16 40 17 45 1 6 6 21 12 35 27 65 93 249 93 259 0 6 4 19 9 29 10 18 55
132 57 145 1 4 2 8 3 10 1 2 53 145 116 322 23 66 64 179 89 250 26 72 56 157
67 190 11 33 24 69 29 80 5 11 11 29 13 40 3 11 22 63 42 115 20 52 38 103 40
112 2 10 10 32 18 50 9 18 29 74 46 123 16 50 51 149 77 220 25 72 53 150 61
175 16 48 30 84 44 112 5 10 9 25 9 34 0 9 6 30 14 47 27 64 55 143 62 172 3
17 20 66 36 110 17 44 34 89 38 100 8 22 11 31 70 205 46 136 63 181 71 195 4
6 10 26 14 45 4 19 10 40 13 45 8 12 48 125 67 185 21 70 104 311 120 350 29
70 38 95 41 120 2 14 7 34 12 45 20 43 42 102 58 155 8 30 19 64 24 75 41 108
50 132 50 142 0 7 8 17 18 22 11 7 12 10 3 11 -9 0 -11 6 -6 18 5 9 23 60 41
112 17 52 37 94 43 93 6 -2 11 2 11 7 0 6 -4 10 -9 10 -8 0 47 172 63 198 4 7
5 12 1 12 -3 0 2 17 11 38 20 47 64 179 64 193 0 5 9 29 20 51 11 23 18 44 15
46 -6 6 25 65 39 74 8 6 8 8 -1 8 -10 0 53 214 77 261 5 9 14 41 21 72 8 32
17 57 22 57 4 0 6 4 3 8 -10 16 17 80 35 85 11 3 19 12 19 21 0 9 -3 15 -7 14
-8 -3 -13 5 -13 17 0 3 9 1 20 -5 12 -7 20 -7 20 -1 0 5 12 -2 28 -17 26 -26
26 -28 9 -46 -12 -14 -14 -22 -6 -27 8 -4 7 -8 -2 -12 -11 -4 -11 -6 1 -6 19
-1 43 50 34 73 -3 9 -1 16 5 16 6 0 8 7 5 15 -4 8 -1 15 7 15 7 0 10 3 6 6 -3
3 1 26 8 52 8 25 12 49 9 54 -6 9 15 76 29 96 7 9 3 12 -14 13 -16 1 -18 3 -7
6 11 3 19 20 24 56 22 149 28 391 14 506 -15 118 -33 194 -49 199 -9 3 -9 8
-1 17 17 21 -8 30 -29 11 -10 -9 -20 -13 -24 -10 -4 4 -18 -1 -31 -10 -14 -9
-28 -16 -30 -16 -5 0 -21 72 -17 78 1 1 -5 10 -14 18 -8 9 -15 24 -15 34 0 10
-4 21 -9 24 -4 3 -25 38 -46 78 -162 316 -462 532 -880 633 -102 25 -336 66
-735 129 -124 20 -265 43 -315 51 -49 8 -166 26 -260 40 -93 14 -195 30 -225
35 -120 21 -1008 144 -1360 190 -91 11 -214 27 -275 36 -173 23 -319 32 -464
28 -73 -1 -132 -1 -130 1 4 3 191 23 288 31 30 2 60 9 65 15 21 22 -304 3
-441 -25 -621 -130 -1151 -586 -1511 -1301 -131 -260 -150 -310 -597 -1510
-172 -464 -193 -520 -258 -700 -36 -99 -114 -310 -172 -470 -59 -159 -149
-407 -200 -550 -52 -143 -110 -305 -130 -360 -20 -55 -58 -161 -85 -235 -26
-74 -84 -236 -128 -360 -417 -1167 -673 -1906 -731 -2112 -121 -427 -153 -799
-100 -1148 39 -261 190 -542 381 -713 154 -137 525 -417 732 -552 130 -85 256
-142 330 -150 l63 -7 33 -137 c144 -605 466 -1229 939 -1825 563 -707 1097
-1158 1756 -1481 600 -295 1405 -584 2170 -780 1124 -287 2395 -439 3006 -357
273 37 469 82 704 162 481 165 937 421 1343 756 63 51 120 94 126 94 6 0 65
-11 131 -25 369 -78 706 -16 981 181 114 82 144 113 272 279 24 30 121 211
171 317 165 347 272 677 340 1043 50 272 64 437 66 780 l2 310 57 135 c139
328 315 832 432 1240 279 967 446 1929 516 2965 14 209 18 1166 5 1326 l-7 96
112 84 c190 140 247 212 248 307 0 50 -154 996 -169 1035 -18 46 -79 103 -138
130 -32 14 -107 38 -168 53 -60 15 -117 30 -125 34 -8 4 -26 50 -41 106 -184
691 -540 1483 -847 1884 -360 470 -814 797 -1437 1038 -144 56 -433 142 -590
176 -44 10 -96 22 -115 27 -76 21 -366 71 -570 100 -281 39 -588 50 -728 25
-93 -16 -95 -16 -215 9 -869 184 -1946 273 -2972 245z m-1948 -356 c-3 -3 -12
-4 -19 -1 -8 3 -5 6 6 6 11 1 17 -2 13 -5z m381 -61 c-10 -2 -28 -2 -40 0 -13
2 -5 4 17 4 22 1 32 -1 23 -4z m167 -12 c-22 -9 77 -21 197 -25 37 -2 73 -8
81 -15 8 -6 21 -9 29 -6 8 3 44 1 79 -6 35 -6 86 -10 113 -10 36 2 47 -1 44
-11 -4 -10 21 -14 115 -15 66 -2 123 -7 126 -12 3 -5 49 -12 101 -16 52 -4
101 -12 108 -18 7 -6 35 -10 62 -8 26 1 51 -3 55 -9 4 -6 23 -11 43 -11 78 0
374 -38 387 -50 5 -5 26 -9 46 -9 21 0 49 -4 63 -10 14 -5 63 -12 109 -14 46
-3 95 -10 111 -15 15 -6 50 -11 77 -11 34 0 48 -4 43 -11 -4 -7 9 -10 40 -8
25 2 48 0 52 -3 3 -4 12 -4 20 -1 26 10 277 -39 376 -73 124 -43 265 -111 288
-139 12 -15 0 -22 -13 -8 -12 11 -149 43 -159 37 -5 -3 -15 0 -23 6 -12 10
-15 10 -15 -1 0 -10 -2 -11 -8 -2 -4 6 -32 16 -62 21 -30 6 -67 15 -82 21 -15
6 -94 24 -176 40 -81 17 -155 33 -163 35 -8 3 -59 13 -114 22 -55 9 -138 22
-185 30 -177 31 -207 35 -265 44 -169 26 -269 43 -355 61 -52 11 -113 21 -135
24 -22 2 -51 7 -65 11 -25 6 -103 18 -190 29 -25 3 -61 10 -80 15 -19 4 -68
11 -108 15 -39 4 -75 11 -78 16 -3 5 -26 9 -52 9 -26 0 -76 7 -112 16 -58 14
-128 23 -312 40 -73 7 -103 34 -37 33 32 0 39 -3 24 -8z m3368 -585 c4 -10 1
-13 -9 -9 -15 6 -19 23 -5 23 5 0 11 -7 14 -14z m-5990 -28 c-4 -13 -20 -45
-38 -73 -18 -27 -41 -65 -51 -82 -10 -18 -22 -33 -27 -33 -4 0 -6 -3 -4 -7 3
-5 -8 -30 -24 -58 -16 -27 -34 -61 -40 -75 -6 -14 -15 -32 -20 -40 -21 -37
-109 -218 -109 -223 0 -4 -13 -35 -29 -69 -17 -35 -36 -81 -44 -103 -9 -22
-38 -98 -67 -170 -28 -71 -61 -157 -72 -190 -11 -33 -26 -73 -33 -90 -25 -58
-115 -304 -115 -313 0 -6 -3 -12 -7 -14 -5 -1 -24 -50 -43 -108 -19 -58 -37
-109 -40 -115 -4 -5 -17 -39 -29 -75 -13 -36 -29 -78 -36 -95 -8 -16 -20 -50
-29 -75 -8 -25 -27 -76 -41 -115 -15 -38 -38 -101 -51 -140 -13 -38 -28 -79
-33 -90 -18 -42 -33 -82 -48 -125 -8 -25 -21 -58 -28 -75 -7 -16 -20 -52 -28
-80 -9 -27 -26 -75 -37 -105 -12 -30 -31 -80 -41 -110 -11 -30 -26 -69 -34
-87 -8 -17 -15 -36 -15 -42 0 -7 -9 -31 -20 -53 -11 -23 -20 -45 -20 -50 0 -7
-102 -292 -130 -363 -46 -117 -105 -280 -134 -365 -14 -41 -41 -118 -60 -170
-19 -52 -53 -147 -75 -210 -22 -63 -45 -124 -50 -135 -5 -11 -22 -60 -39 -110
-33 -98 -128 -361 -139 -385 -3 -8 -5 -19 -4 -23 0 -4 -4 -18 -10 -30 -7 -12
-43 -110 -80 -217 -66 -192 -143 -409 -221 -625 -22 -60 -43 -121 -47 -135
-21 -65 -190 -548 -201 -575 -5 -11 -18 -51 -30 -90 -12 -38 -26 -78 -31 -87
-5 -10 -9 -25 -9 -33 0 -8 -4 -15 -10 -15 -5 0 -10 -10 -10 -22 0 -12 -6 -40
-14 -63 -13 -36 -32 -100 -88 -300 -27 -95 -28 -99 -33 -93 -10 10 -7 57 10
148 10 52 18 105 18 118 -1 12 3 22 9 22 5 0 7 4 4 9 -3 5 1 28 8 52 8 24 22
73 32 109 24 94 54 190 69 225 8 17 20 53 29 80 8 28 42 129 77 225 34 96 70
202 81 235 11 33 30 87 43 120 13 33 35 94 49 135 55 163 98 286 105 305 5 11
17 40 27 64 10 25 19 49 19 55 1 6 4 18 7 26 3 8 13 38 23 65 9 28 19 57 22
65 23 62 56 152 68 185 35 100 97 278 125 355 16 47 51 146 76 220 26 74 53
146 59 160 7 14 20 48 28 75 9 28 43 124 77 215 33 91 71 197 84 235 13 39 54
151 91 250 79 213 107 289 150 410 17 50 56 155 85 235 29 80 65 180 80 222
15 43 30 74 34 71 3 -4 6 2 6 13 0 10 30 98 66 194 36 96 67 184 69 195 3 11
9 29 13 40 33 75 42 97 42 108 0 7 7 24 14 39 8 16 25 58 37 95 13 38 29 79
36 93 7 14 13 31 13 38 0 7 4 20 10 30 5 9 27 67 49 127 63 172 102 278 111
300 4 11 29 76 55 145 26 69 55 145 65 170 10 25 25 69 35 98 9 28 20 52 25
52 4 0 11 11 14 25 13 52 119 264 129 258 6 -3 7 -1 3 5 -6 11 30 86 60 122 6
8 26 42 44 75 18 33 38 69 44 80 6 11 37 47 68 80 32 33 58 63 58 68 0 4 4 7
9 7 5 0 7 -10 4 -22z m2917 -318 c11 -11 20 -29 20 -40 0 -29 -24 -84 -57
-127 -15 -21 -28 -40 -30 -42 -1 -2 -19 7 -40 20 -21 12 -39 23 -40 24 -6 3
29 102 44 124 20 32 54 60 71 61 6 0 21 -9 32 -20z m-196 -32 c14 -23 -6 -96
-40 -148 -25 -37 -30 -40 -72 -40 l-44 0 6 32 c15 77 29 111 58 144 34 38 72
43 92 12z m3343 -162 c-4 -9 1 -17 11 -19 9 -2 4 -3 -13 0 -16 2 -34 8 -40 15
-7 8 -5 9 7 5 10 -3 20 -2 23 3 9 15 18 12 12 -4z m-3276 -23 c35 -21 37 -36
4 -57 -27 -18 -61 -21 -70 -6 -8 13 16 80 28 80 5 0 22 -8 38 -17z m3266 -35
c-3 -8 -6 -5 -6 6 -1 11 2 17 5 13 3 -3 4 -12 1 -19z m-3422 -25 c-8 -37 -39
-67 -59 -60 -11 4 -16 19 -16 47 l0 40 41 0 c40 0 41 -1 34 -27z m-315 -259
c0 -3 -22 -33 -50 -67 l-49 -61 29 -12 c36 -15 47 -52 32 -103 -24 -79 -108
-119 -154 -74 -42 43 -6 120 131 280 31 37 61 55 61 37z m220 -43 c15 -30 12
-83 -8 -112 -9 -14 -54 -59 -99 -99 -85 -75 -90 -90 -31 -90 37 0 58 -10 58
-26 0 -17 -3 -17 -91 -3 -43 8 -69 17 -69 25 0 6 42 49 93 94 102 91 127 122
127 162 0 45 -67 50 -90 7 -11 -19 -40 -27 -40 -10 0 5 13 23 29 40 23 25 37
31 70 31 30 0 43 -5 51 -19z m195 -36 c14 -13 25 -33 25 -44 0 -37 -74 -225
-99 -253 -35 -38 -82 -47 -110 -19 -29 29 -26 64 14 176 39 107 54 133 87 152
34 19 56 16 83 -12z m216 -31 c23 -27 15 -84 -25 -186 -43 -112 -73 -148 -122
-148 -74 0 -80 47 -28 197 27 75 45 110 66 128 34 29 89 33 109 9z m3129 -138
c0 -3 -4 -8 -10 -11 -5 -3 -10 -1 -10 4 0 6 5 11 10 11 6 0 10 -2 10 -4z
m-213 -193 c-3 -10 -5 -4 -5 12 0 17 2 24 5 18 2 -7 2 -21 0 -30z m-18 -99
c-13 -78 -60 -267 -90 -364 -41 -133 -111 -346 -119 -365 -5 -11 -28 -76 -50
-145 -23 -69 -49 -147 -60 -175 -10 -27 -25 -70 -33 -95 -16 -50 -222 -650
-312 -910 -31 -91 -65 -190 -76 -220 -10 -30 -30 -86 -44 -125 -15 -38 -28
-77 -30 -85 -8 -30 -97 -287 -120 -345 -13 -33 -34 -94 -46 -135 -12 -41 -26
-79 -30 -85 -4 -5 -14 -32 -22 -60 -8 -27 -25 -75 -37 -105 -12 -30 -24 -66
-26 -79 -3 -13 -10 -34 -16 -45 -7 -12 -13 -26 -14 -33 -5 -27 -37 -119 -45
-128 -5 -5 -9 -17 -9 -27 0 -10 -4 -26 -9 -36 -5 -9 -42 -109 -81 -222 -82
-233 -107 -302 -183 -520 -30 -85 -69 -193 -87 -240 -17 -47 -35 -96 -40 -110
-4 -14 -29 -83 -55 -155 -26 -71 -73 -204 -105 -295 -32 -91 -75 -210 -95
-265 -20 -55 -50 -136 -65 -180 -15 -44 -65 -181 -110 -305 -46 -124 -91 -250
-102 -280 -30 -85 -84 -228 -113 -300 -77 -187 -212 -467 -221 -457 -3 3 6 24
19 48 13 24 22 50 20 57 -3 6 0 12 6 12 6 0 11 8 11 18 0 10 11 47 25 83 14
35 30 80 35 99 20 80 42 156 48 165 3 5 7 16 8 25 4 30 108 349 124 380 4 9
11 30 15 48 3 18 10 32 15 32 4 0 14 24 20 53 7 28 23 76 36 106 13 29 24 61
24 70 0 9 4 21 9 26 5 6 14 26 19 45 6 19 29 87 52 150 75 209 81 224 112 325
16 55 34 102 38 105 5 3 18 37 29 75 32 112 134 400 142 403 4 2 5 10 2 18 -3
8 1 22 9 32 9 9 18 28 21 42 2 14 26 84 52 155 26 72 54 153 62 180 9 28 21
64 28 80 7 17 29 80 49 140 20 61 41 118 46 127 6 10 10 23 10 28 0 6 9 30 20
52 11 23 20 48 20 55 0 7 4 21 9 31 5 9 19 49 31 87 12 39 26 79 30 90 5 11
11 29 13 40 3 11 38 108 77 215 40 107 81 224 91 260 10 36 23 74 29 85 5 11
19 49 31 85 12 36 27 79 34 95 27 61 55 146 55 165 0 10 4 20 8 22 10 4 72
191 72 217 0 11 4 21 9 23 10 3 54 121 77 205 8 29 24 74 35 100 11 27 34 89
50 138 17 50 36 104 44 120 7 17 32 86 54 155 23 69 45 134 50 145 5 11 16 40
26 65 9 25 21 55 26 68 5 13 9 30 9 38 0 8 9 33 19 57 11 23 25 60 32 82 7 22
27 81 46 132 18 51 33 101 33 113 0 11 5 20 10 20 6 0 10 9 10 21 0 11 7 33
15 47 8 15 26 65 40 111 24 80 47 140 86 228 11 24 19 48 19 54 0 6 11 32 24
58 14 25 33 73 44 106 11 33 30 82 42 110 12 27 26 71 32 98 15 72 21 50 7
-29z m158 3 c-11 -4 -25 -6 -31 -3 -6 2 -3 5 7 5 9 1 17 8 17 16 0 13 2 14 14
3 12 -11 11 -14 -7 -21z m952 -147 c68 -133 148 -307 198 -429 40 -99 163
-432 163 -442 0 -3 -33 -31 -73 -62 -99 -76 -142 -125 -163 -185 -18 -50 -18
-54 4 -184 12 -73 40 -227 61 -343 22 -115 54 -286 71 -378 23 -127 37 -178
56 -206 46 -70 105 -102 244 -135 56 -13 103 -26 106 -28 11 -11 26 -238 32
-474 15 -589 -14 -1040 -108 -1674 -10 -70 -62 -350 -85 -465 -14 -66 -23
-106 -74 -335 -27 -118 -60 -241 -117 -435 -176 -602 -337 -961 -576 -1283
l-69 -93 -47 8 c-117 19 -193 -6 -281 -94 -71 -72 -123 -174 -147 -292 -23
-117 -15 -209 29 -338 136 -393 127 -802 -27 -1285 -37 -116 -50 -136 -235
-353 -519 -610 -1125 -1058 -1770 -1306 l-76 -29 -145 147 c-283 288 -489 569
-666 908 -219 420 -333 813 -334 1145 l0 105 134 43 c589 189 1082 670 1461
1427 102 204 168 360 295 700 39 105 83 219 97 255 14 36 42 112 63 170 21 58
68 186 105 285 67 182 264 725 403 1110 41 116 78 213 81 217 3 4 31 0 61 -8
38 -11 87 -14 160 -11 96 3 111 6 168 37 76 40 176 143 226 232 123 221 160
516 90 726 -34 102 -110 222 -141 222 -8 0 -30 8 -51 19 -20 10 -54 21 -74 25
-47 9 -65 31 -19 24 20 -3 30 -1 28 6 -2 6 95 306 215 666 443 1325 511 1551
577 1910 31 172 61 442 61 564 1 66 2 69 16 51 8 -11 41 -72 73 -135z m-959
106 c0 -3 -4 -8 -10 -11 -5 -3 -10 -1 -10 4 0 6 5 11 10 11 6 0 10 -2 10 -4z
m15 -17 c-4 -13 -1 -27 9 -38 14 -15 14 -18 1 -18 -8 0 -15 6 -15 13 0 8 -7
11 -17 8 -11 -4 -14 -3 -7 3 6 4 14 18 18 31 4 12 10 22 12 22 3 0 2 -9 -1
-21z m-42 -3 c3 -8 0 -19 -7 -25 -10 -9 -12 -6 -8 14 5 29 8 31 15 11z m77 0
c0 -3 -4 -8 -10 -11 -5 -3 -10 -1 -10 4 0 6 5 11 10 11 6 0 10 -2 10 -4z m0
-70 c0 -3 -4 -8 -10 -11 -5 -3 -10 -1 -10 4 0 6 5 11 10 11 6 0 10 -2 10 -4z
m-5207 -221 c20 -3 37 -11 37 -18 0 -7 -34 -107 -76 -222 -41 -116 -98 -273
-124 -350 -27 -77 -99 -277 -159 -445 l-110 -305 -52 2 c-29 2 -54 5 -56 7 -3
3 15 60 40 128 25 68 59 161 75 208 36 101 185 520 253 709 27 74 47 136 46
138 -2 1 -61 -36 -131 -83 -71 -47 -131 -83 -133 -80 -3 3 5 35 18 72 l24 67
140 92 c77 51 147 92 155 90 8 -2 32 -6 53 -10z m774 -127 c32 -8 61 -25 94
-57 59 -57 73 -104 67 -221 -5 -78 -15 -114 -131 -438 -70 -195 -141 -381
-159 -415 -94 -176 -271 -269 -422 -222 -166 52 -207 213 -119 465 237 669
243 685 320 771 97 107 223 150 350 117z m-1306 -51 c-13 -13 -26 -3 -16 12 3
6 11 8 17 5 6 -4 6 -10 -1 -17z m2562 -168 c61 -15 118 -58 147 -109 19 -36
25 -63 28 -135 4 -100 13 -69 -188 -630 -100 -278 -130 -335 -220 -410 -75
-63 -143 -90 -230 -90 -84 0 -127 16 -179 67 -58 56 -66 82 -66 198 1 97 4
114 42 220 234 654 251 695 336 780 99 99 217 138 330 109z m849 -152 c191
-80 196 -354 12 -618 -21 -31 -160 -204 -309 -384 -148 -180 -273 -332 -276
-337 -6 -9 -103 -2 -121 8 -6 4 57 82 367 454 39 47 74 90 77 95 4 6 -19 10
-61 10 -91 0 -154 32 -196 100 -25 41 -31 61 -34 129 -4 104 11 171 64 281 92
190 234 293 387 280 32 -3 73 -11 90 -18z m-1555 -88 l21 -8 -30 -83 c-17 -46
-32 -85 -34 -87 -4 -4 -144 21 -144 27 0 2 11 37 25 76 14 39 28 77 30 84 4
11 18 12 58 7 28 -4 62 -11 74 -16z m-251 -561 c35 -6 64 -15 64 -19 0 -13
-52 -153 -59 -162 -4 -4 -39 -2 -78 4 l-70 12 31 89 c17 48 35 88 40 88 5 0
37 -5 72 -12z m2184 -13 c0 -8 -4 -15 -10 -15 -5 0 -10 7 -10 15 0 8 5 15 10
15 6 0 10 -7 10 -15z m-3852 -541 c88 -18 106 -39 33 -39 l-43 0 -29 -80 c-16
-44 -41 -113 -55 -152 -15 -43 -32 -73 -40 -73 -8 0 -14 2 -14 4 0 3 25 74 55
158 30 84 55 153 55 154 0 1 -18 4 -40 8 -38 6 -48 15 -33 29 9 10 18 9 111
-9z m262 -57 c0 -7 -10 -41 -21 -76 -12 -35 -18 -66 -13 -71 5 -5 34 -11 65
-15 l55 -7 25 72 c22 65 41 92 55 77 3 -3 -18 -70 -46 -148 -29 -79 -57 -156
-62 -171 -6 -16 -16 -28 -24 -28 -19 0 -18 7 11 85 15 38 22 72 18 76 -5 5
-35 10 -67 11 l-58 3 -27 -72 c-14 -40 -31 -73 -38 -73 -7 0 -13 5 -13 11 0
11 107 316 116 331 8 13 24 10 24 -5z m380 -66 c0 -6 -18 -61 -40 -123 -22
-62 -40 -127 -40 -145 0 -63 68 -76 113 -23 13 15 43 82 67 149 26 75 48 121
56 121 8 0 14 -3 14 -6 0 -26 -96 -265 -115 -287 -48 -54 -103 -61 -147 -17
-26 27 -30 36 -25 68 11 63 90 272 104 272 7 0 13 -4 13 -9z m632 -111 c29 -6
63 -13 76 -16 12 -2 22 -11 22 -20 0 -13 -8 -15 -52 -8 -98 14 -98 14 -119
-41 -10 -27 -19 -55 -19 -61 0 -7 25 -15 55 -19 45 -5 55 -10 55 -26 0 -17 -5
-18 -42 -12 -90 15 -89 15 -115 -64 -15 -45 -30 -73 -39 -73 -8 0 -14 4 -14 9
0 7 37 113 115 329 5 15 10 15 77 2z m371 -70 c48 -9 67 -17 67 -27 0 -13 -10
-14 -57 -8 -97 13 -93 14 -114 -39 -11 -27 -18 -55 -15 -61 2 -7 30 -16 60
-19 56 -7 62 -11 48 -33 -5 -8 -20 -9 -52 -3 -75 15 -76 14 -99 -47 -25 -65
-23 -68 55 -78 54 -6 74 -19 57 -36 -8 -8 -160 15 -171 25 -2 3 10 44 28 93
55 152 82 228 86 241 2 7 12 11 21 9 10 -3 48 -11 86 -17z m327 -61 c28 -6 57
-17 65 -26 31 -30 9 -120 -35 -143 -17 -9 -18 -14 -9 -31 25 -48 -17 -132 -73
-147 -42 -11 -148 8 -148 26 0 7 26 85 57 173 63 175 55 167 143 148z m595
-119 c27 -29 22 -74 -16 -177 -39 -105 -59 -136 -97 -152 -56 -23 -109 22 -95
80 3 13 21 68 41 122 39 107 72 147 121 147 15 0 36 -9 46 -20z m319 -56 c9
-8 19 -26 22 -39 7 -27 -21 -92 -47 -108 -14 -9 -16 -20 -12 -62 5 -48 3 -53
-30 -89 -32 -33 -40 -37 -78 -34 -34 2 -46 8 -58 29 -21 37 -7 92 34 132 26
26 31 36 24 50 -15 26 6 81 42 112 35 28 80 33 103 9z m-1756 -460 c27 -30 30
-99 6 -149 -46 -98 -170 -130 -209 -54 -67 128 111 307 203 203z m2172 -48
c-17 -22 -40 -20 -40 2 0 30 21 45 39 28 12 -12 12 -18 1 -30z m-3960 -41 c0
-8 -4 -15 -10 -15 -5 0 -10 7 -10 15 0 8 5 15 10 15 6 0 10 -7 10 -15z m5985
-14 c-14 -12 -85 -22 -85 -11 0 9 27 16 70 19 14 0 20 -3 15 -8z m231 -167
c-3 -9 -6 -20 -6 -25 0 -5 -6 -9 -14 -9 -12 0 -12 -5 -3 -29 8 -22 8 -36 0
-53 -6 -13 -17 -53 -23 -91 -7 -37 -16 -69 -20 -72 -5 -3 -11 -23 -15 -45 -4
-22 -10 -40 -15 -40 -5 0 -11 -19 -15 -42 -4 -24 -16 -60 -26 -80 -11 -21 -19
-46 -19 -57 0 -11 -4 -22 -9 -25 -11 -7 -51 -88 -51 -104 0 -7 -6 -12 -13 -12
-14 0 -57 -52 -57 -70 0 -5 -7 -10 -15 -10 -8 0 -15 -6 -15 -12 0 -7 -6 -4
-13 7 -8 14 -12 72 -12 183 0 142 -2 159 -13 132 -7 -17 -10 -36 -6 -42 4 -6
-1 -6 -15 1 -22 12 -29 31 -11 31 6 0 10 10 9 23 0 21 -1 21 -9 2 -7 -15 -8
-7 -7 26 1 26 5 45 9 43 3 -2 9 10 13 26 4 17 20 45 36 62 l28 32 11 -25 c10
-22 10 -22 6 -1 -2 12 -1 22 4 22 4 0 21 26 38 58 17 31 46 75 66 97 29 33 37
37 45 25 9 -12 14 -11 38 11 91 83 112 97 99 63z m-6746 -147 c0 -17 -20 -37
-37 -37 -13 0 -18 32 -6 43 11 12 43 7 43 -6z m1755 -101 c474 -58 876 -177
1270 -376 188 -95 359 -202 499 -314 111 -89 205 -176 189 -176 -6 0 -19 7
-27 16 -9 8 -21 12 -27 8 -8 -4 -9 -3 -5 4 9 15 -36 16 -50 2 -13 -13 -82 19
-90 42 -6 20 -34 25 -34 6 -1 -7 -10 -2 -20 11 -12 13 -26 21 -35 18 -11 -5
-13 0 -9 22 8 37 -13 50 -26 17 -5 -14 -16 -26 -25 -26 -8 0 -15 -4 -15 -10 0
-16 -26 -11 -44 9 -14 16 -15 19 -2 24 8 3 16 1 18 -5 5 -14 38 -3 38 11 0 16
-46 24 -67 13 -13 -7 -23 -6 -36 3 -22 16 -22 25 0 25 9 0 25 8 35 17 18 16
18 16 12 0 -8 -21 18 -23 36 -2 9 11 9 17 -3 29 -14 15 -57 11 -57 -4 0 -9
-40 -25 -52 -22 -5 1 -8 -5 -8 -13 0 -8 -11 -17 -25 -21 -28 -7 -34 -31 -10
-40 8 -4 15 -10 15 -14 0 -5 -12 -2 -27 6 -38 19 -73 18 -73 -2 0 -20 -20 -14
-34 11 -6 11 -17 26 -24 34 -12 12 -15 12 -23 0 -6 -9 -4 -15 6 -17 25 -6 17
-20 -10 -18 -14 0 -25 7 -25 14 0 6 -4 12 -10 12 -5 0 -10 5 -10 11 0 6 7 9
15 5 13 -4 13 -2 5 14 -15 28 -13 30 21 30 17 0 28 4 24 10 -9 15 -61 12 -75
-5 -6 -8 -9 -18 -6 -24 11 -17 -19 -17 -54 0 -34 18 -34 18 -8 19 15 0 30 5
33 10 3 6 15 10 26 10 10 0 19 5 19 10 0 6 -9 10 -21 10 -16 0 -20 5 -17 27 2
20 12 32 37 44 l34 16 -37 7 c-21 4 -43 3 -49 -3 -7 -5 -35 -13 -62 -18 -52
-10 -95 -37 -95 -60 0 -18 -21 -16 -35 4 -11 15 -14 15 -36 -6 -24 -22 -61
-22 -83 0 -19 18 4 21 30 5 26 -18 41 -16 29 3 -3 6 -13 11 -20 11 -16 0 -40
38 -31 47 3 4 27 5 54 4 40 -1 49 2 57 21 6 13 20 24 33 26 29 4 18 22 -13 22
-18 0 -26 7 -31 25 -3 14 -19 32 -35 41 -16 8 -29 19 -29 24 0 6 -4 10 -10 10
-18 0 -10 -22 15 -42 14 -11 25 -30 25 -42 0 -22 -2 -23 -42 -12 -32 9 -42 8
-45 -1 -3 -8 -23 -13 -53 -13 -30 0 -50 -5 -53 -12 -3 -10 -9 -9 -23 3 -10 9
-35 22 -54 29 -19 7 -39 17 -45 22 -12 11 -62 10 -70 -1 -6 -11 37 -47 67 -56
18 -6 18 -8 3 -25 -9 -10 -22 -17 -29 -14 -7 3 -26 -2 -42 -11 -16 -8 -34 -15
-41 -15 -6 0 -14 -4 -17 -9 -9 -14 4 -41 20 -41 19 0 18 -16 -2 -24 -11 -4
-22 1 -31 14 -8 11 -18 18 -23 15 -4 -3 -11 1 -14 7 -5 10 -7 10 -12 1 -3 -7
-10 -13 -15 -13 -6 0 -7 5 -4 10 3 6 -1 13 -9 16 -20 8 -21 24 -2 24 17 0 31
18 22 27 -3 3 -12 0 -20 -6 -10 -8 -16 -9 -21 -1 -3 5 1 10 9 10 9 0 16 5 16
10 0 17 37 11 44 -6 4 -9 1 -23 -5 -30 -9 -11 -7 -15 5 -20 21 -8 23 -6 31 29
6 23 4 29 -14 34 -11 3 -21 9 -21 13 0 4 -31 11 -70 14 -38 4 -70 11 -70 17 0
5 -4 9 -10 9 -23 0 -7 -18 30 -35 38 -17 53 -35 29 -35 -6 0 -7 -5 -2 -12 4
-7 8 -17 8 -23 1 -5 5 -18 10 -29 6 -14 2 -23 -16 -37 -16 -13 -19 -19 -9 -19
13 0 13 -2 0 -9 -8 -6 -26 -7 -40 -4 -17 3 -31 -1 -39 -11 -8 -9 -24 -16 -37
-16 -18 0 -22 -4 -17 -17 3 -10 -4 -6 -16 9 -23 29 -21 43 12 67 13 9 17 20
13 37 -5 17 -2 24 8 24 10 0 13 -6 10 -15 -4 -9 -1 -15 7 -15 24 1 54 24 55
43 2 20 0 21 -26 5 -27 -17 -37 -2 -15 22 16 18 16 20 2 20 -10 0 -17 5 -17
10 0 6 -5 10 -11 10 -6 0 -8 -7 -5 -16 5 -13 0 -15 -36 -10 -34 5 -38 4 -20
-4 18 -8 22 -15 16 -32 -8 -28 -23 -39 -49 -36 -12 2 -21 12 -23 26 -3 19 -8
23 -25 17 -71 -21 -101 -25 -107 -14 -6 8 -9 8 -14 0 -4 -6 -2 -11 4 -11 6 0
8 -10 4 -26 -5 -18 -3 -25 4 -20 6 3 13 2 17 -4 4 -6 11 -8 16 -5 14 10 11 0
-10 -24 l-19 -22 -25 25 c-36 36 -86 60 -92 44 -6 -15 -57 -20 -66 -7 -3 5
-13 7 -22 3 -9 -3 -15 -10 -12 -15 3 -4 -4 -13 -15 -19 -18 -10 -25 -8 -41 11
-10 12 -19 17 -19 11 0 -15 -27 -16 -35 -1 -4 5 1 20 12 31 18 20 18 21 -7 13
-14 -4 -29 -12 -35 -19 -11 -13 -65 -18 -65 -6 0 4 14 13 30 20 38 16 33 25
-5 10 -22 -8 -26 -8 -22 4 3 8 3 17 -1 20 -3 4 -8 18 -10 33 -3 23 0 25 27 21
18 -3 32 0 35 8 7 18 -3 24 -39 24 -17 0 -36 5 -43 12 -9 9 -12 9 -12 -1 0 -9
-9 -12 -25 -9 -14 3 -25 1 -25 -6 0 -6 -11 1 -25 16 -14 15 -38 30 -53 33 -15
4 -34 10 -43 15 -13 7 -15 4 -11 -16 3 -18 -1 -26 -19 -33 -13 -5 -27 -7 -31
-4 -4 2 -20 6 -35 9 -16 2 -43 7 -60 10 -20 4 -33 2 -33 -4 0 -6 13 -10 29
-10 34 1 51 -8 51 -27 0 -8 11 -17 25 -21 13 -3 29 -12 36 -20 14 -17 13 -17
-27 -5 -41 12 -65 -2 -35 -20 23 -15 28 -39 9 -40 -7 0 -3 -5 10 -11 l23 -11
-30 -13 c-34 -14 -39 -54 -9 -62 14 -3 16 -7 7 -18 -18 -22 8 -17 31 6 11 11
26 17 33 14 8 -3 17 2 20 10 9 22 34 20 40 -3 3 -14 11 -18 26 -14 12 3 21 1
21 -6 0 -6 7 -11 16 -11 8 0 12 -4 9 -10 -8 -13 -65 -13 -65 1 0 5 -5 7 -10 4
-6 -3 -28 -7 -51 -7 -22 0 -46 -7 -54 -14 -19 -19 -19 -19 -48 25 -20 30 -23
41 -14 51 10 10 0 11 -45 5 -36 -4 -58 -3 -58 3 0 10 57 28 73 24 4 -1 17 4
28 12 19 13 19 14 -11 40 -17 14 -37 26 -43 26 -8 0 -7 3 2 9 9 6 10 10 2 16
-9 5 -9 10 0 21 9 11 7 14 -9 14 -32 0 -72 21 -72 38 0 12 3 12 15 2 9 -7 17
-11 18 -9 1 2 9 12 16 21 12 17 11 17 -19 11 -28 -5 -32 -4 -27 10 4 11 1 17
-8 17 -8 0 -15 -7 -15 -15 0 -11 -8 -15 -27 -13 -18 2 -27 -1 -25 -9 2 -15
-24 -18 -32 -4 -3 4 -32 9 -64 9 -56 1 -154 29 -107 31 24 1 65 28 65 42 0 5
-15 9 -34 9 -36 0 -55 13 -36 25 6 4 19 4 28 0 9 -4 35 -10 57 -12 22 -2 45
-9 50 -14 7 -7 4 -8 -9 -3 -13 5 -17 4 -12 -4 4 -7 13 -12 21 -12 7 0 16 -9
20 -19 4 -13 12 -17 25 -14 27 7 25 22 -2 32 -17 7 -6 9 38 7 34 -1 68 -7 75
-13 19 -15 75 -30 137 -38 43 -6 52 -4 52 9 0 8 -9 20 -19 26 -25 13 -64 13
-56 0 3 -5 -3 -10 -14 -10 -10 0 -21 3 -23 8 -1 4 -28 20 -60 35 -45 23 -67
28 -115 26 -32 -1 -68 3 -80 9 -12 7 -37 12 -57 12 -19 0 -38 5 -41 10 -3 6
-19 10 -35 10 -38 0 -60 9 -60 26 0 14 48 10 82 -7 9 -5 27 -9 40 -9 13 0 33
-7 44 -15 10 -8 26 -14 34 -14 10 0 11 2 3 6 -7 2 -13 11 -13 18 0 16 -22 25
-47 19 -11 -3 -25 1 -31 9 -10 12 -7 18 15 32 18 12 28 14 31 7 5 -17 22 -15
22 3 0 11 8 15 28 12 15 -2 39 0 54 4 15 4 30 4 33 0 2 -5 16 -8 30 -8 l26 0
-31 27 c-17 15 -44 30 -59 33 -16 3 -36 13 -44 22 -9 8 -31 18 -49 21 l-33 6
29 -24 c34 -28 23 -43 -24 -33 -16 3 -51 9 -77 11 -26 3 -59 6 -73 8 -14 2
-41 4 -60 5 l-35 3 45 14 c104 33 382 77 580 93 165 14 619 6 775 -13z m-1215
-181 c-10 -12 -16 -13 -29 -3 -9 7 -18 14 -20 15 -2 2 10 3 29 3 28 0 31 -2
20 -15z m-93 -71 c-3 -3 -12 -4 -19 -1 -8 3 -5 6 6 6 11 1 17 -2 13 -5z m104
-92 c-7 -2 -24 -1 -38 3 -20 5 -23 9 -13 15 7 5 24 3 38 -3 13 -6 19 -13 13
-15z m-194 -68 c-3 -3 -12 -4 -19 -1 -8 3 -5 6 6 6 11 1 17 -2 13 -5z m33 -14
c0 -5 -4 -10 -10 -10 -5 0 -10 5 -10 10 0 6 5 10 10 10 6 0 10 -4 10 -10z m87
-26 c-3 -3 -12 -4 -19 -1 -8 3 -5 6 6 6 11 1 17 -2 13 -5z m642 -40 c-7 -8 -1
-15 21 -22 16 -6 30 -16 30 -21 0 -6 -8 -7 -17 -3 -36 14 -63 37 -63 52 0 9
-6 22 -12 29 -7 8 1 6 19 -5 23 -13 29 -21 22 -30z m-572 30 c-3 -3 -12 -4
-19 -1 -8 3 -5 6 6 6 11 1 17 -2 13 -5z m103 -9 c29 -15 40 -35 20 -35 -5 0
-10 5 -10 10 0 6 -13 10 -29 10 -42 0 -50 19 -13 29 2 1 16 -6 32 -14z m1820
-25 c0 -5 -7 -10 -15 -10 -8 0 -15 5 -15 10 0 6 7 10 15 10 8 0 15 -4 15 -10z
m4007 -32 c-3 -7 -5 -2 -5 12 0 14 2 19 5 13 2 -7 2 -19 0 -25z m-4052 8 c17
-9 22 -16 15 -21 -13 -8 -60 13 -60 27 0 12 14 10 45 -6z m-1613 -8 c-9 -9
-15 -9 -24 0 -9 9 -7 12 12 12 19 0 21 -3 12 -12z m1708 3 c0 -11 -40 -22 -53
-14 -5 3 -3 9 4 14 18 11 49 11 49 0z m-185 -21 c-3 -5 -14 -10 -23 -10 -15 0
-15 2 -2 10 20 13 33 13 25 0z m-530 -29 c-3 -6 -11 -8 -17 -5 -6 4 -5 9 3 15
16 10 23 4 14 -10z m-1481 -35 c6 -27 5 -40 -3 -45 -6 -4 -9 -15 -5 -24 4 -13
1 -17 -15 -17 -14 0 -21 6 -21 19 0 11 -3 26 -6 34 -4 12 0 14 15 10 15 -4 21
-1 21 11 0 9 -4 16 -10 16 -5 0 -10 9 -10 21 0 34 24 16 34 -25z m1436 30 c0
-11 -19 -15 -25 -6 -3 5 1 10 9 10 9 0 16 -2 16 -4z m815 -14 c0 -18 -20 -15
-23 4 -3 10 1 15 10 12 7 -3 13 -10 13 -16z m-1301 -27 c-10 -8 -28 -14 -39
-14 -18 0 -17 1 5 14 34 20 60 20 34 0z m926 11 c0 -2 3 -11 6 -20 5 -13 2
-13 -19 -3 -26 12 -27 27 -1 27 8 0 14 -2 14 -4z m-1602 -18 c-3 -7 -13 -15
-24 -17 -16 -3 -17 -1 -5 13 16 19 34 21 29 4z m45 -1 c3 -8 -3 -13 -14 -13
-19 0 -24 8 -12 19 10 11 20 8 26 -6z m1201 -22 c20 -19 33 -35 29 -35 -3 0 1
-7 8 -16 7 -9 12 -31 10 -48 -2 -24 0 -28 9 -19 9 8 16 7 30 -7 23 -23 28 -58
12 -87 -7 -12 -12 -29 -12 -37 0 -9 -9 -16 -20 -16 -17 0 -19 3 -11 18 7 13 7
22 -1 30 -8 8 -8 15 1 26 10 12 9 14 -8 9 -13 -3 -21 -1 -21 7 0 6 -9 25 -21
41 -11 16 -16 29 -10 29 6 0 11 -4 11 -10 0 -5 5 -10 10 -10 18 0 11 19 -18
48 -15 15 -26 35 -24 45 2 9 -4 20 -12 23 -17 7 -22 44 -6 44 5 0 25 -16 44
-35z m896 26 c0 -9 -24 -21 -43 -21 -6 0 -2 7 9 15 22 17 34 19 34 6z m-1070
-16 c10 -12 10 -15 -4 -15 -9 0 -16 7 -16 15 0 8 2 15 4 15 2 0 9 -7 16 -15z
m-1600 -5 c0 -5 -2 -10 -4 -10 -3 0 -8 5 -11 10 -3 6 -1 10 4 10 6 0 11 -4 11
-10z m727 4 c-3 -3 -12 -4 -19 -1 -8 3 -5 6 6 6 11 1 17 -2 13 -5z m-320 -24
c14 -11 20 -20 13 -20 -10 0 -10 -3 0 -15 7 -9 11 -18 8 -20 -3 -3 -17 13 -32
35 -29 45 -27 50 11 20z m-239 -7 c16 -16 16 -16 -5 -11 -13 3 -26 2 -29 -3
-10 -16 -24 -10 -24 11 0 25 34 27 58 3z m136 11 c20 -8 21 -24 2 -24 -8 0
-17 -6 -19 -12 -3 -7 -6 -1 -6 15 -1 29 0 30 23 21z m243 -28 c-9 -9 -23 -12
-37 -9 -21 6 -20 7 11 18 40 13 47 11 26 -9z m749 8 c18 -14 18 -14 -6 -3 -31
14 -36 19 -24 19 6 0 19 -7 30 -16z m1504 -5 c10 -6 5 -7 -15 -3 -16 4 -34 11
-40 16 -11 12 31 1 55 -13z m-2840 1 c0 -5 -5 -10 -11 -10 -5 0 -7 5 -4 10 3
6 8 10 11 10 2 0 4 -4 4 -10z m2013 4 c10 -11 -15 -52 -35 -57 -12 -4 -17 -10
-13 -17 5 -8 0 -7 -13 1 -17 11 -18 14 -6 27 8 7 12 18 9 23 -4 5 6 9 20 9 15
0 24 4 20 10 -7 11 8 14 18 4z m692 -4 c-3 -5 -11 -10 -16 -10 -6 0 -7 5 -4
10 3 6 11 10 16 10 6 0 7 -4 4 -10z m-2055 -10 c0 -5 -2 -10 -4 -10 -3 0 -8 5
-11 10 -3 6 -1 10 4 10 6 0 11 -4 11 -10z m118 -5 c1 -1 -23 -14 -54 -29 -46
-23 -53 -30 -43 -42 7 -9 21 -12 38 -8 14 3 36 7 49 8 12 2 28 8 34 14 7 7 21
12 33 12 11 0 28 7 38 14 16 12 67 11 67 -2 0 -3 -7 -14 -17 -24 -17 -19 -43
-24 -43 -8 0 6 5 10 12 10 6 0 9 2 6 5 -10 10 -37 -7 -32 -20 6 -14 -33 -28
-42 -14 -3 5 -13 5 -23 -1 -10 -5 -21 -7 -24 -3 -4 3 -12 2 -19 -4 -8 -5 -40
-7 -78 -3 -65 7 -71 12 -21 19 5 0 8 12 6 26 -2 21 2 25 26 25 16 0 29 5 29
10 0 6 -5 10 -11 10 -5 0 -7 4 -4 10 5 7 61 4 73 -5z m972 5 c0 -5 -4 -10 -10
-10 -5 0 -10 5 -10 10 0 6 5 10 10 10 6 0 10 -4 10 -10z m-300 -15 c27 -14 30
-14 30 1 0 12 10 8 38 -17 47 -41 68 -84 21 -45 -17 14 -36 26 -42 27 -21 1
-112 48 -94 49 10 0 31 -7 47 -15z m204 -16 c20 -12 33 -26 30 -31 -4 -7 -10
-4 -16 6 -5 9 -17 16 -27 16 -11 0 -21 7 -25 15 -7 20 -4 19 38 -6z m1149 11
c17 0 26 -4 22 -10 -4 -6 -11 -8 -16 -5 -5 4 -9 2 -9 -4 0 -5 16 -15 35 -21
19 -6 33 -15 30 -20 -3 -5 3 -11 12 -13 14 -4 13 -5 -4 -6 -12 0 -23 4 -25 11
-3 8 -9 8 -23 1 -17 -10 -13 -13 26 -23 86 -24 100 -31 94 -51 -5 -14 1 -22
19 -31 33 -14 33 -19 -4 -43 -36 -24 -38 -35 -6 -35 32 0 45 -20 14 -21 -13 0
-17 -3 -10 -6 6 -2 10 -9 6 -14 -3 -5 3 -9 12 -9 10 0 15 3 11 6 -10 10 20 34
44 34 18 0 19 -2 9 -15 -10 -12 -8 -16 11 -23 20 -8 18 -10 -19 -16 -23 -3
-42 -10 -42 -15 0 -15 -33 -23 -41 -10 -14 24 -27 -1 -19 -38 5 -21 7 -39 5
-42 -9 -9 -33 21 -49 62 -15 36 -25 46 -77 70 -47 23 -59 33 -54 47 7 23 -49
50 -68 31 -6 -6 -18 -11 -27 -11 -22 0 -40 -19 -33 -36 7 -18 40 -18 50 0 5 9
15 11 28 5 16 -6 17 -8 3 -8 -9 -1 -20 -10 -23 -21 -3 -11 -11 -20 -16 -20 -5
0 -9 -5 -9 -11 0 -6 7 -9 15 -6 8 4 17 2 20 -3 8 -13 45 -13 45 -1 0 5 -7 12
-16 15 -9 4 -14 9 -11 12 3 3 15 1 26 -6 22 -11 29 -40 10 -40 -6 0 -25 -12
-42 -26 -23 -19 -32 -22 -38 -13 -6 10 -12 9 -27 -4 -11 -10 -23 -17 -28 -16
-5 1 -18 1 -29 0 -16 -1 -17 -3 -6 -10 12 -8 9 -11 -14 -17 -21 -5 -31 -3 -40
10 -14 18 -46 21 -62 5 -14 -14 -76 3 -100 26 -11 12 -18 14 -21 6 -5 -16 -27
-14 -42 4 -17 20 -33 19 -26 -2 4 -14 0 -18 -19 -18 -21 0 -25 5 -25 28 0 20
-5 27 -19 27 -11 0 -23 5 -27 11 -5 8 -8 8 -14 0 -3 -7 -15 -9 -24 -5 -16 6
-17 8 -2 16 25 14 19 31 -9 24 -18 -5 -25 -2 -25 9 0 8 5 15 10 15 6 0 18 16
27 35 l17 35 32 -25 c18 -14 45 -25 59 -25 20 0 26 -4 21 -15 -3 -8 -1 -15 4
-15 5 0 11 9 15 19 4 15 19 21 62 27 43 5 57 11 61 26 2 11 15 23 27 28 17 7
21 14 18 34 -4 21 -1 26 15 26 11 0 25 7 32 15 7 8 23 15 37 15 21 0 24 -4 23
-27 -4 -57 0 -58 38 -15 37 41 57 52 64 32 4 -13 87 12 99 31 16 25 10 48 -18
64 -28 16 -28 16 -3 11 14 -3 38 -6 53 -6z m127 0 c0 -5 -2 -10 -4 -10 -3 0
-8 5 -11 10 -3 6 -1 10 4 10 6 0 11 -4 11 -10z m280 0 c0 -5 -7 -10 -16 -10
-8 0 -12 5 -9 10 3 6 10 10 16 10 5 0 9 -4 9 -10z m-2696 -9 c3 -5 -1 -12 -10
-15 -11 -4 -13 -12 -8 -28 6 -21 5 -22 -12 -8 -10 8 -20 15 -22 16 -5 3 32 42
40 43 4 1 9 -3 12 -8z m576 -1 c0 -5 -6 -10 -14 -10 -8 0 -18 5 -21 10 -3 6 3
10 14 10 12 0 21 -4 21 -10z m678 -20 l4 -25 -21 22 c-26 27 -27 36 -3 31 9
-2 18 -14 20 -28z m1126 22 c2 -4 -4 -9 -15 -9 -11 -1 -17 2 -14 8 7 11 22 12
29 1z m-1458 -10 c17 -11 55 -91 49 -102 -3 -6 1 -10 9 -10 9 0 16 -6 16 -14
0 -15 -27 -29 -40 -21 -4 3 -6 -4 -3 -15 3 -11 10 -23 16 -27 5 -3 7 -1 3 5
-3 6 -2 14 4 17 6 4 9 3 8 -2 -1 -4 3 -18 10 -31 11 -20 10 -25 -13 -46 -14
-13 -25 -28 -25 -35 0 -6 -7 -11 -15 -11 -8 0 -15 7 -15 15 0 8 4 15 8 15 9 0
12 35 6 68 -3 13 -11 22 -22 21 -9 0 -12 -3 -5 -5 7 -3 9 -12 6 -20 -3 -7 -9
-12 -13 -9 -5 3 -11 1 -15 -5 -3 -5 1 -10 9 -10 9 0 16 -2 16 -4 0 -2 2 -10 5
-18 6 -16 -66 -16 -107 1 -38 15 -35 29 8 37 42 8 53 27 29 51 -12 11 -14 18
-6 21 6 2 11 11 11 20 0 13 2 14 9 4 6 -10 10 -10 20 2 14 17 7 36 -14 36 -25
0 -28 21 -5 37 12 8 19 21 16 29 -6 15 21 19 40 6z m-1106 -37 c0 -8 -4 -15
-9 -15 -5 0 -16 -6 -23 -14 -8 -7 -25 -16 -38 -20 -23 -6 -24 -5 -6 6 11 7 29
23 40 34 25 26 36 29 36 9z m224 -15 c-2 -48 -3 -50 -19 -50 -16 0 -20 35 -9
64 10 27 29 18 28 -14z m6049 -83 c-6 -10 -43 10 -80 46 -35 32 -41 53 -21 59
14 5 108 -93 101 -105z m-5073 99 c0 -3 -4 -8 -10 -11 -5 -3 -10 -1 -10 4 0 6
5 11 10 11 6 0 10 -2 10 -4z m440 -17 c0 -5 -7 -9 -15 -9 -8 0 -15 7 -15 15 0
9 6 12 15 9 8 -4 15 -10 15 -15z m655 2 c-8 -13 -35 -15 -35 -2 0 5 8 11 18
13 21 5 26 2 17 -11z m110 -1 c-3 -5 -16 -10 -28 -10 -18 0 -19 2 -7 10 20 13
43 13 35 0z m-1518 -16 c-3 -3 -12 -4 -19 -1 -8 3 -5 6 6 6 11 1 17 -2 13 -5z
m329 -9 c8 -21 -6 -41 -17 -24 -12 19 -11 39 1 39 6 0 13 -7 16 -15z m294 -11
c0 -20 -30 -30 -40 -13 -11 17 7 40 26 32 8 -3 14 -12 14 -19z m180 18 c0 -20
-27 -43 -43 -36 -17 6 -23 25 -10 37 9 10 53 9 53 -1z m1115 -22 c3 -6 -1 -7
-9 -4 -18 7 -21 14 -7 14 6 0 13 -4 16 -10z m-2441 -15 c3 -8 12 -15 21 -15 8
0 15 -4 15 -8 0 -15 -75 -72 -94 -72 -13 0 -5 38 10 44 8 3 14 14 12 23 -3 17
10 42 23 43 4 0 9 -7 13 -15z m136 5 c-8 -5 -22 -10 -30 -10 -13 0 -13 1 0 10
8 5 22 10 30 10 13 0 13 -1 0 -10z m2620 0 c-20 -13 -43 -13 -35 0 3 6 16 10
28 10 18 0 19 -2 7 -10z m-2300 -10 c13 -9 13 -10 0 -10 -8 0 -22 5 -30 10
-13 9 -13 10 0 10 8 0 22 -5 30 -10z m2394 -6 c17 -17 21 -34 8 -34 -5 0 -19
-9 -32 -20 -30 -26 -37 -25 -44 5 -8 30 -20 32 -39 4 -11 -15 -16 -17 -20 -7
-2 7 -8 10 -12 6 -4 -4 0 -19 9 -33 9 -14 12 -25 6 -25 -5 0 -10 5 -10 11 0
16 -80 5 -91 -12 -4 -8 -11 -10 -16 -6 -10 11 43 55 97 80 25 11 47 24 50 28
5 7 35 16 62 18 9 0 24 -6 32 -15z m-3554 -4 c24 -15 7 -18 -25 -4 -23 10 -25
13 -10 13 11 1 27 -3 35 -9z m466 -48 c-15 -15 -16 -15 -16 4 0 28 24 52 28
28 2 -9 -3 -24 -12 -32z m154 37 c0 -6 -7 -17 -15 -25 -8 -9 -15 -29 -15 -45
0 -16 -4 -29 -10 -29 -5 0 -10 5 -10 10 0 6 -4 10 -10 10 -5 0 -10 -11 -10
-25 0 -15 -6 -25 -15 -25 -7 0 -19 -8 -24 -17 -10 -17 -10 -17 -11 0 0 20 -11
22 -28 5 -9 -9 -12 -9 -12 0 0 7 3 12 8 12 4 0 18 18 32 40 17 28 31 40 47 40
13 0 23 5 23 12 0 14 30 48 42 48 4 0 8 -5 8 -11z m2765 1 c-3 -5 -12 -10 -18
-10 -7 0 -6 4 3 10 19 12 23 12 15 0z m-1815 -11 c0 -6 7 -9 15 -5 9 3 15 0
15 -8 0 -9 -8 -12 -25 -8 -24 4 -36 32 -15 32 6 0 10 -5 10 -11z m138 -11 c2
-12 -2 -15 -17 -11 -12 3 -21 12 -21 20 0 20 34 12 38 -9z m1586 -13 c-4 -8
-10 -15 -15 -15 -4 0 -6 7 -3 15 4 8 10 15 15 15 4 0 6 -7 3 -15z m-2434 -5
c-8 -5 -19 -10 -25 -10 -5 0 -3 5 5 10 8 5 20 10 25 10 6 0 3 -5 -5 -10z
m1105 -10 c-4 -6 -1 -18 6 -26 10 -13 10 -17 -2 -24 -8 -6 -15 -6 -17 0 -2 5
-9 8 -15 6 -7 -1 -9 -1 -4 1 4 3 7 10 7 17 0 7 5 17 12 24 15 15 21 16 13 2z
m-1872 -17 c27 -8 22 -37 -5 -29 -13 3 -29 6 -35 6 -7 0 -13 9 -13 21 0 16 4
19 18 14 9 -4 25 -10 35 -12z m3035 -9 c-11 -11 -23 -14 -35 -9 -16 7 -15 9 7
15 40 12 45 11 28 -6z m-1478 -19 c0 -9 -9 -15 -22 -15 -22 1 -23 1 -4 15 25
19 26 19 26 0z m1553 -15 c-5 -20 -15 -25 -26 -13 -8 7 11 33 23 33 5 0 6 -9
3 -20z m-2743 -5 c-7 -9 -15 -13 -17 -11 -7 7 7 26 19 26 6 0 6 -6 -2 -15z
m-460 -10 c0 -8 9 -19 21 -25 11 -7 18 -14 16 -17 -4 -4 -30 10 -66 33 -1 2 0
7 4 13 9 16 25 13 25 -4z m3237 -1 c-3 -3 -12 -4 -19 -1 -8 3 -5 6 6 6 11 1
17 -2 13 -5z m-2787 -24 c0 -5 -4 -10 -10 -10 -5 0 -10 5 -10 10 0 6 5 10 10
10 6 0 10 -4 10 -10z m426 -17 c-7 -7 -26 7 -26 19 0 6 6 6 15 -2 9 -7 13 -15
11 -17z m1121 5 c-3 -8 -6 -5 -6 6 -1 11 2 17 5 13 3 -3 4 -12 1 -19z m1130
16 c-3 -3 -12 -4 -19 -1 -8 3 -5 6 6 6 11 1 17 -2 13 -5z m-2442 -14 c-3 -5
-11 -10 -16 -10 -6 0 -7 5 -4 10 3 6 11 10 16 10 6 0 7 -4 4 -10z m700 0 c-3
-5 -12 -10 -18 -10 -7 0 -6 4 3 10 19 12 23 12 15 0z m1850 -10 c-3 -5 -13
-10 -21 -10 -8 0 -14 5 -14 10 0 6 9 10 21 10 11 0 17 -4 14 -10z m-2668 -6
c-3 -3 -12 -4 -19 -1 -8 3 -5 6 6 6 11 1 17 -2 13 -5z m1440 -51 c-9 -9 -20
-13 -24 -9 -4 4 -1 11 7 16 25 16 35 11 17 -7z m50 1 c-3 -3 -12 -4 -19 -1 -8
3 -5 6 6 6 11 1 17 -2 13 -5z m33 -4 c0 -5 -4 -10 -10 -10 -5 0 -10 5 -10 10
0 6 5 10 10 10 6 0 10 -4 10 -10z m-65 -20 c-3 -5 -11 -10 -16 -10 -6 0 -7 5
-4 10 3 6 11 10 16 10 6 0 7 -4 4 -10z m-1585 -10 c0 -5 -8 -10 -17 -10 -15 0
-16 2 -3 10 19 12 20 12 20 0z m1511 -53 c20 -5 20 -7 5 -22 -18 -18 -21 -30
-6 -20 6 3 10 -3 10 -15 0 -19 -2 -20 -15 -6 -9 8 -14 18 -13 22 2 4 -7 10
-19 15 -15 6 -20 13 -16 28 3 12 1 21 -6 21 -9 0 -9 6 0 23 12 22 13 22 25 -9
7 -17 23 -34 35 -37z m867 25 c6 -18 -15 -14 -22 4 -4 10 -1 14 6 12 6 -2 14
-10 16 -16z m108 -48 c1 -29 -3 -44 -11 -44 -7 0 -16 -15 -20 -32 l-8 -33 -4
29 c-3 16 0 33 6 39 6 6 11 21 11 33 0 13 5 26 11 29 6 4 8 14 4 23 -3 9 -2
13 2 8 4 -4 9 -28 9 -52z m-571 6 c3 -5 1 -10 -4 -10 -6 0 -11 5 -11 10 0 6 2
10 4 10 3 0 8 -4 11 -10z m-125 -30 c-13 -24 -43 -23 -48 2 -2 12 5 18 25 20
36 4 37 4 23 -22z m425 20 c7 -11 -49 -42 -59 -33 -8 9 24 43 40 43 7 0 15 -4
19 -10z m-1338 -22 c-3 -8 -6 -5 -6 6 -1 11 2 17 5 13 3 -3 4 -12 1 -19z m693
12 c0 -5 -4 -10 -10 -10 -5 0 -10 5 -10 10 0 6 5 10 10 10 6 0 10 -4 10 -10z
m40 -1 c0 -5 -4 -7 -10 -4 -5 3 -10 1 -10 -6 0 -7 -3 -10 -6 -6 -8 7 4 27 17
27 5 0 9 -5 9 -11z m-570 -25 c0 -8 4 -14 9 -14 5 0 13 -9 16 -21 4 -11 26
-29 48 -39 43 -19 34 -25 -22 -14 -17 4 -31 13 -31 21 0 8 -4 12 -9 9 -5 -4
-12 8 -16 25 -4 17 -14 33 -22 36 -12 5 -12 7 -2 14 16 10 29 2 29 -17z m1073
2 c16 -13 14 -16 -29 -40 -26 -14 -49 -24 -51 -22 -8 7 7 45 23 61 19 18 33
19 57 1z m-517 -31 c11 -23 10 -24 -7 -14 -10 5 -19 6 -19 2 0 -4 -5 -2 -11 4
-13 13 -4 33 14 33 7 0 17 -11 23 -25z m-641 -35 c3 -5 1 -10 -4 -10 -6 0 -11
5 -11 10 0 6 2 10 4 10 3 0 8 -4 11 -10z m623 -15 c10 -11 27 -20 40 -20 32 0
30 -18 -4 -30 -16 -5 -33 -15 -37 -22 -6 -10 -13 -9 -32 3 -14 9 -31 14 -40
11 -8 -4 -17 -2 -20 3 -13 20 -37 -3 -33 -31 5 -31 1 -34 -22 -19 -10 6 -11
10 -2 10 25 0 11 20 -20 28 -40 10 -42 23 -5 33 16 4 39 18 52 31 30 30 99 32
123 3z m893 -3 c-14 -27 -14 -32 3 -32 22 0 8 -41 -23 -67 -33 -28 -45 -29
-31 -3 6 11 18 20 26 20 13 0 15 8 11 33 -4 29 11 83 20 73 3 -2 0 -13 -6 -24z
m-1127 -3 c-3 -5 -10 -7 -15 -3 -5 3 -7 10 -3 15 3 5 10 7 15 3 5 -3 7 -10 3
-15z m394 7 c44 13 61 12 73 -2 9 -11 7 -14 -9 -14 -12 0 -24 -4 -27 -10 -3
-5 -22 -7 -41 -4 -33 5 -35 4 -29 -15 6 -20 4 -20 -19 -10 -19 9 -23 15 -15
25 7 8 7 14 -1 19 -19 12 0 25 22 14 11 -6 31 -7 46 -3z m172 -15 c0 -12 -57
-34 -69 -26 -6 3 -11 13 -11 21 0 10 12 14 40 14 22 0 40 -4 40 -9z m100 -1
c0 -5 -5 -10 -11 -10 -5 0 -7 5 -4 10 3 6 8 10 11 10 2 0 4 -4 4 -10z m500 0
c0 -5 -5 -10 -11 -10 -5 0 -7 5 -4 10 3 6 8 10 11 10 2 0 4 -4 4 -10z m-1485
-30 c3 -5 1 -10 -4 -10 -6 0 -11 5 -11 10 0 6 2 10 4 10 3 0 8 -4 11 -10z
m-1270 -10 c-3 -5 -10 -10 -16 -10 -5 0 -9 5 -9 10 0 6 7 10 16 10 8 0 12 -4
9 -10z m2689 -5 c-4 -8 -11 -15 -16 -15 -6 0 -5 6 2 15 7 8 14 15 16 15 2 0 1
-7 -2 -15z m256 -22 c0 -7 -11 -13 -25 -13 -18 0 -25 5 -25 18 0 10 3 21 6 25
9 9 44 -16 44 -30z m-1370 17 c-8 -5 -19 -10 -25 -10 -5 0 -3 5 5 10 8 5 20
10 25 10 6 0 3 -5 -5 -10z m25 -30 c3 -5 -1 -10 -10 -10 -9 0 -13 5 -10 10 3
6 8 10 10 10 2 0 7 -4 10 -10z m685 -6 c0 -8 -4 -12 -10 -9 -5 3 -10 10 -10
16 0 5 5 9 10 9 6 0 10 -7 10 -16z m-720 -14 c0 -5 -7 -7 -15 -4 -8 4 -15 8
-15 10 0 2 7 4 15 4 8 0 15 -4 15 -10z m610 -4 c0 -2 -7 -6 -15 -10 -8 -3 -15
-1 -15 4 0 6 7 10 15 10 8 0 15 -2 15 -4z m1060 -5 c0 -9 -24 -21 -41 -21 -5
0 -9 7 -9 15 0 9 9 15 25 15 14 0 25 -4 25 -9z m-192 -56 c-3 -3 -9 2 -12 12
-6 14 -5 15 5 6 7 -7 10 -15 7 -18z m-51 -22 c4 -10 10 -20 15 -23 4 -4 11
-21 15 -40 l6 -34 -28 22 c-39 31 -56 57 -49 76 8 21 33 20 41 -1z m-907 -28
c0 -10 -10 -15 -30 -15 -29 0 -38 9 -23 23 13 13 53 7 53 -8z m680 -75 c0 -5
-4 -10 -10 -10 -5 0 -10 5 -10 10 0 6 5 10 10 10 6 0 10 -4 10 -10z m-4430
-1845 c13 -14 19 -25 13 -25 -6 0 -18 11 -27 25 -9 14 -15 25 -13 25 2 0 14
-11 27 -25z m99 -75 c29 -22 76 -52 104 -67 125 -64 211 -104 260 -119 28 -8
62 -20 74 -25 49 -19 702 -179 733 -179 10 0 22 -4 25 -10 3 -5 17 -10 30 -10
23 0 192 -37 300 -65 28 -7 73 -18 100 -23 28 -6 109 -24 180 -41 72 -17 175
-40 230 -51 55 -12 127 -27 160 -35 33 -7 76 -16 95 -20 19 -3 73 -15 120 -25
47 -11 130 -29 185 -40 55 -12 120 -25 145 -31 142 -30 297 -62 460 -94 102
-20 226 -44 275 -55 318 -67 455 -82 668 -77 97 3 177 2 177 -2 0 -4 -8 -7
-17 -8 -10 0 -49 -4 -88 -8 -136 -14 -453 -10 -465 5 -3 4 -30 10 -60 13 -37
4 -50 3 -40 -3 13 -8 12 -10 -2 -10 -10 0 -18 7 -18 17 0 13 -3 14 -12 5 -15
-15 -29 -15 -25 0 1 7 -22 16 -61 24 -52 9 -66 9 -77 -2 -18 -19 -26 -18 -23
4 2 12 -4 18 -22 19 -14 2 -60 6 -102 9 -49 4 -78 11 -78 18 0 7 -41 18 -102
28 -98 16 -134 23 -238 48 -25 5 -92 19 -150 31 -58 11 -125 24 -150 29 -25 6
-76 15 -115 21 -38 6 -75 15 -82 20 -6 6 -53 15 -105 22 -51 6 -96 16 -100 23
-4 6 -40 15 -80 19 -40 3 -78 11 -85 16 -6 6 -33 14 -60 18 -26 5 -56 12 -65
16 -13 5 -18 2 -19 -11 -1 -17 -2 -17 -6 -1 -3 10 -14 17 -28 17 -13 0 -26 4
-29 9 -3 5 -25 11 -48 15 -24 3 -54 7 -68 10 -121 25 -157 33 -170 38 -8 4
-27 9 -42 12 -16 3 -39 9 -53 12 -19 5 -25 2 -25 -10 0 -11 9 -16 30 -16 20 0
30 -5 30 -15 0 -8 -7 -15 -15 -15 -8 0 -15 -4 -15 -10 0 -5 -12 -10 -27 -9
-27 0 -28 0 -5 10 24 9 22 29 -4 29 -8 0 -14 10 -14 25 0 20 -6 25 -37 30 -21
4 -48 10 -61 16 -30 12 -99 12 -107 -1 -9 -15 -35 -12 -35 4 0 8 8 17 18 19
13 4 11 5 -6 6 -12 0 -30 5 -40 11 -34 19 -216 53 -254 47 -15 -2 -26 1 -25 6
2 12 -41 26 -108 37 -27 4 -64 13 -82 21 -24 10 -37 10 -55 2 -13 -6 -30 -14
-38 -16 -8 -3 -3 -6 13 -6 25 -1 27 -4 27 -41 0 -38 1 -40 33 -41 17 -1 37 -2
42 -3 29 -4 173 -39 193 -47 34 -13 62 -11 62 5 0 18 30 30 44 16 8 -8 4 -12
-11 -16 -30 -8 -18 -33 16 -32 15 1 36 -4 46 -9 31 -16 146 -24 185 -13 38 11
100 4 100 -12 0 -6 -14 -8 -34 -4 -18 4 -44 2 -57 -3 l-24 -10 27 0 c15 -1 42
-7 60 -15 59 -24 101 -35 110 -30 6 4 20 2 31 -4 43 -19 128 -34 169 -28 27 3
34 2 18 -2 -37 -12 -8 -25 56 -26 29 0 48 -4 41 -8 -6 -4 26 -7 72 -7 46 0 86
-2 89 -5 3 -3 -8 -6 -24 -6 -25 -1 -27 -2 -11 -11 10 -6 25 -8 32 -5 8 3 27
-1 42 -9 15 -8 49 -15 75 -15 25 0 48 -4 50 -9 3 -9 115 -32 158 -34 8 0 20
-6 28 -13 7 -7 34 -16 60 -19 26 -3 70 -11 97 -17 28 -7 64 -11 80 -9 23 1 27
0 15 -8 -9 -6 -10 -11 -3 -11 6 0 18 -3 27 -6 11 -4 16 -1 16 10 0 9 4 16 10
16 5 0 7 -6 4 -14 -5 -14 34 -26 87 -26 15 0 31 -4 34 -10 3 -5 28 -10 56 -10
27 0 49 -4 49 -10 0 -5 17 -10 38 -10 21 0 43 -5 49 -11 6 -6 33 -13 58 -15
26 -3 55 -9 64 -14 10 -5 27 -7 38 -4 12 3 24 1 27 -5 9 -15 39 -14 34 0 -2 7
-22 19 -45 28 -50 19 -69 36 -30 27 17 -4 27 -2 27 5 0 14 49 3 71 -17 9 -8
24 -12 34 -8 17 7 17 6 0 -19 -16 -25 -16 -27 -1 -27 9 0 27 -6 39 -14 12 -8
63 -21 112 -31 50 -9 108 -21 130 -26 22 -5 65 -13 95 -18 30 -5 111 -20 180
-34 128 -26 174 -34 245 -42 72 -8 108 -14 113 -20 8 -8 -34 -6 -158 9 -94 12
-395 70 -935 181 -33 7 -118 25 -190 39 -163 34 -419 90 -550 121 -55 13 -138
31 -185 40 -47 9 -98 20 -115 25 -16 5 -64 17 -105 25 -41 9 -113 25 -160 36
-47 11 -105 25 -130 30 -25 6 -61 14 -80 19 -19 5 -96 23 -170 40 -74 17 -162
37 -195 45 -275 64 -486 115 -510 125 -11 5 -58 21 -105 37 -67 22 -79 29 -57
31 16 2 35 -2 43 -9 8 -6 18 -9 21 -5 4 4 1 11 -7 16 -12 7 -9 10 12 10 19 0
26 -5 24 -17 -2 -13 11 -22 48 -35 55 -20 79 -23 56 -8 -13 9 -13 11 0 19 23
16 3 25 -25 13 -32 -15 -45 -15 -45 -2 0 6 8 10 18 11 13 0 14 2 2 6 -8 3 -17
9 -20 13 -3 4 -18 12 -35 18 l-30 10 33 1 c17 1 32 -3 32 -9 0 -5 18 -10 40
-10 22 0 40 5 40 10 0 6 -7 10 -16 10 -20 0 -187 56 -242 81 -24 11 -47 17
-52 14 -6 -4 -10 1 -10 9 0 9 -7 16 -16 16 -37 0 -209 103 -289 174 -54 48
-32 45 34 -4z m5622 -174 c-7 -8 -10 -24 -6 -34 3 -12 -1 -26 -10 -36 -20 -20
-25 -20 -25 0 0 8 5 12 10 9 6 -3 10 1 10 9 0 10 -6 13 -15 10 -8 -4 -15 -11
-15 -17 0 -6 -3 -8 -6 -4 -4 3 6 26 22 51 18 28 32 42 38 36 6 -6 4 -15 -3
-24z m9 -93 c-11 -17 -11 -17 -6 0 3 10 6 24 7 30 0 9 2 9 5 0 3 -7 0 -20 -6
-30z m-60 -3 c0 -5 -4 -10 -10 -10 -5 0 -10 5 -10 10 0 6 5 10 10 10 6 0 10
-4 10 -10z m45 -21 c11 -16 1 -19 -13 -3 -7 8 -8 14 -3 14 5 0 13 -5 16 -11z
m-5305 -9 c8 -5 11 -10 5 -10 -5 0 -17 5 -25 10 -8 5 -10 10 -5 10 6 0 17 -5
25 -10z m5247 -22 c-3 -8 -6 -5 -6 6 -1 11 2 17 5 13 3 -3 4 -12 1 -19z
m-4888 -45 c-1 -53 -6 -49 -11 10 -2 20 0 37 4 37 4 0 8 -21 7 -47z m161 -13
c0 -12 -17 -12 -45 0 -17 7 -15 9 13 9 17 1 32 -3 32 -9z m84 -26 c7 -19 0
-34 -17 -34 -7 0 -6 4 3 10 11 7 4 10 -27 10 -24 0 -43 4 -43 9 0 8 15 13 66
20 7 0 15 -6 18 -15z m76 6 c0 -5 -10 -10 -22 -10 -19 0 -20 2 -8 10 19 13 30
13 30 0z m-195 -10 c-3 -5 -15 -10 -26 -10 -10 0 -19 5 -19 10 0 6 12 10 26
10 14 0 23 -4 19 -10z m300 -40 c0 -7 -6 -15 -12 -17 -8 -3 -13 4 -13 17 0 13
5 20 13 18 6 -3 12 -11 12 -18z m88 -31 c12 -1 4 -5 -18 -9 -44 -9 -50 -7 -40
10 4 6 14 9 22 6 8 -3 24 -7 36 -7z m82 1 c13 -6 15 -9 5 -9 -8 0 -22 4 -30 9
-18 12 -2 12 25 0z m788 -27 c-7 -2 -19 -2 -25 0 -7 3 -2 5 12 5 14 0 19 -2
13 -5z m-513 -45 c0 -5 -8 -8 -17 -6 -10 2 -17 -3 -15 -9 3 -16 -24 -17 -33
-3 -11 18 14 38 40 32 14 -2 25 -9 25 -14z m45 -8 c0 -8 11 -17 24 -18 15 -2
21 0 17 7 -4 6 -3 11 3 11 5 0 13 -5 17 -11 4 -6 20 -8 40 -4 38 7 40 -10 4
-33 -17 -10 -24 -10 -43 2 -12 8 -42 18 -67 22 -35 6 -40 9 -25 15 11 4 14 8
8 8 -7 1 -13 6 -13 12 0 6 8 9 18 7 9 -2 17 -10 17 -18z m822 -26 c-3 -3 -12
-4 -19 -1 -8 3 -5 6 6 6 11 1 17 -2 13 -5z m-832 -14 c7 -11 -9 -11 -45 0 -24
8 -24 8 7 9 17 1 35 -3 38 -9z m219 4 c28 -11 18 -34 -13 -34 -31 0 -47 13
-36 30 7 11 26 13 49 4z m723 -10 c-3 -3 -12 -4 -19 -1 -8 3 -5 6 6 6 11 1 17
-2 13 -5z m-537 -35 c0 -4 12 -10 28 -12 15 -2 -5 -5 -45 -6 -77 -1 -104 13
-51 27 35 9 68 5 68 -9z m-115 1 c4 -6 -5 -10 -20 -10 -15 0 -24 4 -20 10 3 6
12 10 20 10 8 0 17 -4 20 -10z m3515 1 c0 -5 -12 -16 -26 -26 l-27 -17 19 26
c19 26 34 33 34 17z m-3105 -83 c-3 -8 -26 -13 -59 -14 -46 0 -52 2 -38 13 23
17 103 17 97 1z m65 2 c12 -8 11 -10 -7 -10 -13 0 -23 5 -23 10 0 13 11 13 30
0z m2950 -4 c0 -2 -7 -7 -16 -10 -8 -3 -12 -2 -9 4 6 10 25 14 25 6z m-2163
-12 c-3 -3 -12 -4 -19 -1 -8 3 -5 6 6 6 11 1 17 -2 13 -5z m-747 -8 c0 -2 -7
-9 -15 -16 -12 -10 -15 -10 -15 4 0 9 7 16 15 16 8 0 15 -2 15 -4z m165 -36
c-27 -12 -35 -12 -35 0 0 6 12 10 28 9 24 0 25 -1 7 -9z m150 -20 c-3 -5 1
-11 7 -14 7 -4 -3 -4 -22 -2 -19 3 -29 2 -22 -1 15 -6 16 -33 1 -33 -5 0 -7 5
-4 10 4 6 -14 10 -47 11 -45 1 -49 3 -23 9 29 7 29 8 -9 9 -22 0 -36 4 -33 7
4 4 34 6 67 6 33 0 60 3 60 8 0 5 7 7 15 4 8 -4 13 -10 10 -14z m742 4 c-3 -3
-12 -4 -19 -1 -8 3 -5 6 6 6 11 1 17 -2 13 -5z m-687 -49 c0 -16 -17 -19 -46
-8 -16 6 -16 7 2 14 30 12 44 10 44 -6z m190 -41 c0 -2 -7 -4 -15 -4 -8 0 -15
4 -15 10 0 5 7 7 15 4 8 -4 15 -8 15 -10z m405 -44 c-3 -5 -11 -10 -16 -10 -6
0 -7 5 -4 10 3 6 11 10 16 10 6 0 7 -4 4 -10z m-35 -10 c0 -5 -18 -10 -40 -10
-22 0 -40 5 -40 10 0 6 18 10 40 10 22 0 40 -4 40 -10z m77 -10 c-4 -15 0 -20
16 -20 11 0 18 -3 15 -6 -3 -3 -23 -2 -44 2 -36 7 -37 8 -16 17 12 6 22 14 22
19 0 4 3 8 6 8 4 0 4 -9 1 -20z m-82 -19 c-7 -12 -64 -11 -71 1 -3 4 13 8 36
8 23 0 39 -4 35 -9z m260 -1 c-11 -5 -33 -9 -48 -9 -34 -1 -26 -21 9 -21 13 0
24 -4 24 -10 0 -14 -15 -13 -55 4 -60 25 -39 41 60 44 25 0 27 -1 10 -8z
m-115 -30 c0 -5 -4 -10 -9 -10 -6 0 -13 5 -16 10 -3 6 1 10 9 10 9 0 16 -4 16
-10z m267 -6 c12 -11 13 -18 4 -27 -8 -8 -11 -7 -11 6 0 9 -7 17 -15 17 -8 0
-15 5 -15 10 0 15 19 12 37 -6z m-34 -51 c-7 -2 -21 -2 -30 0 -10 3 -4 5 12 5
17 0 24 -2 18 -5z m9127 -264 c0 -6 -15 -30 -34 -55 -43 -56 -51 -91 -36 -155
14 -59 6 -74 -22 -39 -17 21 -20 34 -15 91 6 74 40 152 71 167 23 10 36 7 36
-9z m63 -60 c28 -53 5 -155 -43 -189 -35 -25 -60 -17 -59 19 0 22 2 23 11 10
8 -12 16 -13 33 -5 19 9 22 17 20 61 -4 98 -6 104 -17 65 l-11 -35 -9 27 c-8
22 -5 33 13 58 28 36 38 35 62 -11z m-93 -49 c0 -5 -4 -10 -9 -10 -6 0 -13 5
-16 10 -3 6 1 10 9 10 9 0 16 -4 16 -10z m-33 -62 c-3 -8 -6 -5 -6 6 -1 11 2
17 5 13 3 -3 4 -12 1 -19z m-1562 -264 c65 -14 121 -27 124 -29 7 -8 -48 -73
-92 -109 -24 -20 -70 -48 -103 -63 -49 -23 -73 -28 -141 -28 -45 0 -86 5 -92
10 -6 7 11 44 51 110 92 153 86 146 111 140 12 -3 76 -17 142 -31z m1165
-1183 c-35 -119 -96 -227 -169 -301 -65 -66 -147 -128 -156 -118 -3 3 17 34
43 69 61 81 184 261 247 362 27 43 51 74 53 68 2 -5 -6 -41 -18 -80z"/>
<path d="M2795 13890 c-3 -5 -1 -10 4 -10 6 0 11 5 11 10 0 6 -2 10 -4 10 -3
0 -8 -4 -11 -10z"/>
<path d="M5024 12890 c-29 -12 -58 -84 -43 -111 16 -31 59 -21 86 20 27 40 29
64 7 85 -17 18 -20 18 -50 6z"/>
<path d="M5481 12953 c-30 -31 -94 -199 -89 -235 5 -35 61 -38 83 -4 27 41 85
214 78 233 -15 40 -36 41 -72 6z"/>
<path d="M5688 12923 c-20 -22 -88 -206 -88 -239 0 -42 63 -44 89 -2 28 46 79
210 72 232 -10 27 -52 32 -73 9z"/>
<path d="M4270 11924 c-54 -23 -95 -59 -129 -113 -19 -29 -85 -196 -158 -398
-138 -384 -153 -452 -118 -526 23 -49 72 -78 132 -78 115 -1 204 83 261 248
11 32 37 103 57 158 147 402 169 470 173 545 3 66 1 79 -20 110 -43 64 -124
86 -198 54z"/>
<path d="M5547 11706 c-55 -20 -103 -61 -142 -119 -22 -34 -79 -177 -160 -402
-161 -444 -168 -497 -78 -575 29 -26 42 -30 90 -30 99 0 173 52 228 160 23 46
150 389 236 638 43 125 50 201 23 258 -30 63 -123 97 -197 70z"/>
<path d="M6350 11559 c-84 -33 -153 -117 -195 -236 -60 -174 -6 -303 127 -303
91 0 163 49 224 153 71 121 89 259 43 333 -34 56 -129 81 -199 53z"/>
<path d="M4975 10061 c-7 -15 -16 -43 -20 -62 l-7 -36 46 -6 c57 -8 73 -2 91
34 28 53 13 76 -56 89 -36 7 -41 5 -54 -19z"/>
<path d="M4914 9894 c-8 -19 -17 -48 -20 -63 -6 -28 -5 -29 46 -36 56 -8 83 7
101 54 16 41 3 59 -52 70 -27 6 -52 11 -55 11 -3 0 -12 -16 -20 -36z"/>
<path d="M5557 9958 c-28 -29 -89 -198 -85 -235 4 -37 48 -45 75 -13 22 25 82
185 82 221 2 50 -36 63 -72 27z"/>
<path d="M5877 9902 c-8 -9 -20 -29 -26 -45 -22 -56 49 -84 84 -34 41 59 -11
131 -58 79z"/>
<path d="M5810 9740 c-44 -44 -33 -110 20 -110 51 0 92 84 58 118 -18 18 -56
14 -78 -8z"/>
<path d="M8320 8908 c0 -9 5 -20 10 -23 13 -8 13 5 0 25 -8 13 -10 13 -10 -2z"/>
<path d="M8341 8563 c-1 -23 3 -44 7 -47 4 -2 6 12 4 32 -5 56 -10 62 -11 15z"/>
<path d="M3275 8910 c-6 -10 -1 -11 18 -6 30 7 77 -11 77 -31 0 -7 9 -13 20
-13 11 0 20 5 20 10 0 6 -5 10 -11 10 -7 0 -17 7 -23 16 -15 20 -91 31 -101
14z"/>
<path d="M2596 8891 c15 -14 54 -23 54 -13 0 11 -24 22 -48 22 -10 0 -12 -3
-6 -9z"/>
<path d="M3688 8888 c5 -5 16 -8 23 -6 8 3 3 7 -10 11 -17 4 -21 3 -13 -5z"/>
<path d="M2670 8880 c0 -5 7 -10 16 -10 8 0 12 5 9 10 -3 6 -10 10 -16 10 -5
0 -9 -4 -9 -10z"/>
<path d="M3171 8874 c0 -11 3 -14 6 -6 3 7 2 16 -1 19 -3 4 -6 -2 -5 -13z"/>
<path d="M3238 8878 c7 -9 26 -15 42 -14 39 2 51 16 12 16 -16 0 -39 3 -49 7
-15 6 -16 4 -5 -9z"/>
<path d="M3330 8870 c0 -5 7 -10 15 -10 8 0 15 5 15 10 0 6 -7 10 -15 10 -8 0
-15 -4 -15 -10z"/>
<path d="M2890 8860 c0 -5 6 -10 14 -10 8 0 18 5 21 10 3 6 -3 10 -14 10 -12
0 -21 -4 -21 -10z"/>
<path d="M3665 8832 c-22 -2 -44 -8 -50 -14 -7 -7 4 -9 38 -5 39 4 49 1 58
-14 5 -11 16 -19 24 -19 22 0 18 21 -5 27 -11 3 -18 9 -15 13 8 13 -5 16 -50
12z"/>
<path d="M3790 8790 c0 -28 2 -31 15 -20 19 16 45 6 45 -18 0 -18 4 -19 46
-11 25 5 50 11 55 15 5 3 16 1 23 -5 10 -9 15 -8 19 3 3 8 3 17 -1 21 -17 16
-75 34 -136 40 l-66 7 0 -32z"/>
<path d="M4223 8770 c1 -12 11 -23 24 -26 17 -5 23 -13 23 -34 0 -35 13 -46
91 -71 35 -12 69 -25 75 -30 8 -6 21 -5 38 2 29 14 33 27 12 35 -21 8 -8 33
14 27 10 -3 21 0 24 5 7 12 -100 65 -117 58 -9 -3 -9 -5 1 -5 6 -1 12 -5 12
-11 0 -18 -27 -10 -65 20 -34 27 -90 50 -122 50 -6 0 -11 -9 -10 -20z m207
-94 c0 -2 -7 -6 -15 -10 -8 -3 -15 -1 -15 4 0 6 7 10 15 10 8 0 15 -2 15 -4z"/>
<path d="M3536 8764 c-4 -11 -12 -13 -28 -8 -21 6 -21 5 -9 -10 8 -10 25 -16
40 -14 21 2 26 -1 25 -19 -1 -30 36 -32 43 -3 3 11 12 20 19 20 25 0 14 15
-25 33 -46 21 -57 21 -65 1z"/>
<path d="M3672 8740 c15 -24 33 -27 24 -4 -3 9 -6 18 -6 20 0 2 -7 4 -15 4
-13 0 -13 -3 -3 -20z"/>
<path d="M4010 8756 c0 -2 8 -10 18 -17 15 -13 16 -12 3 4 -13 16 -21 21 -21
13z"/>
<path d="M2565 8710 c3 -5 13 -10 21 -10 8 0 14 5 14 10 0 6 -9 10 -21 10 -11
0 -17 -4 -14 -10z"/>
<path d="M3522 8708 c5 -15 28 -23 28 -10 0 5 -7 13 -16 16 -10 4 -14 1 -12
-6z"/>
<path d="M2830 8695 c0 -10 10 -15 30 -15 32 0 40 14 14 24 -27 10 -44 7 -44
-9z"/>
<path d="M3643 8689 c-17 -17 23 -47 54 -41 27 5 31 27 6 35 -10 2 -25 8 -33
11 -9 4 -21 1 -27 -5z"/>
<path d="M3947 8676 c-4 -10 -1 -13 9 -9 15 6 19 23 5 23 -5 0 -11 -7 -14 -14z"/>
<path d="M3980 8650 c-18 -12 -2 -12 25 0 13 6 15 9 5 9 -8 0 -22 -4 -30 -9z"/>
<path d="M3000 8640 c0 -5 5 -10 10 -10 6 0 10 5 10 10 0 6 -4 10 -10 10 -5 0
-10 -4 -10 -10z"/>
<path d="M3305 8630 c4 -6 11 -8 16 -5 14 9 11 15 -7 15 -8 0 -12 -5 -9 -10z"/>
<path d="M4616 8584 c-9 -25 -2 -26 17 -4 13 16 14 20 3 20 -8 0 -17 -7 -20
-16z"/>
<path d="M4731 8591 c-7 -5 -11 -13 -7 -19 10 -17 -22 -35 -64 -36 -45 -1 -52
-11 -15 -20 13 -3 33 -15 43 -27 29 -30 82 -35 111 -10 28 24 33 25 49 9 9 -9
15 -9 24 0 7 7 24 12 38 12 15 0 29 3 33 6 13 13 -23 34 -57 34 -23 0 -39 6
-49 20 -22 32 -78 48 -106 31z m29 -61 c0 -5 -7 -10 -16 -10 -8 0 -12 5 -9 10
3 6 10 10 16 10 5 0 9 -4 9 -10z"/>
<path d="M3981 8561 c-15 -28 -14 -31 12 -27 13 2 22 10 22 21 0 26 -22 30
-34 6z"/>
<path d="M4427 8519 c7 -7 15 -10 18 -7 3 3 -2 9 -12 12 -14 6 -15 5 -6 -5z"/>
<path d="M3635 8490 c-4 -6 -14 -9 -24 -6 -10 4 -7 -2 7 -14 19 -16 28 -17 44
-9 11 6 18 12 16 13 -1 1 -10 7 -20 14 -12 9 -18 10 -23 2z"/>
<path d="M4130 8465 c14 -16 56 -20 64 -6 3 5 -8 11 -25 15 -47 9 -53 8 -39
-9z"/>
<path d="M3694 8450 c0 -23 6 -24 41 -8 34 15 32 25 -8 26 -26 1 -33 -3 -33
-18z"/>
<path d="M5100 8390 c0 -5 5 -10 11 -10 5 0 7 5 4 10 -3 6 -8 10 -11 10 -2 0
-4 -4 -4 -10z"/>
<path d="M3876 8330 c-11 -3 -15 -9 -10 -13 10 -6 42 9 34 16 -3 3 -14 1 -24
-3z"/>
<path d="M5021 8331 c-10 -6 -10 -10 -1 -16 13 -8 24 -1 19 14 -3 6 -10 7 -18
2z"/>
<path d="M4980 8303 c0 -3 8 -15 18 -26 17 -19 16 -19 -15 -12 -35 7 -43 -4
-18 -25 11 -9 18 -10 28 -1 8 6 17 8 20 4 4 -3 7 4 7 16 0 17 4 21 15 17 8 -3
15 -1 15 5 0 7 -10 9 -25 5 -18 -5 -25 -2 -25 9 0 8 -4 15 -10 15 -5 0 -10 -3
-10 -7z"/>
<path d="M4425 8110 c3 -5 10 -10 16 -10 5 0 9 5 9 10 0 6 -7 10 -16 10 -8 0
-12 -4 -9 -10z"/>
<path d="M4660 8060 c0 -5 7 -10 15 -10 8 0 15 5 15 10 0 6 -7 10 -15 10 -8 0
-15 -4 -15 -10z"/>
<path d="M4070 7975 c0 -8 7 -15 16 -15 14 0 14 3 4 15 -7 8 -14 15 -16 15 -2
0 -4 -7 -4 -15z"/>
<path d="M4330 7850 c-13 -8 -12 -10 3 -10 9 0 17 5 17 10 0 12 -1 12 -20 0z"/>
<path d="M3560 4510 c0 -5 7 -10 15 -10 8 0 15 5 15 10 0 6 -7 10 -15 10 -8 0
-15 -4 -15 -10z"/>
<path d="M3601 4474 c0 -11 3 -14 6 -6 3 7 2 16 -1 19 -3 4 -6 -2 -5 -13z"/>
<path d="M13366 4037 c3 -10 9 -15 12 -12 3 3 0 11 -7 18 -10 9 -11 8 -5 -6z"/>
<path d="M13385 3970 c-3 -5 -1 -10 4 -10 6 0 11 5 11 10 0 6 -2 10 -4 10 -3
0 -8 -4 -11 -10z"/>
<path d="M13376 3935 c-3 -8 -1 -15 3 -15 5 0 11 7 15 15 3 8 1 15 -3 15 -5 0
-11 -7 -15 -15z"/>
<path d="M4440 14820 c0 -5 7 -10 16 -10 8 0 12 5 9 10 -3 6 -10 10 -16 10 -5
0 -9 -4 -9 -10z"/>
<path d="M8850 13506 c0 -2 7 -7 16 -10 8 -3 12 -2 9 4 -6 10 -25 14 -25 6z"/>
<path d="M8825 13443 c-18 -18 -20 -30 -2 -15 6 5 23 12 37 14 25 3 25 3 2 10
-14 4 -28 1 -37 -9z"/>
<path d="M8820 12380 c12 -8 12 -10 -4 -16 -14 -5 -15 -9 -4 -15 13 -9 13 -9
-24 -13 -12 -1 -26 -46 -15 -46 13 0 60 30 47 30 -12 1 -11 3 3 14 14 11 15
15 5 19 -10 4 -10 6 0 6 19 1 14 31 -5 31 -15 0 -16 -2 -3 -10z"/>
<path d="M8795 12279 c-4 -6 -13 -8 -21 -5 -8 3 -14 -1 -14 -9 0 -8 7 -15 15
-15 22 0 18 -21 -5 -27 -20 -5 -28 -23 -11 -23 5 0 16 -3 25 -6 9 -3 16 -1 16
6 0 6 -4 8 -10 5 -17 -10 -11 5 11 28 11 12 25 30 30 40 8 13 6 17 -10 17 -11
0 -23 -5 -26 -11z"/>
<path d="M8850 12279 c0 -5 5 -7 10 -4 6 3 10 8 10 11 0 2 -4 4 -10 4 -5 0
-10 -5 -10 -11z"/>
<path d="M8745 12180 c3 -5 8 -10 11 -10 2 0 4 5 4 10 0 6 -5 10 -11 10 -5 0
-7 -4 -4 -10z"/>
<path d="M8790 12154 c0 -9 -6 -22 -13 -28 -7 -6 -10 -10 -8 -9 2 2 9 -1 16
-7 8 -6 12 1 13 25 2 19 0 35 -3 35 -3 0 -5 -7 -5 -16z"/>
<path d="M8810 12145 c0 -15 4 -24 10 -20 6 3 10 12 10 20 0 8 -4 17 -10 20
-6 4 -10 -5 -10 -20z"/>
<path d="M8715 12109 c-4 -6 -5 -12 -2 -15 2 -3 7 2 10 11 7 17 1 20 -8 4z"/>
<path d="M8766 12085 c4 -8 8 -15 10 -15 2 0 4 7 4 15 0 8 -4 15 -10 15 -5 0
-7 -7 -4 -15z"/>
<path d="M8690 12035 c-7 -8 -9 -15 -6 -15 4 0 14 7 22 15 9 8 11 15 6 15 -5
0 -15 -7 -22 -15z"/>
<path d="M8768 12013 c7 -3 16 -2 19 1 4 3 -2 6 -13 5 -11 0 -14 -3 -6 -6z"/>
<path d="M8675 11881 c-3 -5 -1 -12 5 -16 5 -3 10 1 10 9 0 18 -6 21 -15 7z"/>
<path d="M8721 11834 c0 -11 3 -14 6 -6 3 7 2 16 -1 19 -3 4 -6 -2 -5 -13z"/>
<path d="M8640 11815 c0 -8 2 -15 4 -15 2 0 6 7 10 15 3 8 1 15 -4 15 -6 0
-10 -7 -10 -15z"/>
<path d="M8688 11783 c7 -3 16 -2 19 1 4 3 -2 6 -13 5 -11 0 -14 -3 -6 -6z"/>
<path d="M8690 11749 c0 -5 5 -7 10 -4 6 3 10 8 10 11 0 2 -4 4 -10 4 -5 0
-10 -5 -10 -11z"/>
<path d="M8652 11660 c0 -14 2 -19 5 -12 2 6 2 18 0 25 -3 6 -5 1 -5 -13z"/>
<path d="M8600 11655 c-7 -9 -10 -18 -6 -22 3 -3 6 -1 6 6 0 7 5 9 10 6 6 -3
10 1 10 9 0 20 -4 20 -20 1z"/>
<path d="M8635 11610 c-3 -5 -1 -10 4 -10 6 0 11 5 11 10 0 6 -2 10 -4 10 -3
0 -8 -4 -11 -10z"/>
<path d="M8557 11593 c-4 -3 -7 -13 -7 -22 1 -13 3 -13 11 2 11 19 8 33 -4 20z"/>
<path d="M8607 11523 c-4 -3 -7 -11 -7 -17 0 -6 5 -5 12 2 6 6 9 14 7 17 -3 3
-9 2 -12 -2z"/>
<path d="M8556 11415 c-3 -8 -1 -15 4 -15 6 0 10 7 10 15 0 8 -2 15 -4 15 -2
0 -6 -7 -10 -15z"/>
<path d="M8550 11360 c0 -11 2 -20 4 -20 2 0 6 9 9 20 3 11 1 20 -4 20 -5 0
-9 -9 -9 -20z"/>
<path d="M8467 11263 c-4 -3 -7 -11 -7 -17 0 -6 5 -5 12 2 6 6 9 14 7 17 -3 3
-9 2 -12 -2z"/>
<path d="M8445 11200 c-3 -5 -1 -10 4 -10 6 0 11 5 11 10 0 6 -2 10 -4 10 -3
0 -8 -4 -11 -10z"/>
<path d="M8391 11054 c0 -11 3 -14 6 -6 3 7 2 16 -1 19 -3 4 -6 -2 -5 -13z"/>
<path d="M8441 11054 c0 -11 3 -14 6 -6 3 7 2 16 -1 19 -3 4 -6 -2 -5 -13z"/>
<path d="M8390 10910 c-9 -6 -10 -10 -3 -10 6 0 15 5 18 10 8 12 4 12 -15 0z"/>
<path d="M8330 10689 c0 -5 5 -7 10 -4 6 3 10 8 10 11 0 2 -4 4 -10 4 -5 0
-10 -5 -10 -11z"/>
<path d="M8250 10459 c0 -5 5 -7 10 -4 6 3 10 8 10 11 0 2 -4 4 -10 4 -5 0
-10 -5 -10 -11z"/>
<path d="M8056 10183 c-6 -14 -5 -15 5 -6 7 7 10 15 7 18 -3 3 -9 -2 -12 -12z"/>
<path d="M8131 10184 c0 -11 3 -14 6 -6 3 7 2 16 -1 19 -3 4 -6 -2 -5 -13z"/>
<path d="M8058 10113 c7 -3 16 -2 19 1 4 3 -2 6 -13 5 -11 0 -14 -3 -6 -6z"/>
<path d="M8100 10109 c0 -5 5 -7 10 -4 6 3 10 8 10 11 0 2 -4 4 -10 4 -5 0
-10 -5 -10 -11z"/>
<path d="M8052 9950 c0 -14 2 -19 5 -12 2 6 2 18 0 25 -3 6 -5 1 -5 -13z"/>
<path d="M7680 9070 c0 -5 5 -10 10 -10 6 0 10 5 10 10 0 6 -4 10 -10 10 -5 0
-10 -4 -10 -10z"/>
<path d="M7685 8930 c-3 -5 -1 -10 4 -10 6 0 11 5 11 10 0 6 -2 10 -4 10 -3 0
-8 -4 -11 -10z"/>
<path d="M7500 8339 c0 -5 5 -7 10 -4 6 3 10 8 10 11 0 2 -4 4 -10 4 -5 0 -10
-5 -10 -11z"/>
<path d="M6321 5484 c0 -11 3 -14 6 -6 3 7 2 16 -1 19 -3 4 -6 -2 -5 -13z"/>
<path d="M6247 5385 c-4 -8 -2 -17 3 -20 6 -4 10 3 10 14 0 25 -6 27 -13 6z"/>
<path d="M6281 5344 c0 -11 3 -14 6 -6 3 7 2 16 -1 19 -3 4 -6 -2 -5 -13z"/>
<path d="M6237 5315 c-19 -14 -23 -26 -6 -22 6 1 14 -4 17 -12 2 -8 0 -11 -5
-8 -6 4 -19 -3 -29 -15 -16 -18 -17 -20 -2 -15 18 6 31 -15 22 -38 -4 -8 -2
-15 3 -15 18 0 22 12 13 36 -6 15 -6 26 1 30 6 3 7 20 4 37 l-7 32 26 -30 25
-30 0 30 c0 26 -2 27 -9 10 -7 -16 -9 -16 -9 -4 -1 23 -23 30 -44 14z"/>
</g>
</svg>
