<?xml version="1.0" standalone="no"?>
<!DOCTYPE svg PUBLIC "-//W3C//DTD SVG 20010904//EN"
 "http://www.w3.org/TR/2001/REC-SVG-20010904/DTD/svg10.dtd">
<svg version="1.0" xmlns="http://www.w3.org/2000/svg"
 width="526.000000pt" height="713.000000pt" viewBox="0 0 526.000000 713.000000"
 preserveAspectRatio="xMidYMid meet">

<g transform="translate(0.000000,713.000000) scale(0.100000,-0.100000)"
fill="#000000" stroke="none">
<path d="M2705 7050 c-373 -4 -510 -9 -540 -19 -174 -57 -289 -177 -331 -344
-18 -69 -19 -186 -19 -3137 0 -2978 1 -3067 19 -3120 48 -141 124 -233 236
-290 123 -62 76 -60 1421 -60 1196 0 1228 1 1305 20 184 47 310 178 350 362
21 97 20 6082 0 6191 -21 107 -59 181 -130 253 -71 70 -143 108 -241 128 -84
17 -1265 26 -2070 16z m123 -137 c5 -10 12 -45 15 -77 7 -66 39 -116 98 -151
33 -19 52 -20 544 -20 l510 0 41 23 c55 32 94 94 94 148 0 24 4 54 10 68 l10
26 276 0 c300 0 357 -7 441 -57 65 -38 119 -105 145 -181 l23 -67 0 -3055 c0
-2877 -1 -3058 -17 -3111 -35 -113 -119 -198 -231 -236 -47 -16 -120 -18 -751
-21 -421 -2 -702 1 -705 6 -11 18 -161 104 -173 100 -7 -3 7 -15 30 -28 23
-13 42 -27 42 -32 0 -4 -24 -8 -52 -9 -96 -2 -111 -17 -18 -18 105 -2 148 -6
157 -15 4 -4 -235 -6 -532 -4 -540 3 -540 3 -608 27 -83 29 -157 92 -194 164
-54 107 -52 45 -51 2157 0 1075 4 2079 7 2230 7 257 7 264 10 105 2 -93 6
-192 11 -220 l7 -50 2 40 c2 32 4 36 11 20 8 -19 9 -18 11 5 1 17 4 12 8 -15
l6 -40 20 40 c19 39 43 51 57 30 13 -18 32 13 33 53 1 21 11 55 24 76 l23 37
70 -68 c39 -37 79 -77 89 -87 10 -11 19 -16 19 -10 0 5 -86 94 -190 199 -156
155 -193 187 -201 175 -9 -13 -10 -12 -5 2 3 10 1 20 -4 23 -6 4 -10 281 -10
733 0 772 2 801 49 906 23 53 94 126 148 151 78 38 131 43 415 44 255 1 278 0
286 -16z m-708 -2058 c0 -8 -4 -15 -10 -15 -5 0 -10 7 -10 15 0 8 5 15 10 15
6 0 10 -7 10 -15z"/>
<path d="M5001 4914 c0 -11 3 -14 6 -6 3 7 2 16 -1 19 -3 4 -6 -2 -5 -13z"/>
<path d="M5013 4850 c0 -25 2 -35 4 -22 2 12 2 32 0 45 -2 12 -4 2 -4 -23z"/>
<path d="M2158 4827 c-3 -6 -1 -23 3 -37 9 -25 9 -25 5 2 -2 15 2 29 7 31 8 2
8 5 0 10 -6 4 -13 1 -15 -6z"/>
<path d="M4991 4824 c0 -11 3 -14 6 -6 3 7 2 16 -1 19 -3 4 -6 -2 -5 -13z"/>
<path d="M2190 4782 c0 -4 9 -13 21 -20 19 -12 19 -11 9 8 -10 19 -30 28 -30
12z"/>
<path d="M5018 4748 c-2 -7 -1 -29 3 -48 6 -34 6 -33 8 13 1 46 -3 59 -11 35z"/>
<path d="M2170 4740 c0 -5 5 -10 10 -10 6 0 10 5 10 10 0 6 -4 10 -10 10 -5 0
-10 -4 -10 -10z"/>
<path d="M4987 4718 c3 -24 2 -29 -6 -19 -7 11 -11 -5 -17 -57 l-7 -72 -58 0
-59 0 0 -40 c0 -32 -4 -40 -18 -40 -10 0 -56 -36 -102 -80 -46 -44 -87 -80
-91 -80 -4 0 -21 -13 -39 -30 -24 -23 -42 -30 -71 -30 -32 0 -39 -3 -39 -20 0
-17 -7 -20 -40 -20 -22 0 -40 -5 -40 -10 0 -18 -73 -85 -78 -72 -2 8 -19 1
-47 -23 -24 -19 -52 -35 -63 -35 -24 0 -119 -38 -154 -62 -14 -10 -33 -18 -42
-18 -9 0 -16 -4 -16 -9 0 -5 -9 -12 -20 -16 -10 -3 -49 -26 -84 -51 -36 -24
-68 -44 -71 -44 -3 0 -31 -20 -63 -45 -31 -25 -62 -45 -67 -45 -6 0 -23 -16
-39 -35 -16 -19 -34 -35 -40 -35 -15 -1 -102 -120 -109 -150 -6 -22 37 -68
400 -432 319 -319 410 -405 420 -396 30 24 198 243 269 349 214 320 371 753
420 1159 21 181 18 310 -12 468 -7 35 -21 26 -17 -10z m22 -88 c0 -9 -4 -8 -9
5 -5 11 -9 27 -9 35 0 9 4 8 9 -5 5 -11 9 -27 9 -35z"/>
<path d="M2590 4323 c-263 -316 -437 -642 -539 -1008 -62 -223 -71 -274 -54
-294 15 -18 63 -18 63 1 0 5 8 4 19 -2 15 -7 24 -6 36 6 12 13 39 18 108 20
54 1 93 7 95 13 2 6 19 11 38 11 19 0 34 4 34 8 0 5 56 15 125 22 69 7 125 17
125 22 0 4 18 8 40 8 22 0 40 4 40 8 0 12 62 32 102 32 56 0 98 11 98 26 0 8
9 14 20 14 11 0 20 6 20 13 0 8 17 13 48 15 50 2 98 18 120 39 7 7 25 13 38
13 30 0 103 38 122 63 7 9 20 17 29 17 15 0 93 75 93 91 0 4 12 14 28 21 18 9
28 22 30 41 3 25 5 27 20 15 54 -43 -76 94 -425 450 -217 221 -401 402 -407
401 -6 0 -36 -30 -66 -66z"/>
<path d="M1976 2979 c-8 -42 0 -50 9 -9 4 17 5 34 2 36 -2 3 -7 -10 -11 -27z"/>
<path d="M3080 362 c0 -9 59 -46 65 -40 2 2 -12 13 -31 26 -19 12 -34 19 -34
14z"/>
<path d="M3067 339 c7 -7 15 -10 18 -7 3 3 -2 9 -12 12 -14 6 -15 5 -6 -5z"/>
<path d="M3127 275 c-25 -18 -21 -22 28 -22 25 0 44 1 43 2 -2 0 -14 8 -28 17
-21 13 -29 13 -43 3z"/>
<path d="M523 6803 c-23 -8 -65 -34 -91 -58 -143 -128 -125 -352 36 -453 241
-153 530 100 414 361 -57 130 -223 199 -359 150z m97 -267 c0 -3 -4 -8 -10
-11 -5 -3 -10 -1 -10 4 0 6 5 11 10 11 6 0 10 -2 10 -4z"/>
<path d="M1114 6204 c-141 -50 -218 -223 -164 -368 71 -187 305 -246 455 -114
157 139 122 385 -69 474 -60 28 -156 31 -222 8z"/>
<path d="M524 5902 c-21 -13 -25 -49 -9 -66 32 -31 85 -11 85 33 0 29 -50 51
-76 33z m66 -38 c0 -20 -33 -34 -53 -23 -20 11 -22 30 -6 46 14 14 59 -4 59
-23z"/>
<path d="M540 5870 c-8 -5 -11 -13 -6 -17 5 -4 11 -2 13 5 3 6 9 10 14 6 5 -3
9 0 9 5 0 13 -10 14 -30 1z"/>
<path d="M220 186 c0 -2 8 -10 18 -17 15 -13 16 -12 3 4 -13 16 -21 21 -21 13z"/>
<path d="M2090 70 c8 -5 22 -10 30 -10 13 0 13 1 0 10 -8 5 -22 10 -30 10 -13
0 -13 -1 0 -10z"/>
<path d="M2248 33 c7 -3 16 -2 19 1 4 3 -2 6 -13 5 -11 0 -14 -3 -6 -6z"/>
</g>
</svg>
