<?xml version="1.0" standalone="no"?>
<!DOCTYPE svg PUBLIC "-//W3C//DTD SVG 20010904//EN"
 "http://www.w3.org/TR/2001/REC-SVG-20010904/DTD/svg10.dtd">
<svg version="1.0" xmlns="http://www.w3.org/2000/svg"
 width="810.000000pt" height="590.000000pt" viewBox="0 0 810.000000 590.000000"
 preserveAspectRatio="xMidYMid meet">

<g transform="translate(0.000000,590.000000) scale(0.100000,-0.100000)"
fill="#000000" stroke="none">
<path d="M2762 5419 c-45 -13 -105 -76 -120 -125 -9 -32 -12 -555 -12 -2345
l0 -2304 24 -50 c27 -58 47 -78 99 -100 32 -13 190 -15 1344 -15 1247 0 1310
1 1348 19 50 22 91 70 104 119 15 53 17 4625 2 4671 -16 51 -59 101 -105 122
-39 18 -92 19 -1346 18 -791 -1 -1318 -5 -1338 -10z m1801 -6 c-18 -2 -48 -2
-65 0 -18 2 -4 4 32 4 36 0 50 -2 33 -4z m-1291 -10 c-95 -2 -248 -2 -340 0
-92 1 -14 3 173 3 187 0 262 -2 167 -3z m325 1 c-3 -3 -12 -4 -19 -1 -8 3 -5
6 6 6 11 1 17 -2 13 -5z m256 -1 c-7 -2 -21 -2 -30 0 -10 3 -4 5 12 5 17 0 24
-2 18 -5z m-1191 -3115 c2 -916 0 -1661 -4 -1655 -4 7 -7 1054 -5 2327 1 1273
3 2018 4 1655 2 -363 4 -1410 5 -2327z m2332 2640 c17 -189 -44 -381 -185
-582 -89 -127 -149 -180 -279 -246 -47 -24 -98 -53 -114 -63 -16 -12 -27 -15
-25 -8 3 7 -17 35 -44 62 -36 37 -49 58 -52 86 -19 170 -35 387 -31 427 4 32
0 58 -10 77 -8 17 -16 55 -17 86 -2 59 -7 63 -67 66 -59 2 -79 -4 -82 -25 -2
-16 -11 -24 -30 -26 -18 -2 -30 -12 -38 -33 -7 -16 -26 -44 -42 -61 -15 -17
-35 -43 -44 -57 -9 -15 -28 -33 -43 -39 -38 -17 -90 -55 -91 -67 -1 -13 -47
-65 -57 -65 -18 0 -63 -49 -63 -69 0 -13 -10 -26 -26 -33 -20 -9 -24 -17 -19
-35 4 -18 1 -23 -15 -23 -31 0 -26 -36 8 -48 l27 -9 -24 -8 c-16 -5 -26 -3
-32 6 -4 7 -11 10 -16 5 -4 -4 1 -12 11 -18 18 -10 18 -11 2 -24 -10 -7 -15
-18 -11 -23 4 -8 11 -6 21 4 19 19 61 19 96 1 35 -18 58 -21 81 -11 11 4 23 3
30 -4 6 -6 18 -11 27 -11 8 0 35 -18 59 -40 24 -22 52 -42 62 -45 10 -4 18
-11 16 -18 -1 -6 8 -13 20 -15 13 -2 30 -17 40 -33 10 -16 23 -29 30 -29 7 0
13 -4 13 -10 0 -5 6 -10 14 -10 7 0 21 -11 30 -25 9 -14 24 -25 33 -25 31 0
83 -24 83 -39 0 -8 -11 -33 -24 -55 -36 -62 -75 -184 -97 -304 -31 -172 -45
-216 -114 -355 -44 -90 -62 -134 -54 -142 7 -7 13 -5 19 5 7 12 12 12 21 3 9
-9 9 -16 -1 -28 -10 -12 -10 -19 -2 -27 20 -20 13 -31 -13 -24 -14 4 -25 3
-26 -1 0 -5 -3 -17 -6 -28 -2 -11 -7 -33 -10 -48 -3 -15 -29 -51 -59 -81 -30
-29 -54 -62 -54 -72 0 -22 -23 -59 -56 -90 -12 -12 -29 -35 -37 -51 -9 -16
-37 -47 -62 -68 -40 -32 -46 -42 -41 -66 5 -28 -6 -39 -43 -39 -9 0 -35 -18
-56 -40 -28 -29 -34 -40 -22 -40 9 0 17 5 17 11 0 6 6 9 14 6 7 -3 20 3 29 14
9 10 24 19 32 19 8 0 15 5 15 10 0 6 9 10 19 10 20 0 71 57 71 78 0 6 8 17 18
24 24 17 84 104 101 146 7 17 17 32 22 32 5 0 16 15 24 33 22 46 70 111 105
141 20 16 30 34 30 52 0 15 3 24 7 21 9 -9 53 33 53 50 0 7 7 13 17 13 9 0 32
17 52 38 20 21 49 46 64 55 15 10 32 28 36 40 11 28 -5 59 -27 55 -18 -3 -18
-5 -7 92 3 30 9 127 14 215 4 88 13 169 18 180 6 11 26 52 44 90 36 75 137
184 204 221 19 10 35 25 35 32 0 16 39 51 58 52 6 0 12 5 12 11 0 6 7 8 16 5
8 -3 12 -2 9 3 -3 5 3 12 14 16 24 7 94 85 128 141 6 10 16 18 22 16 6 -1 10
1 9 5 -2 5 14 33 35 63 72 105 90 135 100 165 6 16 14 33 19 36 5 3 10 12 12
20 1 8 9 29 19 48 9 19 17 42 17 52 0 10 5 21 10 24 6 3 10 19 10 36 0 29 15
40 23 17 2 -7 7 15 11 49 5 34 4 68 0 75 -6 10 -4 9 9 -1 10 -7 16 -20 15 -29
-2 -8 3 -17 10 -20 10 -3 12 7 10 39 -2 35 -6 43 -20 41 -10 -2 -18 2 -18 8 0
5 6 9 13 8 15 -4 14 95 -2 100 -6 2 -11 8 -11 13 0 6 68 8 168 7 l167 -3 0
-1394 c0 -1231 -2 -1394 -15 -1397 -24 -5 -201 -73 -255 -99 -49 -23 -86 -33
-155 -41 -199 -24 -301 -45 -355 -73 -31 -16 -71 -33 -87 -36 -28 -7 -119 -54
-176 -93 -15 -10 -40 -24 -57 -32 -26 -13 -139 -95 -171 -125 -6 -5 -25 -21
-42 -34 -18 -13 -32 -28 -32 -33 0 -5 16 3 35 18 44 34 56 25 18 -13 -16 -15
-58 -61 -93 -102 -36 -41 -73 -84 -83 -95 -51 -59 -99 -121 -112 -146 -8 -15
-21 -30 -28 -33 -9 -3 -13 -16 -11 -34 4 -24 3 -25 -5 -8 -9 19 -10 19 -10 -2
-1 -12 -5 -25 -11 -28 -15 -9 -12 -29 8 -51 22 -24 27 -87 8 -103 -8 -6 -12
-20 -9 -30 5 -21 -21 -51 -44 -51 -9 0 -13 -3 -10 -7 8 -7 34 -11 85 -12 19
-1 31 -5 27 -11 -4 -6 9 -11 32 -11 22 -1 9 -5 -32 -9 -38 -4 -275 -6 -525 -6
l-455 1 -1 2035 c-1 1119 0 2041 2 2048 3 9 229 12 1088 12 l1084 0 6 -72z
m-634 -952 c0 -2 -8 -10 -17 -17 -16 -13 -17 -12 -4 4 13 16 21 21 21 13z
m-189 -679 c-5 -29 -15 -65 -22 -82 -14 -33 -16 -40 -18 -55 -2 -16 -21 -12
-21 5 0 8 -5 15 -10 15 -6 0 -3 11 6 25 12 18 18 52 19 113 2 47 7 88 12 89 5
2 8 18 6 36 -3 26 -1 28 6 12 9 -20 10 -20 10 1 1 11 4 24 9 28 11 12 14 -129
3 -187z m-105 -172 c3 -14 13 -25 21 -25 13 0 13 -3 3 -15 -7 -9 -16 -12 -19
-7 -3 5 -13 8 -21 7 -8 -1 -21 4 -28 12 -12 12 -9 13 15 7 23 -5 26 -4 16 7
-15 16 -17 39 -3 39 5 0 12 -11 16 -25z m-46 -59 c0 -15 -18 -31 -26 -23 -7 7
7 37 17 37 5 0 9 -6 9 -14z m960 -1696 c0 -18 -46 -70 -62 -70 -5 0 -8 -7 -8
-15 0 -18 -164 -186 -225 -230 -22 -17 -49 -40 -60 -51 -26 -29 -94 -64 -122
-64 -32 0 -29 -18 5 -23 15 -2 -40 -5 -123 -5 l-150 -1 80 31 c44 17 82 34 85
38 3 4 17 13 31 21 24 12 228 155 254 177 6 5 24 17 40 27 17 10 53 38 82 62
28 24 55 43 60 43 5 0 28 18 51 40 46 44 62 50 62 20z"/>
<path d="M5148 4930 c2 -22 6 -40 8 -40 2 0 4 18 4 40 0 22 -3 40 -8 40 -4 0
-6 -18 -4 -40z"/>
<path d="M5141 4764 c0 -11 3 -14 6 -6 3 7 2 16 -1 19 -3 4 -6 -2 -5 -13z"/>
<path d="M5066 4748 c-3 -13 -7 -52 -10 -88 -2 -36 -15 -98 -28 -138 -19 -55
-21 -72 -11 -67 8 3 17 5 19 5 2 0 4 6 4 14 0 7 12 35 26 62 34 64 77 182 71
197 -2 7 -11 -5 -20 -26 -21 -49 -42 -40 -33 14 6 40 -10 65 -18 27z"/>
<path d="M4986 4391 c-4 -7 -5 -15 -2 -18 9 -9 19 4 14 18 -4 11 -6 11 -12 0z"/>
<path d="M4934 4307 c-17 -17 -33 -41 -37 -51 -8 -20 -8 -20 15 0 31 26 46 46
51 67 7 23 5 22 -29 -16z"/>
<path d="M4860 4220 c-9 -6 -10 -10 -3 -10 6 0 15 5 18 10 8 12 4 12 -15 0z"/>
<path d="M4836 4165 c-19 -20 -57 -52 -83 -71 -26 -19 -41 -34 -32 -34 8 0 20
5 26 11 8 8 13 8 18 0 7 -13 9 -11 74 67 50 62 48 82 -3 27z"/>
<path d="M2834 4075 c0 -55 1 -76 3 -47 2 29 2 74 0 100 -2 26 -3 2 -3 -53z"/>
<path d="M4593 4019 c-55 -21 -62 -29 -40 -47 10 -9 25 -3 62 23 26 19 50 37
53 40 11 11 -25 3 -75 -16z"/>
<path d="M4332 3175 c0 -16 2 -22 5 -12 2 9 2 23 0 30 -3 6 -5 -1 -5 -18z"/>
<path d="M4330 3122 c0 -12 -4 -22 -10 -22 -5 0 -7 -7 -4 -15 4 -9 -3 -16 -20
-21 -33 -8 -33 -18 -2 -32 24 -11 25 -9 36 44 7 31 9 58 6 61 -3 4 -6 -3 -6
-15z"/>
<path d="M4255 3021 c-3 -5 -1 -12 5 -16 5 -3 10 1 10 9 0 18 -6 21 -15 7z"/>
<path d="M4274 2983 c-4 -21 -10 -45 -15 -54 -5 -9 -5 -19 -2 -23 3 -3 15 17
25 46 21 60 22 68 8 68 -5 0 -12 -17 -16 -37z"/>
<path d="M3897 2964 c-10 -13 -14 -24 -9 -24 13 0 35 27 30 39 -1 5 -11 -2
-21 -15z"/>
<path d="M4420 2605 c0 -9 -6 -18 -14 -21 -8 -3 -17 -21 -20 -40 -4 -19 -13
-34 -20 -34 -15 0 -26 -21 -26 -48 0 -10 -9 -23 -20 -30 -11 -7 -20 -19 -20
-28 0 -16 -76 -134 -94 -146 -20 -14 -17 1 8 39 14 20 26 45 26 54 0 8 3 19 7
22 9 10 11 117 1 117 -4 0 -8 -11 -8 -25 0 -16 -6 -25 -15 -25 -18 0 -51 -18
-77 -42 -10 -10 -29 -18 -43 -18 -14 0 -25 -4 -25 -9 0 -5 -16 -12 -36 -16
-22 -4 -46 -18 -61 -36 -14 -16 -31 -29 -39 -29 -24 0 -96 -50 -101 -71 -3
-10 -13 -19 -22 -19 -19 0 -61 -35 -61 -51 0 -7 -11 -9 -27 -5 -18 4 -23 3
-15 -2 11 -7 10 -10 -3 -16 -9 -3 -13 -10 -10 -16 3 -5 -6 -15 -20 -22 -19 -8
-22 -14 -13 -20 10 -7 9 -10 -3 -18 -11 -6 -16 -21 -14 -42 2 -18 -2 -39 -7
-45 -19 -24 -1 -43 41 -43 39 0 39 0 34 -35 -4 -33 -3 -35 26 -35 28 0 30 -2
19 -20 -10 -16 -9 -23 8 -42 34 -38 35 -44 10 -90 -64 -120 -40 -115 67 15
109 132 235 260 315 320 109 82 161 117 176 117 7 0 30 7 49 15 47 20 63 20
48 1 -14 -16 1 -56 20 -56 9 0 59 29 69 40 3 3 23 17 45 30 22 13 49 33 60 43
20 19 20 19 -10 14 -16 -3 -56 -15 -88 -27 -32 -12 -60 -20 -62 -18 -13 13 12
50 46 65 21 10 39 24 39 32 0 9 8 12 24 9 18 -4 22 -1 19 12 -4 13 4 19 34 25
22 5 31 10 21 12 -19 5 -24 28 -9 38 6 3 6 17 -1 35 -7 21 -7 34 0 43 14 17
-8 35 -37 30 -13 -2 -30 -11 -37 -21 -9 -10 -17 -13 -21 -7 -11 13 -36 18 -28
5 10 -17 -35 -11 -53 7 -10 10 -17 34 -18 58 -1 22 -4 51 -8 63 -8 25 -26 30
-26 7z m60 -155 c0 -5 -2 -10 -4 -10 -2 0 -12 -3 -22 -7 -16 -6 -17 -5 -4 10
17 19 30 22 30 7z m20 -22 c0 -16 -3 -19 -11 -11 -6 6 -8 16 -5 22 11 17 16
13 16 -11z"/>
<path d="M4690 2290 c0 -5 7 -7 15 -4 8 4 15 8 15 10 0 2 -7 4 -15 4 -8 0 -15
-4 -15 -10z"/>
<path d="M4490 2019 c-51 -23 -204 -124 -223 -147 -16 -21 -1 -12 78 43 70 49
130 81 200 106 44 15 46 18 20 18 -16 0 -50 -9 -75 -20z"/>
<path d="M3877 1519 c-9 -6 -15 -14 -12 -20 4 -5 1 -9 -5 -9 -24 0 -207 -181
-231 -228 -7 -15 -32 -57 -56 -94 -23 -38 -40 -68 -37 -68 3 0 -8 -18 -25 -39
-17 -21 -31 -43 -31 -48 0 -5 -13 -24 -30 -43 -16 -19 -29 -38 -30 -42 -2 -35
121 106 362 417 4 6 26 33 49 60 43 53 85 125 72 125 -5 0 -16 -5 -26 -11z"/>
<path d="M3618 923 c12 -2 30 -2 40 0 9 3 -1 5 -23 4 -22 0 -30 -2 -17 -4z"/>
</g>
</svg>
