<?xml version="1.0" standalone="no"?>
<!DOCTYPE svg PUBLIC "-//W3C//DTD SVG 20010904//EN"
 "http://www.w3.org/TR/2001/REC-SVG-20010904/DTD/svg10.dtd">
<svg version="1.0" xmlns="http://www.w3.org/2000/svg"
 width="919.000000pt" height="533.000000pt" viewBox="0 0 919.000000 533.000000"
 preserveAspectRatio="xMidYMid meet">

<g transform="translate(0.000000,533.000000) scale(0.100000,-0.100000)"
fill="#000000" stroke="none">
<path d="M3658 5130 c-5 -25 -15 -151 -24 -280 -14 -221 -14 -388 2 -617 5
-72 4 -83 -10 -83 -25 0 -31 -29 -11 -44 17 -12 17 -13 -3 -18 -16 -4 -21 -15
-24 -44 l-3 -39 -1727 -5 -1727 -5 -28 -21 c-15 -11 -38 -36 -50 -54 l-23 -33
0 -1785 c0 -1561 2 -1798 16 -1889 17 -118 27 -151 52 -169 14 -11 838 -13
4498 -14 4254 0 4483 1 4502 18 21 18 36 68 52 172 6 41 10 721 10 1863 0
1746 -1 1799 -19 1835 -11 22 -35 46 -59 60 l-40 22 -2620 0 -2620 0 -6 45
c-7 43 -26 59 -41 35 -9 -15 -22 -12 -29 6 -3 8 -2 12 4 9 16 -10 50 14 50 35
0 13 -7 20 -20 20 -16 0 -20 7 -20 38 -1 20 -5 122 -10 226 -7 142 -6 244 5
410 8 121 15 241 15 265 0 83 -11 33 -24 -105 l-14 -139 -1 138 c-1 136 -12
175 -28 100 -8 -36 -8 -35 -13 27 l-5 65 -7 -45z m50 -487 c0 -87 3 -231 7
-320 5 -104 4 -163 -2 -163 -5 0 -11 30 -12 68 -1 37 -4 135 -8 217 -4 83 -6
168 -5 190 2 61 13 165 17 165 3 0 4 -71 3 -157z m39 -509 c-3 -3 -12 -4 -19
-1 -8 3 -5 6 6 6 11 1 17 -2 13 -5z m13 -114 c0 -5 -7 -10 -15 -10 -8 0 -15 5
-15 10 0 6 7 10 15 10 8 0 15 -4 15 -10z m1292 -110 c20 -24 20 -34 14 -190
-6 -160 -7 -166 -32 -187 l-25 -23 -425 3 -426 2 -19 24 c-17 21 -19 41 -19
191 l0 169 27 21 c26 20 32 21 456 18 l429 -3 20 -25z m-4762 -188 c0 -24 -2
-25 -15 -11 -9 9 -13 23 -9 32 9 24 24 11 24 -21z m60 8 c0 -3 -9 -11 -20 -18
-18 -11 -20 -10 -20 18 0 28 2 29 20 18 11 -7 20 -15 20 -18z m8550 18 c0 -10
3 -9 9 1 11 17 31 6 31 -19 0 -18 -18 -30 -45 -30 -16 0 -29 35 -20 50 9 14
25 12 25 -2z m-602 -91 c4 -20 -25 -34 -40 -19 -15 15 -1 44 19 40 10 -2 19
-11 21 -21z m-4098 -227 c0 -5 -4 -10 -10 -10 -5 0 -10 5 -10 10 0 6 5 10 10
10 6 0 10 -4 10 -10z m490 0 c0 -5 -2 -10 -4 -10 -3 0 -8 5 -11 10 -3 6 -1 10
4 10 6 0 11 -4 11 -10z m950 -9 c-5 -11 -11 -80 -12 -153 l-2 -133 -6 135 c-5
131 0 170 21 170 6 0 6 -7 -1 -19z m520 9 c0 -5 11 -10 25 -10 14 0 25 -4 25
-10 0 -5 -9 -10 -20 -10 -21 0 -28 -16 -10 -22 15 -5 -18 -68 -36 -68 -16 0
-19 -21 -5 -35 5 -6 6 -34 2 -63 -5 -30 -4 -55 2 -59 5 -3 3 -9 -4 -14 -11 -7
-12 -12 -1 -29 7 -11 8 -20 3 -20 -6 0 -13 5 -16 11 -8 12 -7 318 1 331 7 11
34 10 34 -2z m520 0 c0 -5 11 -10 25 -10 14 0 25 -4 25 -10 0 -5 -9 -10 -20
-10 -21 0 -28 -16 -10 -22 14 -4 -11 -58 -27 -58 -7 0 -10 7 -7 15 4 8 1 15
-6 15 -9 0 -11 -10 -6 -30 3 -17 1 -30 -4 -30 -6 0 -10 -4 -10 -9 0 -5 10 -7
23 -4 16 3 18 2 8 -5 -9 -6 -12 -25 -10 -56 5 -52 -7 -63 -14 -13 -3 17 -4 8
-3 -21 0 -28 -3 -53 -8 -55 -5 -2 -1 -11 9 -21 18 -18 18 -18 -1 -14 -18 3
-19 14 -22 163 -1 87 0 165 2 172 6 15 56 18 56 3z m525 0 c-3 -5 -17 -10 -31
-10 -23 0 -24 -3 -24 -55 0 -39 4 -54 13 -52 13 2 18 -61 5 -79 -13 -19 -4
-128 12 -142 13 -12 13 -13 -3 -8 -10 3 -27 6 -38 6 -18 0 -19 9 -19 168 0 93
3 172 7 175 11 11 85 8 78 -3z m651 -8 c0 -18 -36 -25 -52 -9 -16 16 -44 7
-44 -15 0 -12 -3 -19 -6 -15 -4 3 -4 18 0 32 6 22 11 25 54 25 39 0 48 -3 48
-18z m514 -1 c-9 -17 -6 -20 17 -23 22 -3 26 -8 27 -36 1 -17 -2 -32 -5 -32
-11 0 -19 29 -12 47 4 11 3 14 -5 9 -7 -4 -12 -18 -12 -32 0 -13 -4 -24 -9
-24 -5 0 -14 -35 -20 -77 -6 -43 -15 -91 -19 -108 -7 -23 -5 -33 7 -42 25 -18
7 -25 -41 -16 l-43 9 -3 149 c-4 201 -6 195 69 195 56 0 59 -1 49 -19z m518
-23 c2 -49 12 -66 12 -20 0 18 5 32 10 32 6 0 10 -16 10 -35 0 -24 -6 -39 -20
-47 -12 -8 -20 -24 -20 -39 0 -15 -7 -40 -15 -55 -18 -35 -19 -61 -2 -67 7 -3
5 -6 -5 -6 -20 -1 -25 -21 -6 -21 6 0 3 -6 -7 -14 -18 -13 -17 -14 11 -29 l29
-16 -55 -1 c-31 0 -61 5 -68 12 -13 13 -18 301 -6 332 5 12 21 16 68 16 l63 0
1 -42z m-8658 12 c0 -5 -9 -10 -20 -10 -11 0 -20 -4 -20 -10 0 -5 5 -10 10
-10 6 0 10 -4 10 -10 0 -5 -7 -10 -16 -10 -8 0 -12 -5 -8 -11 3 -6 15 -9 25
-6 12 3 19 0 19 -9 0 -9 -12 -14 -35 -14 l-35 0 0 50 0 50 35 0 c19 0 35 -4
35 -10z m1047 -2 c-2 -8 -15 -12 -30 -10 -15 2 -27 -1 -27 -7 0 -6 7 -11 15
-11 8 0 15 -5 15 -10 0 -6 -7 -13 -15 -16 -8 -4 -15 -12 -15 -20 0 -8 -4 -14
-10 -14 -5 0 -10 23 -10 50 l0 50 41 0 c28 0 39 -4 36 -12z m73 -38 c0 -38 -4
-50 -15 -50 -10 0 -15 10 -15 34 0 19 -5 38 -10 41 -15 9 -2 25 21 25 16 0 19
-7 19 -50z m410 34 c0 -12 -6 -15 -25 -10 -14 4 -25 2 -25 -4 0 -5 7 -10 15
-10 8 0 15 -5 15 -10 0 -6 -7 -13 -15 -16 -8 -4 -15 -12 -15 -20 0 -8 -7 -14
-15 -14 -11 0 -15 12 -15 50 l0 50 40 0 c30 0 40 -4 40 -16z m97 -1 c4 -10 -2
-23 -15 -34 -12 -9 -22 -21 -22 -25 0 -4 5 -3 12 4 18 18 28 15 28 -8 0 -17
-7 -20 -45 -20 -25 0 -45 4 -45 9 0 5 14 21 30 34 17 14 26 28 21 32 -5 3 -12
1 -16 -5 -10 -17 -25 -11 -25 10 0 16 7 20 35 20 24 0 38 -5 42 -17z m403 2
c0 -11 -7 -14 -25 -9 -15 4 -25 2 -25 -5 0 -6 7 -11 15 -11 8 0 15 -5 15 -10
0 -6 -7 -13 -15 -16 -8 -4 -15 -12 -15 -20 0 -8 -7 -14 -15 -14 -11 0 -15 12
-15 50 l0 50 40 0 c29 0 40 -4 40 -15z m95 -35 c0 -44 -1 -45 -34 -48 -36 -4
-58 9 -46 28 5 8 10 9 18 1 14 -14 37 -14 37 -1 0 6 -7 10 -15 10 -8 0 -15 5
-15 10 0 6 7 10 15 10 8 0 15 5 15 10 0 14 -23 13 -38 -2 -9 -9 -12 -7 -12 11
0 20 4 22 38 19 37 -3 37 -3 37 -48z m405 40 c0 -10 -13 -14 -42 -11 -10 1
-18 -3 -18 -8 0 -6 7 -11 15 -11 8 0 15 -5 15 -10 0 -6 -7 -13 -15 -16 -8 -4
-15 -13 -15 -21 0 -8 -5 -13 -12 -11 -11 4 -20 75 -11 91 6 11 83 9 83 -3z
m80 -13 c0 -13 5 -28 11 -34 9 -9 8 -16 -4 -27 -23 -23 -27 -20 -27 20 0 22
-4 33 -10 29 -6 -4 -8 -15 -5 -26 5 -15 1 -19 -19 -19 -34 0 -33 7 6 47 38 39
48 41 48 10z m660 13 c0 -5 -11 -10 -24 -10 -33 0 -43 -18 -15 -28 l23 -9 -22
-5 c-15 -4 -20 -11 -16 -22 3 -9 1 -16 -5 -16 -12 0 -16 82 -4 93 10 11 63 8
63 -3z m85 0 c4 -6 -5 -10 -19 -10 -14 0 -26 -4 -26 -10 0 -5 11 -10 24 -10
34 0 51 -24 31 -44 -18 -18 -51 -21 -60 -6 -4 6 7 10 25 10 41 0 35 23 -7 30
-27 4 -29 8 -22 28 9 23 43 30 54 12z m420 1 c3 -5 -9 -11 -27 -13 -30 -3 -43
-21 -18 -24 23 -3 24 -6 2 -15 -13 -5 -21 -13 -17 -18 3 -5 1 -12 -5 -16 -11
-7 -14 77 -3 88 10 10 61 8 68 -2z m75 0 c0 -5 -9 -11 -20 -14 -28 -7 -28 -57
-1 -57 27 0 35 17 14 29 -16 9 -16 10 5 11 20 0 23 -4 20 -27 -3 -25 -7 -28
-38 -28 -31 0 -35 3 -38 28 -2 17 4 37 14 48 18 20 44 26 44 10z m420 -1 c0
-5 -11 -10 -24 -10 -33 0 -41 -16 -13 -25 19 -6 19 -8 5 -12 -10 -2 -18 -13
-18 -24 0 -10 -4 -19 -10 -19 -5 0 -10 23 -10 50 l0 50 35 0 c19 0 35 -4 35
-10z m100 -5 c0 -20 -32 -85 -42 -85 -11 0 -9 11 7 40 8 14 14 28 15 33 0 12
-38 8 -43 -5 -2 -7 -8 -10 -12 -6 -4 4 -5 14 -2 23 8 20 77 21 77 0z m400 5
c0 -5 -11 -10 -25 -10 -16 0 -25 -6 -25 -16 0 -8 4 -13 9 -9 5 3 12 1 16 -5 3
-5 -1 -10 -9 -10 -10 0 -16 -9 -16 -21 0 -12 -5 -19 -12 -17 -12 4 -21 62 -13
86 5 14 75 17 75 2z m45 -10 c-5 -16 -2 -20 15 -20 17 0 20 4 15 21 -5 15 -3
20 6 17 17 -6 24 -77 10 -91 -16 -16 -26 0 -11 18 11 13 8 15 -21 15 -26 0
-30 -3 -21 -12 16 -16 15 -28 -3 -28 -11 0 -15 11 -15 43 0 44 5 57 22 57 5 0
6 -9 3 -20z m705 10 c0 -5 -11 -10 -24 -10 -33 0 -41 -16 -13 -25 19 -6 19 -8
5 -12 -10 -2 -18 -14 -18 -25 0 -11 -5 -18 -12 -16 -14 5 -23 61 -14 84 6 16
76 20 76 4z m98 -23 c4 -33 -22 -67 -50 -67 -26 0 -22 18 5 22 30 4 39 58 8
58 -30 0 -36 -19 -9 -29 23 -10 22 -10 -4 -10 -23 -1 -28 3 -28 22 0 32 9 38
45 35 25 -2 31 -8 33 -31z m418 -16 c2 -22 0 -43 -5 -46 -9 -5 -20 82 -12 91
8 8 13 -4 17 -45z m57 8 c-6 -39 -5 -41 18 -37 21 3 24 8 22 42 -2 28 0 37 8
29 6 -6 9 -28 7 -49 -3 -36 -5 -39 -33 -39 -27 0 -30 4 -33 33 -2 19 -1 40 2
48 10 26 14 14 9 -27z m467 -10 c0 -21 -4 -39 -8 -39 -5 0 -9 20 -9 45 0 24 4
42 9 39 4 -3 8 -23 8 -45z m-6481 10 l4 -24 6 25 c8 30 54 35 59 6 3 -14 0
-17 -17 -11 -17 5 -21 2 -21 -15 0 -18 3 -19 20 -10 17 9 20 8 20 -10 0 -16
-6 -20 -30 -20 -17 0 -30 5 -31 13 0 10 -2 10 -6 0 -6 -15 -63 -18 -63 -3 0 6
6 10 13 10 6 0 4 5 -5 11 -21 12 -23 30 -6 47 19 19 53 8 57 -19z m6561 21 c0
-5 -2 -10 -4 -10 -3 0 -8 5 -11 10 -3 6 -1 10 4 10 6 0 11 -4 11 -10z m1575
-20 c-5 -23 -3 -30 9 -30 8 0 18 -4 21 -10 4 -6 -5 -10 -19 -10 -24 0 -26 4
-26 40 0 22 5 40 11 40 7 0 8 -11 4 -30z m584 11 c-18 -8 -21 -41 -3 -41 8 0
14 -4 14 -10 0 -5 -11 -10 -25 -10 -22 0 -25 4 -25 34 0 35 13 47 39 38 13 -5
13 -6 0 -11z m-1244 -11 c-7 -21 10 -28 18 -7 3 6 6 0 6 -15 1 -29 15 -38 25
-15 3 6 4 -15 3 -48 -2 -33 -7 -66 -11 -74 -17 -27 -15 -105 2 -125 16 -18 16
-19 -23 -12 -22 5 -43 10 -47 12 -5 3 -8 59 -8 125 0 78 4 118 10 114 6 -4 10
8 10 29 0 20 5 36 11 36 6 0 8 -9 4 -20z m735 0 c-6 -10 -3 -21 7 -32 9 -10
11 -18 5 -18 -6 0 -14 5 -18 11 -4 8 -9 7 -15 -2 -6 -9 -9 -2 -9 21 0 29 4 36
19 36 15 0 17 -4 11 -16z m448 13 c-20 -5 -25 -24 -5 -20 6 1 12 -7 12 -18 0
-13 -8 -21 -22 -23 -13 -2 -23 1 -23 7 0 6 8 12 18 12 16 1 16 2 0 6 -10 2
-18 13 -18 24 0 14 7 19 28 18 16 -1 20 -3 10 -6z m-6873 -183 c-1 -58 -3
-122 -4 -142 -1 -21 -5 -38 -10 -38 -8 0 -8 238 -1 335 5 73 18 -54 15 -155z
m494 78 c1 -16 -3 -28 -9 -28 -6 0 -10 28 -9 68 1 62 2 64 10 27 4 -22 8 -52
8 -67z m-1996 -110 c0 -148 -3 -193 -13 -196 -9 -3 -11 1 -7 12 4 10 7 101 7
203 0 103 3 183 7 180 3 -4 6 -94 6 -199z m6274 165 c-3 -10 -5 -4 -5 12 0 17
2 24 5 18 2 -7 2 -21 0 -30z m-5267 -39 c0 -27 -4 -43 -10 -39 -11 7 -13 45
-4 69 10 26 14 18 14 -30z m5580 36 c0 -5 -4 -10 -10 -10 -5 0 -10 5 -10 10 0
6 5 10 10 10 6 0 10 -4 10 -10z m-5844 -114 c0 -24 -5 -48 -10 -53 -5 -5 -7
-1 -3 10 4 9 2 17 -3 17 -5 0 -6 8 -3 17 5 12 2 15 -10 10 -9 -3 -17 -2 -17 3
0 6 9 10 20 10 25 0 26 17 3 23 -14 4 -14 5 3 6 19 1 21 -4 20 -43z m504 27
c0 -10 -4 -14 -8 -8 -4 6 -11 13 -16 18 -5 4 -2 7 7 7 10 0 17 -8 17 -17z
m2640 13 c0 -2 -7 -6 -15 -10 -8 -3 -15 -1 -15 4 0 6 7 10 15 10 8 0 15 -2 15
-4z m500 0 c0 -2 -7 -6 -15 -10 -8 -3 -15 -1 -15 4 0 6 7 10 15 10 8 0 15 -2
15 -4z m93 -3 c-7 -2 -19 -2 -25 0 -7 3 -2 5 12 5 14 0 19 -2 13 -5z m647 3
c0 -3 -4 -8 -10 -11 -5 -3 -10 -1 -10 4 0 6 5 11 10 11 6 0 10 -2 10 -4z m503
-4 c-6 -4 -13 -25 -16 -47 -4 -40 -4 -40 -5 8 -2 39 1 47 16 47 11 0 13 -3 5
-8z m583 -36 c0 -42 -1 -44 -31 -48 l-32 -4 5 43 c4 36 2 43 -13 43 -14 0 -16
-8 -14 -44 4 -49 -5 -53 -14 -6 -10 49 0 60 52 60 l47 0 0 -44z m432 37 c-28
-7 -24 -71 5 -83 20 -9 19 -9 -8 -7 -29 2 -30 4 -32 50 -1 45 0 47 25 46 17
-1 21 -3 10 -6z m48 -11 c6 -4 14 -23 17 -42 3 -19 3 -29 0 -22 -2 6 -15 12
-28 12 -27 0 -40 26 -24 46 13 16 19 17 35 6z m-4691 -44 c7 -35 -20 -58 -28
-25 -8 29 3 71 15 59 5 -5 11 -20 13 -34z m975 17 c0 -20 -5 -25 -25 -25 -20
0 -25 5 -25 25 0 20 5 25 25 25 20 0 25 -5 25 -25z m490 0 c0 -27 -7 -30 -30
-15 -13 9 -12 12 4 25 26 19 26 19 26 -10z m460 -4 c0 -8 -23 -21 -36 -21 -2
0 -4 11 -4 25 0 23 2 24 20 15 11 -6 20 -15 20 -19z m492 15 c13 -10 15 -15 6
-24 -20 -20 -35 -14 -35 13 0 28 5 30 29 11z m728 4 c0 -5 -4 -10 -10 -10 -5
0 -10 5 -10 10 0 6 5 10 10 10 6 0 10 -4 10 -10z m70 0 c0 -5 -2 -10 -4 -10
-3 0 -8 5 -11 10 -3 6 -1 10 4 10 6 0 11 -4 11 -10z m489 -15 c3 -17 1 -18
-13 -6 -13 11 -19 11 -31 1 -18 -15 -20 1 -3 18 17 17 42 11 47 -13z m-4699
-26 c0 -24 -4 -38 -10 -34 -17 10 -11 75 7 75 2 0 3 -18 3 -41z m643 26 c-3
-9 -8 -14 -10 -11 -3 3 -2 9 2 15 9 16 15 13 8 -4z m2214 -17 c-3 -7 -5 -2 -5
12 0 14 2 19 5 13 2 -7 2 -19 0 -25z m-2410 -20 c-3 -8 -6 -5 -6 6 -1 11 2 17
5 13 3 -3 4 -12 1 -19z m748 3 c-3 -6 -11 -11 -16 -11 -5 0 -4 6 3 14 14 16
24 13 13 -3z m2945 4 c0 -8 -2 -15 -4 -15 -2 0 -6 7 -10 15 -3 8 -1 15 4 15 6
0 10 -7 10 -15z m60 0 c-7 -8 -17 -15 -23 -15 -6 0 -2 7 9 15 25 19 30 19 14
0z m463 0 c-3 -9 -8 -14 -10 -11 -3 3 -2 9 2 15 9 16 15 13 8 -4z m-4423 -5
c0 -5 -5 -10 -11 -10 -5 0 -7 5 -4 10 3 6 8 10 11 10 2 0 4 -4 4 -10z m4460 0
c0 -5 -4 -10 -10 -10 -5 0 -10 5 -10 10 0 6 5 10 10 10 6 0 10 -4 10 -10z
m-4709 -153 c-8 -8 -11 4 -11 39 0 66 14 80 18 19 2 -26 -2 -53 -7 -58z m991
36 l-10 -48 -1 60 c-1 43 2 56 10 48 8 -8 9 -25 1 -60z m3058 26 c0 -6 -4 -7
-10 -4 -5 3 -10 11 -10 16 0 6 5 7 10 4 6 -3 10 -11 10 -16z m-3315 -89 c-5
-8 -11 -8 -17 -2 -6 6 -7 16 -3 22 5 8 11 8 17 2 6 -6 7 -16 3 -22z m81 -8
c-4 -3 -12 0 -19 7 -9 9 -9 14 3 21 11 7 16 5 18 -6 2 -9 1 -18 -2 -22z
m-2011 18 c3 -5 1 -10 -4 -10 -6 0 -11 5 -11 10 0 6 2 10 4 10 3 0 8 -4 11
-10z m83 -8 c2 -7 -3 -12 -12 -12 -9 0 -16 7 -16 16 0 17 22 14 28 -4z m963 5
c-1 -12 -15 -9 -19 4 -3 6 1 10 8 8 6 -3 11 -8 11 -12z m-978 -154 c-7 -2 -19
-2 -25 0 -7 3 -2 5 12 5 14 0 19 -2 13 -5z m7335 -10 c-21 -3 -28 -10 -29 -26
-1 -53 -11 -152 -15 -156 -9 -9 -4 139 6 163 7 20 16 26 37 25 l28 -2 -27 -4z
m516 0 c-21 -3 -34 -11 -37 -24 -7 -24 18 -26 32 -1 8 13 10 6 8 -31 -1 -39
-3 -45 -11 -28 -13 29 -19 27 -38 -16 l-17 -38 0 57 c-1 81 4 88 53 86 35 -1
36 -2 10 -5z m496 -3 c-23 -5 -27 -8 -12 -9 12 0 22 -6 22 -12 0 -6 8 -8 18
-5 28 9 44 -8 40 -45 -2 -27 -8 -35 -26 -37 -17 -3 -25 2 -29 16 -7 28 -40 17
-48 -16 l-7 -27 -10 28 c-6 16 -7 48 -3 73 l6 44 42 -1 42 -2 -35 -7z m-7962
-55 c-2 -63 -25 -67 -27 -4 0 37 3 49 14 49 11 0 15 -11 13 -45z m395 36 c18
-3 5 -38 -20 -54 l-28 -18 32 6 c27 6 32 4 27 -9 -4 -12 -20 -16 -55 -16 -58
0 -62 13 -14 41 19 12 35 23 35 26 0 3 -16 2 -35 -1 -27 -5 -35 -4 -35 8 0 22
26 27 93 17z m128 -1 c20 -11 26 -54 9 -65 -6 -4 -8 -10 -5 -15 11 -17 -36
-22 -60 -6 -30 20 -32 49 -5 76 23 23 33 24 61 10z m367 1 c9 -5 12 -24 10
-52 -3 -37 -6 -44 -27 -47 -34 -5 -71 6 -71 22 0 11 10 13 43 9 43 -6 45 10 2
20 -19 4 -18 5 5 16 23 11 22 11 -12 7 -36 -5 -50 8 -31 27 9 10 65 8 81 -2z
m145 -12 c3 -10 2 -21 -2 -24 -3 -4 -6 -10 -6 -14 0 -3 -10 -17 -22 -31 -13
-13 -23 -19 -23 -12 0 7 -7 9 -17 5 -10 -3 -15 -3 -11 2 4 4 3 14 -3 22 -9 10
-8 13 0 13 7 0 10 4 6 10 -9 14 27 47 52 47 12 0 23 -7 26 -18z m358 4 c1 -10
1 -24 0 -30 -1 -7 5 -13 14 -13 20 0 19 -6 -5 -30 -24 -24 -30 -25 -30 -4 0
11 -6 14 -20 9 -11 -3 -29 -3 -41 0 -20 7 -19 9 17 46 41 42 63 49 65 22z
m129 -4 c0 -5 -12 -10 -27 -10 l-28 -2 28 -4 c20 -3 27 -10 27 -27 0 -26 -26
-38 -60 -29 -31 8 -24 23 13 24 l32 1 -30 7 c-27 6 -31 12 -26 40 3 20 71 19
71 0z m368 9 c-3 -7 -20 -15 -39 -17 l-34 -5 40 -5 c31 -5 41 -11 43 -28 4
-28 -29 -46 -69 -38 -42 9 -36 25 11 25 22 0 40 5 40 10 0 6 -20 10 -45 10
-35 0 -43 3 -40 15 3 8 7 22 10 30 3 10 18 15 46 15 28 0 39 -4 37 -12z m111
-48 c-41 -51 -61 -53 -24 -2 49 64 49 65 53 53 2 -6 -11 -29 -29 -51z m375 51
c3 -5 -8 -11 -25 -15 -26 -5 -30 -10 -27 -33 2 -22 8 -28 27 -28 13 0 26 6 29
13 2 7 -5 12 -17 12 -12 0 -21 5 -21 10 0 12 30 13 48 1 8 -5 12 -17 10 -27
-3 -15 -12 -19 -48 -19 -45 0 -45 0 -45 35 0 27 6 37 25 47 30 15 37 16 44 4z
m1523 -17 c15 -41 -34 -92 -73 -77 -12 5 -8 9 17 17 41 13 53 50 20 61 -22 7
-41 0 -41 -16 0 -5 9 -9 20 -9 11 0 20 -5 20 -11 0 -17 -52 -6 -64 14 -9 14
-7 21 6 31 21 15 88 8 95 -10z m438 17 c3 -5 1 -12 -5 -16 -5 -3 -10 -17 -10
-31 0 -20 5 -24 30 -24 25 0 30 4 30 23 0 13 -5 28 -12 35 -9 9 -7 12 10 12
19 0 22 -5 22 -46 l0 -45 -52 3 c-52 3 -53 4 -56 36 -4 44 25 81 43 53z m3740
-64 c6 -1 11 13 13 31 5 46 22 40 22 -8 0 -34 -3 -40 -26 -46 -31 -8 -44 7
-44 52 0 45 14 52 20 10 3 -20 10 -38 15 -39z m-8605 17 c0 -22 -5 -34 -14
-34 -16 0 -27 55 -13 69 16 16 27 2 27 -35z m48 2 c-2 -15 -7 -28 -13 -29 -12
-2 -19 38 -10 60 9 25 27 1 23 -31z m352 -1 c0 -25 -4 -45 -10 -45 -5 0 -10
16 -10 35 0 19 -4 35 -10 35 -5 0 -10 5 -10 10 0 6 9 10 20 10 17 0 20 -7 20
-45z m2107 29 c8 -21 -13 -42 -28 -27 -13 13 -5 43 11 43 6 0 13 -7 17 -16z
m923 10 c0 -16 -47 -84 -58 -84 -9 0 -7 9 7 29 27 38 26 51 -4 51 -14 0 -25
-4 -25 -10 0 -5 -4 -10 -10 -10 -5 0 -10 7 -10 15 0 11 12 15 50 15 28 0 50
-2 50 -6z m110 -4 c0 -5 -7 -7 -16 -3 -13 5 -15 2 -10 -14 5 -16 2 -21 -10
-19 -9 0 -19 -5 -21 -11 -7 -20 31 -15 59 6 l25 20 0 -29 c0 -18 -4 -27 -11
-23 -6 4 -25 6 -44 5 -47 -4 -53 4 -34 43 12 24 24 35 40 35 12 0 22 -4 22
-10z m321 -4 c-15 -18 1 -30 30 -21 16 5 18 10 8 21 -9 11 -7 14 10 14 18 0
20 -5 18 -42 -1 -32 -7 -44 -19 -46 -10 -2 -18 1 -18 7 0 6 5 11 10 11 6 0 10
5 10 10 0 6 -13 10 -29 10 -17 0 -33 -4 -36 -10 -3 -5 1 -10 9 -10 9 0 16 -4
16 -10 0 -5 -9 -10 -19 -10 -16 0 -19 7 -19 45 1 38 4 45 21 45 16 0 17 -3 8
-14z m182 -11 c20 6 21 5 4 -8 -11 -10 -15 -21 -10 -33 6 -17 5 -18 -12 -4
-14 11 -19 12 -22 2 -3 -6 -9 -9 -14 -6 -6 3 -5 11 2 20 9 11 8 14 -5 14 -9 0
-16 5 -16 11 0 6 9 8 20 4 15 -5 20 -2 21 12 1 17 2 17 6 0 3 -13 11 -16 26
-12z m482 -20 c0 -25 -3 -45 -6 -45 -16 0 -26 70 -12 83 14 14 18 5 18 -38z
m506 21 c8 -17 8 -29 0 -45 -18 -33 -26 -25 -26 24 0 50 10 58 26 21z m999
-21 c0 -25 -4 -45 -10 -45 -5 0 -10 9 -10 20 0 12 -7 20 -17 21 -14 0 -13 2 4
9 15 6 21 15 17 25 -3 8 -1 15 5 15 6 0 11 -19 11 -45z m-6140 12 c0 -21 -16
-47 -30 -47 -3 0 -6 16 -7 35 -1 28 3 35 18 35 13 0 19 -7 19 -23z m8142 -13
c-4 -20 -1 -25 9 -22 8 3 13 17 12 32 -1 14 2 24 8 21 5 -4 9 -19 9 -36 0 -24
-4 -29 -25 -29 -22 0 -25 4 -25 36 0 19 4 33 9 30 4 -3 6 -17 3 -32z m173 26
c-4 -6 -10 -8 -14 -5 -5 2 -8 -6 -8 -20 0 -14 6 -26 16 -28 9 -3 4 -5 -11 -6
-24 -1 -28 3 -28 27 0 16 3 32 7 35 10 11 45 8 38 -3z m503 -12 c-2 -12 -9
-24 -17 -26 -10 -3 -12 0 -8 12 4 9 2 16 -3 16 -6 0 -10 -11 -10 -25 0 -14 -5
-25 -11 -25 -7 0 -9 9 -5 23 3 12 6 28 6 35 0 6 12 12 26 12 20 0 25 -4 22
-22z m-6938 -50 c-1 -45 -3 -58 -10 -46 -9 14 -3 108 6 108 2 0 4 -28 4 -62z
m495 -5 c-4 -69 -15 -64 -15 8 0 39 4 59 9 51 5 -8 7 -34 6 -59z m3640 57 c-8
-13 -55 -13 -75 0 -11 7 -2 10 33 10 30 0 46 -4 42 -10z m690 -20 c-10 -11
-20 -18 -23 -15 -3 3 3 14 13 25 10 11 20 18 23 15 3 -3 -3 -14 -13 -25z
m1529 19 c14 12 16 9 15 -20 0 -28 -2 -31 -9 -14 -5 11 -9 14 -9 6 -1 -20 -31
7 -31 28 0 13 2 14 9 2 8 -12 12 -12 25 -2z m-7857 -36 c-3 -10 -5 -4 -5 12 0
17 2 24 5 18 2 -7 2 -21 0 -30z m1013 -13 c0 -27 -4 -50 -10 -50 -11 0 -14 83
-3 93 12 12 13 8 13 -43z m1710 34 c0 -8 -4 -12 -10 -9 -5 3 -10 10 -10 16 0
5 5 9 10 9 6 0 10 -7 10 -16z m60 6 c0 -5 -4 -10 -10 -10 -5 0 -10 5 -10 10 0
6 5 10 10 10 6 0 10 -4 10 -10z m2340 0 c0 -5 -4 -11 -10 -11 -5 -1 -16 -2
-22 -3 -19 -3 -29 4 -23 15 8 12 55 12 55 -1z m175 0 c4 -6 -13 -10 -45 -10
-32 0 -49 4 -45 10 3 6 24 10 45 10 21 0 42 -4 45 -10z m-2989 -11 c9 -15 -11
-33 -30 -26 -9 4 -13 13 -10 22 7 17 30 20 40 4z m3324 -9 c11 -7 2 -10 -32
-10 -27 0 -48 5 -48 10 0 13 60 13 80 0z m835 -1 c-16 -5 -49 -8 -73 -7 -29 1
-46 -3 -52 -12 -5 -8 -12 -11 -15 -8 -4 4 -1 14 6 22 10 11 34 15 89 15 62 -1
70 -2 45 -10z m1315 -99 c0 -5 -7 -10 -15 -10 -10 0 -15 -10 -15 -34 0 -30 3
-35 28 -38 24 -3 25 -4 6 -9 -31 -9 -45 3 -49 45 -2 26 2 39 13 46 22 12 32
12 32 0z m524 -2 c-3 -4 -14 -8 -25 -8 -15 0 -19 -7 -19 -35 0 -33 2 -35 33
-35 22 0 28 -3 18 -9 -7 -5 -25 -5 -40 -2 -26 8 -27 11 -22 89 1 7 13 11 30
10 16 -1 27 -6 25 -10z m-2687 -20 c-3 -8 -6 -5 -6 6 -1 11 2 17 5 13 3 -3 4
-12 1 -19z m1646 15 c-7 -2 -13 -20 -13 -38 0 -27 5 -34 23 -38 19 -4 18 -4
-5 -6 -27 -1 -28 1 -28 44 0 36 3 45 18 44 10 0 12 -3 5 -6z m614 -15 c-3 -8
-6 -5 -6 6 -1 11 2 17 5 13 3 -3 4 -12 1 -19z m510 -10 c-3 -7 -5 -2 -5 12 0
14 2 19 5 13 2 -7 2 -19 0 -25z m-6879 -10 c-3 -34 -20 -42 -26 -13 -5 22 5
45 18 45 7 0 10 -14 8 -32z m502 -3 c0 -7 -6 -18 -14 -24 -11 -9 -14 -7 -18
12 -7 35 1 50 18 36 8 -6 14 -17 14 -24z m5815 25 c4 -6 2 -17 -4 -24 -6 -7
-8 -16 -4 -19 3 -4 -2 -7 -12 -7 -17 0 -17 1 -2 18 13 14 14 21 5 30 -9 9 -9
12 -1 12 7 0 15 -5 18 -10z m508 -12 c7 -25 1 -38 -16 -37 -9 0 -9 2 0 5 8 4
9 13 3 30 -5 13 -6 24 -1 24 5 0 11 -10 14 -22z m-8333 -20 c-1 -28 -2 -30
-11 -15 -6 10 -8 25 -5 33 9 24 16 16 16 -18z m1010 1 c0 -17 -4 -28 -10 -24
-5 3 -10 17 -10 31 0 13 5 24 10 24 6 0 10 -14 10 -31z m4190 25 c0 -3 -5 -14
-11 -25 -10 -20 -11 -20 -24 -2 -20 26 -18 33 10 33 14 0 25 -3 25 -6z m500
-36 c0 -4 -11 -8 -25 -8 -29 0 -30 3 -12 30 11 19 13 19 25 3 6 -9 12 -20 12
-25z m1620 32 c0 -5 -2 -10 -4 -10 -3 0 -8 5 -11 10 -3 6 -1 10 4 10 6 0 11
-4 11 -10z m-6813 -22 c-3 -8 -6 -5 -6 6 -1 11 2 17 5 13 3 -3 4 -12 1 -19z
m1970 0 c-3 -8 -6 -5 -6 6 -1 11 2 17 5 13 3 -3 4 -12 1 -19z m4690 0 c-3 -8
-6 -5 -6 6 -1 11 2 17 5 13 3 -3 4 -12 1 -19z m1220 -20 c-3 -8 -6 -5 -6 6 -1
11 2 17 5 13 3 -3 4 -12 1 -19z m-520 -14 c-3 -3 -12 -4 -19 -1 -8 3 -5 6 6 6
11 1 17 -2 13 -5z m-6367 -79 c0 -30 -4 -55 -10 -55 -11 0 -14 93 -3 103 12
12 13 8 13 -48z m-490 1 c0 -25 -4 -48 -10 -51 -6 -4 -10 13 -10 44 0 28 5 51
10 51 6 0 10 -20 10 -44z m983 -8 c-6 -61 -13 -60 -13 1 0 29 4 50 9 47 4 -3
6 -25 4 -48z m-1993 -25 c0 -20 -3 -24 -11 -16 -7 7 -9 19 -6 27 10 24 17 19
17 -11z m507 -10 c-3 -10 -5 -4 -5 12 0 17 2 24 5 18 2 -7 2 -21 0 -30z m1970
5 c-3 -8 -6 -5 -6 6 -1 11 2 17 5 13 3 -3 4 -12 1 -19z m-2460 -10 c-3 -8 -6
-5 -6 6 -1 11 2 17 5 13 3 -3 4 -12 1 -19z m713 -33 c0 -12 -13 -15 -61 -15
-70 0 -73 17 -3 18 26 1 49 4 52 7 9 8 12 6 12 -10z m-820 -5 c0 -5 -19 -9
-42 -9 -40 1 -41 2 -13 9 44 11 55 11 55 0z m180 0 c0 -5 -10 -10 -22 -10 -19
0 -20 2 -8 10 19 13 30 13 30 0z m360 -6 c0 -2 -14 -4 -31 -4 -16 0 -28 4 -25
9 5 8 56 3 56 -5z m115 6 c3 -5 -1 -10 -9 -10 -9 0 -16 5 -16 10 0 6 4 10 9
10 6 0 13 -4 16 -10z m360 0 c16 -7 11 -9 -20 -9 -29 -1 -36 2 -25 9 17 11 19
11 45 0z m130 0 c3 -5 -1 -10 -9 -10 -9 0 -16 5 -16 10 0 6 4 10 9 10 6 0 13
-4 16 -10z m165 0 c0 -6 -31 -10 -72 -10 -51 0 -68 3 -58 10 20 13 130 13 130
0z m200 0 c11 -7 3 -10 -30 -10 -33 0 -41 3 -30 10 8 5 22 10 30 10 8 0 22 -5
30 -10z m120 0 c0 -5 -4 -10 -10 -10 -5 0 -10 5 -10 10 0 6 5 10 10 10 6 0 10
-4 10 -10z m160 0 c0 -6 -29 -10 -66 -10 -41 0 -63 4 -59 10 3 6 33 10 66 10
33 0 59 -4 59 -10z m200 0 c11 -7 7 -10 -18 -10 -20 0 -31 4 -27 10 8 13 26
13 45 0z m253 -7 c-7 -2 -19 -2 -25 0 -7 3 -2 5 12 5 14 0 19 -2 13 -5z m5797
-17 c0 -8 3 -23 7 -33 6 -17 6 -17 -10 -1 -19 18 -23 48 -7 48 6 0 10 -6 10
-14z m42 -18 c-9 -9 -12 -7 -12 12 0 19 3 21 12 12 9 -9 9 -15 0 -24z m-222
-25 c2 -2 -5 -6 -17 -9 -20 -6 -20 -7 10 -34 28 -25 33 -26 39 -12 4 11 7 2 7
-22 l1 -39 -26 24 c-26 23 -26 23 -20 2 5 -16 2 -23 -14 -28 -13 -4 -19 -12
-16 -21 3 -7 0 -13 -6 -11 -6 1 -12 -2 -14 -8 -2 -6 15 -11 39 -12 88 -4 84
-3 64 -14 -12 -7 -16 -17 -11 -31 4 -13 1 -24 -7 -29 -12 -7 -11 -9 1 -10 20
-1 -29 -17 -57 -18 -20 -1 -23 4 -23 38 0 27 -5 41 -16 45 -15 6 -15 4 -3 -10
11 -14 11 -18 1 -22 -9 -3 -10 -7 -2 -17 8 -9 8 -15 0 -20 -13 -8 -13 -45 0
-45 6 0 10 4 10 10 0 5 7 7 17 3 14 -5 13 -8 -5 -14 -12 -5 -29 -6 -38 -2 -12
4 -15 2 -12 -8 3 -8 24 -17 49 -20 l44 -6 -52 -1 c-28 -1 -54 2 -57 7 -3 4 -8
81 -11 170 l-6 161 23 9 c21 8 97 4 108 -6z m495 7 c17 -1 24 -4 18 -7 -7 -2
-12 -14 -12 -26 1 -14 3 -16 6 -6 6 25 62 12 69 -16 10 -41 1 -59 -34 -66 -21
-4 -32 -3 -32 5 0 6 -6 2 -12 -8 -6 -11 -23 -30 -37 -42 -14 -13 -20 -24 -13
-24 6 0 12 5 12 10 0 11 60 13 75 2 6 -4 10 -24 10 -44 0 -35 2 -38 30 -39 17
-1 2 -6 -33 -11 -82 -13 -93 -8 -87 37 2 20 0 35 -6 35 -6 0 -9 -22 -8 -52 4
-74 8 -86 33 -91 11 -3 -4 -4 -34 -3 l-55 1 -6 60 c-4 33 -7 109 -8 168 -1
103 0 108 22 116 12 5 33 8 47 6 14 -1 39 -4 55 -5z m-3474 -22 c-4 -13 -9
-57 -10 -98 -3 -108 -11 -100 -11 12 0 52 3 98 7 101 14 15 22 6 14 -15z m509
7 c-9 -10 -9 -15 -1 -15 18 0 12 -20 -6 -21 -10 0 -13 -2 -8 -5 6 -2 8 -52 5
-135 -3 -74 -1 -134 4 -139 5 -5 6 -13 2 -17 -18 -18 -26 34 -26 178 0 86 3
159 7 162 3 4 13 7 21 7 12 0 12 -3 2 -15z m514 3 c-21 -9 -22 -19 -26 -157
-3 -86 0 -151 5 -159 6 -7 7 -16 3 -19 -18 -18 -26 35 -26 178 0 86 3 159 7
162 3 4 18 7 32 6 25 0 25 -1 5 -11z m1426 8 c0 -2 2 -11 5 -18 4 -11 -3 -13
-30 -10 -33 4 -35 3 -35 -27 0 -17 5 -31 10 -31 6 0 10 9 10 20 0 23 13 26 29
7 13 -16 -4 -37 -31 -37 -10 0 -18 -5 -18 -11 0 -7 14 -10 35 -7 31 4 33 2 20
-12 -8 -9 -15 -24 -15 -33 0 -9 -5 -17 -11 -17 -6 0 -8 -12 -6 -29 5 -28 -12
-48 -36 -42 -5 1 -7 -15 -5 -35 3 -34 7 -39 43 -50 l40 -13 -45 2 -45 2 -5
156 c-3 86 -4 164 -2 173 3 12 15 16 48 16 24 0 44 -2 44 -4z m-2957 -21 c-3
-9 -8 -14 -10 -11 -3 3 -2 9 2 15 9 16 15 13 8 -4z m-3775 -7 c19 -19 14 -72
-8 -91 -28 -24 -36 -22 -50 13 -14 35 -8 49 15 30 13 -10 15 -9 15 9 0 17 -6
21 -35 21 -28 0 -35 -4 -35 -19 0 -11 5 -23 10 -26 18 -11 10 -26 -12 -23 -19
2 -24 10 -26 45 -3 37 0 42 20 46 47 9 94 7 106 -5z m262 -37 c0 -28 -4 -53
-10 -56 -6 -4 -10 15 -10 49 0 31 5 56 10 56 6 0 10 -22 10 -49z m132 17 l12
-33 13 33 c16 38 30 41 39 7 7 -30 24 -33 24 -5 0 19 25 38 36 28 8 -8 -36
-118 -47 -118 -6 0 -15 15 -21 32 l-12 33 -13 -33 c-7 -17 -17 -32 -22 -32
-11 0 -51 102 -44 113 10 16 25 5 35 -25z m362 -23 c1 -30 -4 -50 -11 -52 -10
-3 -13 11 -13 52 0 71 22 71 24 0z m246 40 c0 -11 -12 -15 -50 -15 -27 0 -50
-4 -50 -10 0 -5 14 -10 30 -10 17 0 30 -4 30 -10 0 -5 -13 -10 -30 -10 -16 0
-30 -4 -30 -10 0 -5 23 -10 50 -10 38 0 50 -4 50 -15 0 -12 -14 -15 -70 -15
l-70 0 0 60 0 60 70 0 c56 0 70 -3 70 -15z m245 -40 c0 -30 -5 -50 -12 -52
-10 -3 -13 11 -13 52 0 41 3 56 13 53 7 -3 12 -23 12 -53z m226 45 c23 -13 25
-43 3 -61 -14 -11 -14 -13 0 -21 21 -12 20 -28 -1 -28 -20 0 -63 38 -63 57 0
7 9 13 20 13 11 0 20 5 20 10 0 6 -13 10 -30 10 -29 0 -30 -2 -30 -45 0 -33
-4 -45 -15 -45 -12 0 -15 13 -15 60 l0 60 46 0 c25 0 54 -5 65 -10z m259 -6
c0 -8 -5 -12 -10 -9 -6 4 -8 11 -5 16 9 14 15 11 15 -7z m1700 -45 c0 -44 -3
-60 -12 -57 -13 5 -23 80 -14 104 13 34 26 10 26 -47z m-4160 42 c0 -5 -7 -11
-15 -15 -9 -3 -15 -19 -15 -41 0 -24 -4 -35 -15 -35 -11 0 -15 11 -15 35 0 22
-6 38 -15 41 -30 12 -14 24 30 24 25 0 45 -4 45 -9z m2720 -1 c0 -5 -11 -10
-24 -10 -22 0 -25 -5 -28 -42 -2 -24 -7 -43 -13 -43 -5 0 -11 19 -13 43 -3 37
-6 42 -28 42 -13 0 -24 5 -24 10 0 6 28 10 65 10 37 0 65 -4 65 -10z m415 -10
l18 -20 22 20 c32 30 43 24 12 -8 -19 -19 -25 -34 -20 -50 4 -16 1 -22 -11
-22 -10 0 -16 9 -16 24 0 13 -12 35 -26 50 -18 18 -22 26 -12 26 8 0 23 -9 33
-20z m477 -22 c3 -40 4 -42 38 -42 34 0 35 1 38 43 4 55 26 49 25 -8 0 -23 -3
-45 -6 -48 -8 -7 -105 -5 -118 2 -5 4 -9 26 -9 51 0 32 4 44 14 44 10 0 16
-13 18 -42z m1018 33 c0 -5 -6 -11 -13 -14 -7 -2 -13 -16 -15 -31 -2 -24 1
-26 41 -26 40 0 43 2 41 28 0 17 -7 28 -17 30 -28 6 -19 24 11 20 24 -3 27 -8
30 -45 4 -50 -16 -66 -81 -61 l-42 3 -3 53 c-3 50 -2 52 22 52 15 0 26 -4 26
-9z m575 -1 c3 -6 3 -19 0 -30 -5 -16 -15 -20 -46 -20 -21 0 -39 5 -39 10 0 6
14 10 30 10 17 0 30 5 30 10 0 6 -18 10 -40 10 l-40 0 0 -45 c0 -33 -4 -45
-15 -45 -12 0 -15 13 -15 55 l0 55 64 0 c36 0 68 -5 71 -10z m905 1 c0 -5 -6
-11 -13 -14 -15 -6 -11 -67 4 -67 5 0 9 -4 9 -10 0 -5 -9 -10 -19 -10 -16 0
-20 9 -23 50 -1 28 2 52 7 54 18 8 35 6 35 -3z m110 -21 c-9 -17 -9 -29 -1
-48 7 -13 10 -26 8 -29 -9 -8 -29 28 -29 52 0 24 20 60 29 51 3 -2 -1 -14 -7
-26z m-6051 5 c5 -6 7 -25 2 -45 -6 -30 -11 -35 -39 -36 -31 -2 -32 -1 -32 41
0 23 2 44 5 46 8 9 54 4 64 -6z m-92 -38 c17 -41 9 -63 -11 -35 -12 16 -15 16
-35 2 -31 -22 -35 -13 -15 35 20 51 41 51 61 -2z m8040 27 c3 -9 2 -24 -4 -33
-12 -18 -53 -28 -53 -12 0 6 9 11 21 11 14 0 19 5 17 17 -4 22 -28 29 -28 9 0
-9 -4 -16 -10 -16 -11 0 -14 23 -3 33 13 13 54 7 60 -9z m495 -1 c17 -15 18
-15 18 0 0 10 4 17 10 17 8 0 8 -24 1 -69 -1 -2 -10 4 -21 14 -19 17 -20 17
-20 0 0 -31 -13 -7 -14 25 -1 35 1 36 26 13z m-3017 -13 c-10 -11 -20 -18 -23
-15 -7 6 18 35 31 35 5 0 2 -9 -8 -20z m135 5 c10 -12 10 -15 -3 -15 -8 0 -17
7 -21 15 -3 8 -2 15 3 15 5 0 14 -7 21 -15z m-3273 -32 c-3 -10 -5 -4 -5 12 0
17 2 24 5 18 2 -7 2 -21 0 -30z m-1467 -87 c0 -14 -4 -28 -10 -31 -6 -4 -10 7
-10 24 0 17 5 31 10 31 6 0 10 -11 10 -24z m495 -6 c0 -13 -6 -25 -12 -27 -9
-3 -13 6 -13 27 0 21 4 30 13 28 6 -3 12 -15 12 -28z m490 0 c0 -13 -6 -25
-12 -27 -9 -3 -13 6 -13 27 0 21 4 30 13 28 6 -3 12 -15 12 -28z m5538 18 c-2
-5 -15 -8 -29 -8 -22 0 -25 -4 -22 -32 3 -29 7 -34 38 -38 l35 -6 -40 -6 c-22
-3 -43 -3 -47 -1 -10 5 -11 87 -1 96 9 9 72 4 66 -5z m-5056 -20 c-3 -8 -6 -5
-6 6 -1 11 2 17 5 13 3 -3 4 -12 1 -19z m5070 -18 c-1 -11 -7 -20 -14 -20 -15
0 -15 2 -7 24 9 23 23 20 21 -4z m1060 -22 c-3 -8 -6 -5 -6 6 -1 11 2 17 5 13
3 -3 4 -12 1 -19z m-8097 -43 c0 -14 -4 -25 -10 -25 -11 0 -14 33 -3 43 11 11
13 8 13 -18z m6934 10 c-4 -8 -12 -15 -20 -15 -20 0 -17 18 4 23 9 3 18 5 19
6 1 0 0 -6 -3 -14z m-6435 -38 c0 -18 -4 -41 -9 -52 -6 -14 -9 -4 -9 38 -1 36
3 56 9 52 6 -3 10 -21 9 -38z m491 -10 c0 -23 -5 -49 -10 -57 -7 -11 -10 4
-10 48 0 40 4 61 10 57 6 -3 10 -25 10 -48z m492 16 c2 -43 -2 -67 -12 -77 -7
-7 -10 10 -10 47 0 57 19 82 22 30z m5448 3 c0 -2 -7 -6 -15 -10 -8 -3 -15 -1
-15 4 0 6 7 10 15 10 8 0 15 -2 15 -4z m-4959 -39 c-1 -4 -1 -14 -1 -22 0 -8
-4 -15 -10 -15 -5 0 -10 12 -10 26 0 14 5 24 11 22 6 -2 10 -7 10 -11z m-2081
-87 c10 -6 -39 -9 -145 -8 l-160 2 140 6 c77 3 142 7 145 8 3 1 12 -3 20 -8z
m1135 0 c3 -5 1 -10 -4 -10 -6 0 -11 5 -11 10 0 6 2 10 4 10 3 0 8 -4 11 -10z
m-662 -7 c-7 -2 -19 -2 -25 0 -7 3 -2 5 12 5 14 0 19 -2 13 -5z m884 1 c-3 -3
-12 -4 -19 -1 -8 3 -5 6 6 6 11 1 17 -2 13 -5z m81 -1 c-10 -2 -26 -2 -35 0
-10 3 -2 5 17 5 19 0 27 -2 18 -5z m75 0 c-7 -2 -19 -2 -25 0 -7 3 -2 5 12 5
14 0 19 -2 13 -5z m3253 -233 c-1 -127 -4 -180 -12 -180 -18 0 -20 23 -22 184
-2 140 4 176 28 176 3 0 6 -81 6 -180z m519 171 c-3 -5 -7 -23 -9 -40 -3 -28
-1 -31 28 -33 17 -1 41 -1 54 0 20 1 22 -1 11 -14 -8 -10 -22 -12 -44 -8 -21
4 -35 1 -40 -7 -10 -15 -10 -223 0 -238 4 -7 -4 -11 -18 -11 -33 0 -37 17 -37
191 0 99 4 149 12 157 14 14 52 16 43 3z m522 -6 c0 -8 -7 -17 -14 -19 -9 -4
-11 -11 -6 -18 10 -16 11 -288 1 -288 -4 0 -5 -7 -2 -15 8 -20 -20 -20 -40 1
-13 13 -16 44 -16 178 0 89 3 166 7 169 13 14 70 7 70 -8z m-1552 -170 c0 -95
-3 -171 -7 -167 -3 4 -7 75 -8 157 -2 180 -2 185 8 185 4 0 7 -79 7 -175z
m-508 133 c-3 -7 -5 -2 -5 12 0 14 2 19 5 13 2 -7 2 -19 0 -25z m-3292 -28
c29 -57 31 -70 11 -70 -8 0 -20 16 -26 35 -15 46 -35 58 -25 16 5 -24 4 -30
-8 -26 -7 3 -20 -1 -27 -9 -24 -30 -30 -5 -9 37 42 83 50 84 84 17z m275 -16
c0 -41 -4 -63 -10 -59 -5 3 -10 33 -10 66 0 33 4 59 10 59 6 0 10 -29 10 -66z
m248 49 c2 -9 -11 -13 -48 -13 -28 0 -49 -4 -46 -9 3 -5 15 -7 26 -4 11 3 31
2 45 -1 22 -6 26 -11 23 -39 -3 -32 -3 -32 -64 -35 -48 -2 -63 0 -67 13 -5 12
3 15 48 15 30 0 55 5 55 10 0 6 -22 10 -50 10 -49 0 -50 1 -50 29 0 16 6 32
13 35 23 10 110 1 115 -11z m251 -81 c1 -15 -4 -22 -11 -19 -13 4 -20 93 -9
112 6 10 19 -52 20 -93z m231 78 c46 -46 9 -100 -70 -100 -37 0 -50 4 -50 14
0 11 14 16 48 18 43 3 47 5 47 28 0 21 -5 26 -32 28 -30 3 -33 1 -33 -22 0
-16 -6 -26 -15 -26 -11 0 -15 11 -15 40 l0 40 50 0 c37 0 55 -5 70 -20z m254
-89 c-11 -28 -21 18 -16 69 l6 45 8 -49 c5 -27 6 -56 2 -65z m256 94 c0 -11
-12 -15 -50 -15 -27 0 -50 -4 -50 -10 0 -5 14 -10 30 -10 20 0 30 -5 30 -15 0
-10 -10 -15 -30 -15 -24 0 -30 -4 -30 -21 0 -14 -5 -19 -17 -17 -13 2 -18 14
-19 43 -2 72 1 75 72 75 50 0 64 -3 64 -15z m1970 7 c0 -4 -14 -16 -32 -26
l-31 -19 29 -24 c16 -12 32 -23 37 -23 4 0 7 -4 7 -10 0 -16 -19 -11 -58 15
-37 25 -37 25 -42 5 -10 -40 -25 -25 -28 28 -2 42 0 52 12 52 9 0 16 -7 16
-15 0 -20 9 -19 45 5 32 21 45 25 45 12z m-4320 -22 c0 -11 -4 -20 -10 -20 -5
0 -10 5 -10 11 0 5 -4 7 -10 4 -13 -8 -13 -55 -1 -55 5 0 12 6 14 13 4 9 8 9
15 -2 8 -10 11 -6 17 18 7 34 35 43 35 12 0 -11 5 -23 10 -26 6 -3 10 5 10 19
0 31 14 40 38 27 13 -7 22 -7 30 1 17 17 32 -1 32 -42 0 -26 -5 -40 -17 -44
-22 -9 -43 12 -24 23 7 5 9 11 5 14 -13 7 -54 -10 -54 -23 0 -5 -9 -10 -20
-10 -11 0 -20 5 -20 11 0 8 -4 8 -12 2 -7 -6 -20 -10 -28 -10 -8 0 -19 -2 -25
-3 -28 -7 -35 2 -35 43 0 50 4 57 37 57 16 0 23 -6 23 -20z m218 -58 c10 2 18
14 20 29 2 20 9 27 27 27 21 0 23 -3 14 -20 -7 -14 -7 -23 2 -34 9 -11 9 -18
1 -26 -7 -7 -12 -8 -12 -2 0 5 -20 8 -45 6 l-45 -4 0 44 c0 58 14 72 18 18 3
-32 7 -41 20 -38z m2622 68 c0 -5 -23 -10 -51 -10 l-50 0 3 -31 c3 -29 6 -32
41 -34 41 -2 61 13 28 22 -31 8 -26 22 7 19 28 -3 38 -21 24 -43 -11 -17 -111
-20 -122 -4 -4 7 -6 27 -4 45 1 17 3 34 3 39 1 11 121 8 121 -3z m400 -10 c0
-17 7 -20 40 -20 33 0 40 3 40 20 0 11 5 20 10 20 6 0 10 -22 10 -50 0 -27 -4
-50 -10 -50 -5 0 -10 9 -10 20 0 17 -7 20 -44 20 -39 0 -44 -2 -39 -20 4 -14
0 -20 -11 -20 -13 0 -16 11 -16 50 0 38 4 50 15 50 8 0 15 -9 15 -20z m590
-30 l0 -50 -60 0 c-57 0 -60 1 -60 25 0 16 6 25 15 25 8 0 15 -7 15 -16 0 -11
8 -14 33 -12 31 3 32 5 29 41 -3 28 0 37 12 37 12 0 16 -11 16 -50z m902 8 l3
-42 48 3 c34 2 47 -1 47 -11 0 -9 -17 -13 -63 -13 l-62 0 -3 53 c-2 41 0 52
12 52 10 0 16 -13 18 -42z m585 25 c3 -9 -9 -11 -46 -6 l-51 6 0 -32 c0 -29 2
-31 35 -31 19 0 35 5 35 10 0 16 20 12 27 -6 7 -18 -14 -35 -34 -27 -8 3 -13
-2 -13 -16 0 -12 -6 -21 -15 -21 -9 0 -15 9 -15 21 0 12 -5 19 -12 16 -25 -9
-45 12 -46 49 -1 20 1 41 4 46 8 13 127 5 131 -9z m928 -33 c0 -39 -3 -45 -22
-48 -13 -2 -23 1 -23 7 0 6 6 10 13 9 21 -5 21 54 0 70 -17 13 -16 13 7 10 22
-3 25 -8 25 -48z m106 28 c2 -34 -2 -62 -9 -70 -4 -4 -7 15 -7 42 0 49 14 72
16 28z m-490 -40 c5 -10 6 -18 1 -18 -5 0 -14 12 -21 27 l-13 28 -15 -28 c-8
-16 -17 -27 -20 -24 -2 3 3 20 13 38 16 32 17 32 31 13 8 -10 19 -27 24 -36z
m-4745 -93 c8 -21 -4 -67 -16 -60 -13 8 -13 75 0 75 6 0 13 -7 16 -15z m492
-22 c-3 -42 -21 -51 -26 -15 -4 29 4 52 18 52 7 0 10 -15 8 -37z m500 -2 c-3
-30 -31 -36 -36 -8 -6 28 5 47 23 41 10 -4 15 -16 13 -33z m-502 -114 c-9 -76
-26 -83 -26 -11 0 62 5 78 23 67 5 -3 7 -27 3 -56z m-496 4 c0 -28 -4 -53 -10
-56 -6 -4 -10 15 -10 49 0 31 5 56 10 56 6 0 10 -22 10 -49z m990 15 c0 -35
-12 -86 -19 -86 -9 0 -14 97 -6 110 10 16 25 1 25 -24z m477 -48 c-2 -13 -4
-3 -4 22 0 25 2 35 4 23 2 -13 2 -33 0 -45z m-2412 -67 c6 -1 2 -5 -7 -9 -9
-4 -59 -5 -110 -3 -79 4 -86 6 -43 10 47 6 138 6 160 2z m100 -1 c4 -6 -11
-10 -37 -9 -33 0 -38 2 -23 9 28 12 53 12 60 0z m565 0 c0 -6 -28 -9 -67 -8
l-68 1 60 7 c33 4 63 7 68 8 4 1 7 -2 7 -8z m-297 -7 c-7 -2 -21 -2 -30 0 -10
3 -4 5 12 5 17 0 24 -2 18 -5z m474 1 c-3 -3 -12 -4 -19 -1 -8 3 -5 6 6 6 11
1 17 -2 13 -5z m276 -1 c-18 -2 -48 -2 -65 0 -18 2 -4 4 32 4 36 0 50 -2 33
-4z m220 0 c-7 -2 -21 -2 -30 0 -10 3 -4 5 12 5 17 0 24 -2 18 -5z m264 0
c-20 -2 -52 -2 -70 0 -17 2 0 4 38 4 39 0 53 -2 32 -4z m226 0 c-7 -2 -21 -2
-30 0 -10 3 -4 5 12 5 17 0 24 -2 18 -5z m240 0 c-13 -2 -33 -2 -45 0 -13 2
-3 4 22 4 25 0 35 -2 23 -4z m2159 -80 c-9 -20 -8 -294 2 -319 4 -10 2 -14 -6
-12 -15 5 -28 310 -15 334 12 21 29 18 19 -3z m508 2 c-10 -12 -10 -15 1 -16
8 0 10 -2 4 -5 -10 -4 -10 -69 -2 -225 5 -78 -5 -117 -22 -91 -10 17 -24 311
-15 335 3 9 15 17 26 17 17 0 18 -3 8 -15z m523 8 c-21 -8 -15 -20 13 -27 35
-9 30 -49 -7 -56 -22 -4 -25 -9 -18 -25 4 -11 8 -14 8 -7 1 6 10 12 20 12 35
0 32 -50 -5 -80 -16 -14 -17 -13 -10 13 4 17 2 27 -5 27 -7 0 -8 -18 -5 -52 4
-29 7 -75 9 -103 2 -47 1 -50 -23 -50 -21 0 -26 6 -32 40 -9 51 -10 300 -1
308 3 4 20 7 37 6 17 0 25 -3 19 -6z m519 -5 c-9 -9 -8 -14 4 -22 13 -10 13
-16 -1 -55 -17 -49 -21 -195 -6 -234 8 -20 6 -27 -5 -31 -31 -12 -55 -6 -63
17 -10 25 -15 313 -6 327 3 6 25 10 48 10 31 0 38 -3 29 -12z m487 8 c-2 -2
-13 -6 -24 -8 -11 -1 -23 -7 -27 -13 -12 -16 -9 -70 4 -83 9 -9 9 -12 -1 -12
-10 0 -12 -17 -6 -80 5 -54 4 -80 -3 -80 -13 0 -21 245 -9 266 4 8 22 14 39
14 17 0 29 -2 27 -4z m1569 -53 c1 -32 5 -70 8 -85 3 -14 0 -29 -5 -33 -16 -9
-13 -25 4 -25 22 0 30 -27 15 -55 -7 -12 -11 -41 -8 -64 l4 -41 -62 0 c-38 0
-66 5 -72 13 -11 13 -32 311 -24 335 3 8 26 12 71 12 l67 0 2 -57z m-7128 -8
c0 -24 -4 -47 -10 -50 -6 -4 -10 15 -10 50 0 35 4 54 10 50 6 -3 10 -26 10
-50z m490 6 c0 -28 -4 -53 -10 -56 -6 -4 -10 15 -10 49 0 31 5 56 10 56 6 0
10 -22 10 -49z m490 30 c0 -10 3 -32 6 -48 4 -22 2 -32 -10 -36 -13 -5 -16 2
-16 48 0 30 5 55 10 55 6 0 10 -8 10 -19z m490 9 c0 -5 -4 -10 -10 -10 -5 0
-10 5 -10 10 0 6 5 10 10 10 6 0 10 -4 10 -10z m1537 -202 c-1 -40 -3 -8 -3
72 0 80 2 112 3 73 2 -40 2 -106 0 -145z m-2757 185 c0 -5 -19 -25 -42 -46
-33 -29 -38 -37 -23 -36 40 3 55 -1 55 -16 0 -12 -14 -15 -63 -15 -35 0 -67 3
-71 7 -4 4 12 25 36 45 l43 37 -32 1 c-23 0 -33 5 -33 15 0 12 14 15 65 15 36
0 65 -3 65 -7z m402 -10 c17 -15 19 -15 36 0 20 18 42 22 42 9 0 -5 -9 -17
-20 -27 l-20 -18 25 -27 c14 -14 25 -29 25 -33 0 -15 -38 -6 -55 13 l-18 20
-22 -20 c-20 -19 -45 -27 -45 -15 0 3 11 18 25 33 24 26 24 26 5 47 -11 12
-20 24 -20 28 0 13 23 7 42 -10z m586 -6 c4 -19 -30 -37 -36 -19 -4 14 -61 16
-63 2 -5 -41 -3 -45 29 -48 18 -2 32 1 32 7 0 6 9 11 20 11 11 0 20 -6 20 -14
0 -26 -28 -37 -82 -34 l-53 3 -3 44 c-5 68 -1 72 70 69 50 -2 63 -6 66 -21z
m387 15 c6 -4 16 -19 24 -34 19 -36 24 -35 44 7 16 33 37 47 37 24 0 -13 -49
-97 -60 -104 -8 -5 -70 87 -70 105 0 12 11 13 25 2z m-2575 -12 c0 -5 -11 -10
-25 -10 -14 0 -25 -4 -25 -10 0 -5 11 -10 25 -10 21 0 25 -5 25 -30 0 -24 -5
-31 -26 -36 -17 -4 -31 -1 -42 10 -15 15 -14 16 11 16 15 0 27 5 27 10 0 6 -9
10 -20 10 -16 0 -20 7 -20 30 0 28 3 30 35 30 19 0 35 -4 35 -10z m710 -45 c0
-42 -3 -55 -15 -55 -11 0 -15 12 -15 48 0 27 3 52 7 55 16 17 23 3 23 -48z
m2360 35 c0 -17 7 -20 41 -20 45 0 50 19 8 31 -20 6 -17 7 15 8 38 1 38 0 33
-29 -4 -16 -2 -32 3 -35 5 -3 7 -12 3 -20 -6 -17 -73 -21 -73 -5 0 6 12 10 26
10 16 0 24 5 22 12 -4 11 -14 13 -63 9 -8 0 -15 -10 -15 -21 0 -11 -6 -20 -12
-20 -9 0 -13 17 -13 50 0 33 4 50 13 50 6 0 12 -9 12 -20z m530 -10 c43 -37
50 -37 50 0 0 17 5 30 10 30 6 0 10 -22 10 -50 0 -59 -13 -64 -55 -20 -16 17
-35 30 -42 30 -8 0 -13 -12 -13 -30 0 -16 -4 -30 -10 -30 -5 0 -10 23 -10 50
0 59 10 62 60 20z m480 -1 l22 -30 22 30 c31 46 46 40 46 -19 0 -39 -3 -50
-16 -50 -12 0 -15 6 -10 24 8 34 -5 40 -25 10 l-17 -26 -17 26 c-20 31 -34 27
-27 -9 3 -17 0 -25 -9 -25 -10 0 -15 15 -16 50 -2 60 14 66 47 19z m630 22 c0
-5 -13 -14 -30 -21 -16 -7 -30 -16 -30 -20 0 -5 14 -13 30 -19 17 -5 30 -15
30 -21 0 -6 -18 -1 -40 10 -48 25 -50 41 -7 63 38 18 47 20 47 8z m463 -14
c42 -26 40 -30 -20 -61 -21 -10 -33 -12 -33 -5 0 6 14 16 30 22 17 6 30 14 30
18 0 4 -13 12 -30 19 -16 7 -30 16 -30 21 0 14 12 11 53 -14z m507 2 c0 -15
-5 -20 -22 -17 -34 5 -37 38 -4 38 20 0 26 -5 26 -21z m497 6 c5 -16 -27 -49
-37 -38 -3 3 1 8 8 10 13 5 17 33 4 33 -4 0 -13 -5 -20 -12 -9 -9 -12 -8 -12
5 0 22 48 23 57 2z m488 5 c4 -6 -5 -10 -20 -10 -15 0 -24 4 -20 10 3 6 12 10
20 10 8 0 17 -4 20 -10z m-6614 -40 c5 0 9 7 9 15 0 10 10 15 31 15 30 0 31
-1 25 -35 -4 -22 -3 -35 4 -35 5 0 10 18 10 39 l0 39 54 -1 c61 -2 73 -8 51
-27 -8 -7 -15 -25 -15 -41 0 -16 -4 -29 -10 -29 -5 0 -10 16 -10 35 0 29 -4
35 -21 35 -11 0 -17 -4 -14 -10 3 -5 -1 -20 -9 -32 -18 -25 -96 -35 -96 -12 0
24 -20 25 -29 2 -7 -19 -10 -20 -15 -7 -8 18 -2 62 11 81 6 9 9 6 11 -9 2 -13
8 -23 13 -23z m554 -10 c23 -46 24 -50 7 -50 -12 0 -28 18 -46 50 -26 48 -26
50 -7 50 15 0 28 -15 46 -50z m1815 20 c0 -10 -4 -22 -10 -25 -6 -4 -10 7 -10
25 0 18 4 29 10 25 6 -3 10 -15 10 -25z m2128 -9 c3 -21 -13 -51 -27 -51 -5 0
-7 49 -3 73 4 17 27 0 30 -22z m2107 -2 c32 -7 26 -43 -7 -47 -16 -2 -28 2
-28 8 0 6 10 8 25 4 19 -5 25 -2 25 9 0 9 -10 17 -22 19 -12 2 -23 10 -25 18
-3 10 -2 11 4 4 4 -7 17 -13 28 -15z m-1605 -24 c0 -20 -5 -25 -25 -25 -18 0
-25 5 -25 18 0 24 8 32 32 32 13 0 18 -7 18 -25z m625 -21 c0 -12 -7 -19 -20
-19 -21 0 -28 25 -10 37 16 12 30 3 30 -18z m485 5 c0 -5 -4 -9 -10 -9 -5 0
-10 7 -10 16 0 8 5 12 10 9 6 -3 10 -10 10 -16z m-4222 -58 c-4 -37 -22 -32
-26 6 -3 27 0 32 13 27 10 -4 15 -16 13 -33z m-988 10 c0 -11 -4 -23 -10 -26
-6 -4 -10 5 -10 19 0 14 5 26 10 26 6 0 10 -9 10 -19z m490 -5 c0 -14 -4 -28
-10 -31 -6 -4 -10 7 -10 24 0 17 5 31 10 31 6 0 10 -11 10 -24z m986 -15 c-13
-20 -26 -11 -26 16 0 25 1 26 16 11 9 -9 13 -21 10 -27z m5744 -30 c14 -27 13
-28 -15 -28 -26 0 -29 5 -19 31 8 21 21 20 34 -3z m-7230 -83 c0 -29 -4 -48
-8 -41 -7 12 -4 93 4 93 2 0 4 -24 4 -52z m490 -47 c-7 -11 -9 2 -9 44 l1 60
9 -44 c5 -26 5 -50 -1 -60z m500 75 c0 -13 2 -30 5 -38 3 -7 -1 -22 -9 -33
-14 -19 -15 -16 -16 38 0 31 4 57 10 57 6 0 10 -11 10 -24z m490 -37 c0 -27
-4 -49 -10 -49 -5 0 -10 25 -10 56 0 34 4 53 10 49 6 -3 10 -28 10 -56z m4043
16 c-3 -9 2 -22 13 -30 17 -13 17 -14 2 -15 -17 0 -38 28 -38 49 0 6 7 11 15
11 9 0 12 -6 8 -15z m-2506 -27 c-3 -7 -5 -2 -5 12 0 14 2 19 5 13 2 -7 2 -19
0 -25z m3603 -168 c11 -7 11 -10 2 -10 -7 0 -10 -4 -7 -10 3 -5 0 -10 -7 -10
-10 0 -10 -2 1 -9 8 -5 11 -16 8 -25 -8 -20 -47 -21 -47 -1 0 19 -7 19 -26 1
-19 -19 -18 -30 6 -51 18 -16 20 -16 26 -1 3 9 17 16 31 16 21 0 23 -3 17 -22
-5 -13 -7 -32 -7 -43 5 -70 14 -169 16 -179 3 -15 -90 -21 -108 -6 -19 15 -32
324 -15 345 14 17 86 20 110 5z m510 0 c8 -5 10 -10 4 -10 -7 0 -8 -22 -1 -72
6 -51 6 -77 -2 -90 -9 -15 -8 -18 10 -18 17 0 20 -4 15 -22 -3 -13 -6 -27 -6
-32 0 -4 -7 -5 -16 -2 -13 5 -14 3 -6 -6 5 -7 11 -34 13 -60 l4 -48 -56 0
c-34 0 -61 5 -67 13 -14 17 -31 316 -20 340 7 13 21 17 61 17 29 0 59 -5 67
-10z m520 -82 c0 -51 4 -135 8 -185 l7 -93 -66 0 c-41 0 -70 5 -77 13 -5 6
-15 84 -21 172 -14 187 -15 185 85 185 l63 0 1 -92z m-3113 75 c-16 -4 -18
-18 -15 -169 3 -148 -2 -196 -14 -146 -7 30 -10 280 -3 301 4 14 14 21 28 20
18 -1 19 -2 4 -6z m655 -6 c-14 -8 -19 -16 -13 -22 5 -6 10 -23 11 -40 3 -44
1 -52 -9 -36 -6 10 -9 2 -8 -22 1 -26 6 -37 16 -37 12 0 13 -2 3 -8 -14 -9
-13 -137 2 -160 6 -10 0 -13 -25 -10 l-34 3 -8 160 c-4 88 -5 166 -2 172 2 8
22 13 47 13 40 -1 41 -2 20 -13z m658 -7 c-22 -22 -29 -113 -9 -126 8 -5 10
-33 7 -89 -3 -45 -1 -89 4 -98 8 -15 3 -17 -36 -17 -33 0 -48 5 -55 18 -7 13
-17 267 -12 320 1 8 20 12 61 12 l60 0 -20 -20z m-6040 -39 c0 -30 0 -30 -60
-29 -50 1 -60 4 -60 18 0 21 34 32 49 17 8 -8 11 -8 11 0 0 11 18 19 48 22 7
1 12 -11 12 -28z m5597 -26 c2 -36 0 -44 -6 -30 -5 11 -7 30 -4 43 5 21 2 22
-46 22 -29 0 -51 5 -51 11 0 6 21 9 53 7 l52 -3 2 -50z m-6342 36 c3 -6 31 -8
62 -6 33 3 62 0 70 -6 10 -9 13 -8 13 0 0 7 5 9 10 6 6 -3 10 -19 10 -35 0
-15 6 -30 13 -33 20 -7 0 -20 -34 -22 -18 -1 -33 4 -36 12 -4 11 -8 10 -19 -4
-15 -20 -18 -11 -14 35 2 33 -20 27 -26 -8 -8 -40 -22 -38 -26 3 -2 22 -8 32
-20 32 -9 0 -20 4 -24 8 -15 15 -24 6 -24 -23 0 -29 15 -41 22 -18 2 6 9 8 16
4 20 -12 1 -36 -29 -36 -28 0 -29 2 -29 50 0 49 1 50 29 50 17 0 32 -4 36 -9z
m1266 -36 c6 -25 16 -45 21 -45 5 0 8 6 7 13 -1 6 -1 25 0 40 1 37 21 25 21
-14 0 -19 5 -29 15 -29 8 0 15 -4 15 -10 0 -5 -20 -10 -45 -10 -36 0 -45 3
-45 18 0 9 -5 24 -11 32 -8 12 -9 11 -5 -5 4 -14 -1 -24 -15 -33 -12 -8 -23
-12 -25 -10 -7 8 32 98 43 98 7 0 18 -20 24 -45z m3722 -2 c9 -25 15 -49 12
-52 -8 -8 -25 20 -25 42 0 9 -5 17 -11 17 -6 0 -8 -7 -5 -16 3 -8 0 -22 -8
-30 -21 -20 -28 -17 -21 9 12 42 27 77 34 77 4 0 14 -21 24 -47z m652 37 c-3
-5 -20 -10 -36 -10 -20 0 -29 -4 -26 -12 2 -7 9 -14 15 -14 25 -3 26 -6 5 -14
-13 -5 -23 -16 -23 -25 0 -8 -4 -15 -10 -15 -5 0 -10 23 -10 50 l0 50 46 0
c27 0 43 -4 39 -10z m-4225 -14 c0 -8 -7 -16 -15 -20 -8 -3 -15 -17 -15 -31 0
-14 -4 -25 -10 -25 -5 0 -10 13 -10 29 0 16 -5 31 -12 33 -21 7 3 28 33 28 18
0 29 -5 29 -14z m3620 -26 c0 -20 5 -30 15 -30 8 0 15 -4 15 -10 0 -5 -11 -10
-25 -10 -22 0 -25 4 -25 40 0 22 5 40 10 40 6 0 10 -13 10 -30z m92 18 c-7 -7
-12 -25 -12 -40 0 -15 -4 -28 -10 -28 -5 0 -10 13 -10 28 0 15 -5 33 -12 40
-9 9 -4 12 22 12 26 0 31 -3 22 -12z m563 -8 c10 -11 22 -20 27 -20 4 0 8 9 8
20 0 11 5 20 10 20 6 0 10 -18 10 -40 0 -22 -3 -40 -7 -40 -4 0 -20 12 -35 27
l-28 27 0 -27 c0 -15 -4 -27 -10 -27 -5 0 -10 18 -10 40 0 45 8 49 35 20z
m525 -19 l0 -40 48 -4 c46 -3 46 -3 -10 -5 l-58 -2 0 45 c0 25 5 45 10 45 6 0
10 -18 10 -39z m68 32 c-10 -2 -26 -2 -35 0 -10 3 -2 5 17 5 19 0 27 -2 18 -5z
m15 -30 c-7 -2 -21 -2 -30 0 -10 3 -4 5 12 5 17 0 24 -2 18 -5z m-5553 -34 c0
-23 -4 -29 -22 -29 -27 0 -43 10 -51 30 -4 12 -6 11 -6 -2 -1 -22 -24 -23 -41
-3 -19 23 -4 32 60 33 60 1 60 1 60 -29z m2575 11 c-4 -6 -68 -10 -161 -10
-96 0 -154 4 -154 10 0 6 60 10 161 10 104 0 158 -3 154 -10z m2942 4 c-3 -3
-12 -4 -19 -1 -8 3 -5 6 6 6 11 1 17 -2 13 -5z m40 0 c-3 -3 -12 -4 -19 -1 -8
3 -5 6 6 6 11 1 17 -2 13 -5z m-5488 -83 c17 -11 28 -101 13 -110 -7 -4 -28
-5 -48 -3 l-36 4 5 44 c7 63 31 87 66 65z m7351 -7 c11 -12 11 -18 -1 -30 -13
-12 -18 -12 -34 -1 -11 9 -16 20 -12 31 8 20 31 21 47 0z"/>
<path d="M4160 3881 c-15 -28 -13 -314 2 -329 9 -9 117 -12 424 -12 227 0 419
3 428 6 14 5 16 30 16 174 0 144 -2 169 -16 174 -9 3 -202 6 -429 6 -399 0
-415 -1 -425 -19z m400 -60 c-16 -31 5 -26 29 7 11 15 21 22 21 16 0 -6 -9
-23 -21 -38 -17 -22 -18 -26 -4 -26 9 0 13 -4 10 -10 -3 -5 -21 -10 -38 -10
l-32 -1 31 -13 c53 -24 57 -56 12 -114 -29 -38 -37 -42 -75 -42 -47 0 -54 12
-26 42 15 17 15 18 -1 18 -16 0 -16 1 -2 16 12 12 13 20 6 35 -6 11 -8 24 -5
29 3 6 4 10 0 10 -9 0 -50 -24 -57 -35 -4 -5 -12 3 -17 18 -14 36 -14 37 3 37
8 0 28 11 44 25 17 14 39 25 51 25 12 0 21 5 21 10 0 6 4 10 10 10 5 0 6 -8 3
-17 -6 -16 -5 -16 10 -5 9 8 19 24 23 35 4 12 9 17 11 10 2 -7 -1 -21 -7 -32z
m109 24 c35 -17 77 -66 95 -109 14 -33 30 -126 23 -126 -3 0 -14 16 -26 35
-21 37 -47 48 -36 16 3 -10 1 -29 -4 -42 l-10 -24 0 28 c-1 27 -21 40 -21 13
0 -20 -27 -40 -32 -24 -4 10 -8 10 -19 2 -8 -7 -30 -15 -49 -19 l-34 -8 29 35
c17 19 32 30 33 26 2 -4 8 -8 14 -8 7 0 9 18 5 47 -4 42 -4 45 9 29 8 -11 16
-17 18 -15 8 8 -21 120 -33 132 -28 28 -6 35 38 12z"/>
<path d="M4450 3780 c0 -5 5 -10 10 -10 6 0 10 5 10 10 0 6 -4 10 -10 10 -5 0
-10 -4 -10 -10z"/>
<path d="M4491 3736 c-8 -9 -9 -16 -2 -20 6 -4 8 -20 4 -38 -5 -28 -4 -29 14
-20 47 26 56 72 13 72 -12 0 -18 5 -15 10 9 15 -1 12 -14 -4z"/>
<path d="M6133 3375 c0 -27 2 -38 4 -22 2 15 2 37 0 50 -2 12 -4 0 -4 -28z"/>
<path d="M6656 3392 c-4 -13 -5 -26 -2 -29 10 -11 18 4 14 29 l-4 23 -8 -23z"/>
<path d="M8311 3154 c0 -11 3 -14 6 -6 3 7 2 16 -1 19 -3 4 -6 -2 -5 -13z"/>
<path d="M6760 3240 c0 -5 7 -10 15 -10 8 0 15 5 15 10 0 6 -7 10 -15 10 -8 0
-15 -4 -15 -10z"/>
<path d="M7266 3243 c-12 -12 -6 -33 9 -33 8 0 15 6 15 14 0 17 -14 28 -24 19z"/>
<path d="M1320 2805 c-6 -8 -10 -20 -7 -27 3 -8 6 -6 6 5 1 10 11 22 24 27 15
6 17 9 6 9 -9 1 -22 -6 -29 -14z"/>
<path d="M1335 2790 c-3 -5 -1 -10 4 -10 6 0 11 5 11 10 0 6 -2 10 -4 10 -3 0
-8 -4 -11 -10z"/>
<path d="M2195 2790 c-3 -5 1 -10 9 -10 9 0 16 5 16 10 0 6 -4 10 -9 10 -6 0
-13 -4 -16 -10z"/>
<path d="M8330 2135 c0 -29 4 -35 21 -35 11 0 17 5 14 10 -3 6 2 10 12 10 17
1 17 1 1 11 -10 5 -15 16 -12 24 4 10 0 15 -15 15 -17 0 -21 -6 -21 -35z"/>
<path d="M8828 2323 c7 -3 16 -2 19 1 4 3 -2 6 -13 5 -11 0 -14 -3 -6 -6z"/>
<path d="M8897 2303 c-13 -12 -7 -43 8 -43 9 0 15 9 15 25 0 24 -10 32 -23 18z"/>
<path d="M8840 2159 c0 -5 5 -7 10 -4 6 3 10 2 10 -4 0 -5 -5 -11 -12 -13 -19
-7 0 -38 23 -38 18 0 19 3 9 15 -6 8 -9 23 -5 35 5 16 2 20 -14 20 -12 0 -21
-5 -21 -11z"/>
<path d="M8764 2089 c-3 -6 -1 -16 5 -22 8 -8 11 -5 11 11 0 24 -5 28 -16 11z"/>
<path d="M8755 2040 c3 -5 8 -10 11 -10 2 0 4 5 4 10 0 6 -5 10 -11 10 -5 0
-7 -4 -4 -10z"/>
<path d="M7770 2220 c0 -5 5 -10 11 -10 5 0 7 5 4 10 -3 6 -8 10 -11 10 -2 0
-4 -4 -4 -10z"/>
<path d="M6286 1313 c-6 -14 -5 -15 5 -6 7 7 10 15 7 18 -3 3 -9 -2 -12 -12z"/>
<path d="M375 1290 c-3 -5 -1 -10 4 -10 6 0 11 5 11 10 0 6 -2 10 -4 10 -3 0
-8 -4 -11 -10z"/>
<path d="M1075 650 c-3 -5 1 -10 10 -10 9 0 13 5 10 10 -3 6 -8 10 -10 10 -2
0 -7 -4 -10 -10z"/>
<path d="M1063 604 c-8 -22 18 -37 36 -20 7 8 10 19 7 25 -10 16 -36 13 -43
-5z"/>
<path d="M8440 649 c0 -5 5 -7 10 -4 6 3 10 8 10 11 0 2 -4 4 -10 4 -5 0 -10
-5 -10 -11z"/>
</g>
</svg>
